<mxfile host="app.diagrams.net" modified="2024-06-27T14:09:45.137Z" agent="Mozilla/5.0 (Macintosh; Intel Mac OS X 10_15_7) AppleWebKit/537.36 (KHTML, like Gecko) Chrome/126.0.0.0 Safari/537.36" etag="14x47Z3q3vMmjk-WNg5f" version="24.6.3" type="device">
  <diagram name="ページ1" id="sYLr85I-irBwA0vXBr-K">
    <mxGraphModel dx="1242" dy="785" grid="1" gridSize="10" guides="1" tooltips="1" connect="1" arrows="1" fold="1" page="1" pageScale="1" pageWidth="827" pageHeight="1169" math="0" shadow="0">
      <root>
        <mxCell id="0" />
        <mxCell id="1" parent="0" />
        <mxCell id="mu3TLzRvKkOABFL3PFfV-50" value="&lt;b&gt;Google &lt;/b&gt;Cloud Platform" style="fillColor=#F6F6F6;strokeColor=none;shadow=0;gradientColor=none;fontSize=14;align=left;spacing=10;fontColor=#717171;9E9E9E;verticalAlign=top;spacingTop=-4;fontStyle=0;spacingLeft=40;html=1;whiteSpace=wrap;recursiveResize=0;" vertex="1" parent="1">
          <mxGeometry width="840" height="532.5" as="geometry" />
        </mxCell>
        <mxCell id="mu3TLzRvKkOABFL3PFfV-51" value="" style="shape=mxgraph.gcp2.google_cloud_platform;fillColor=#F6F6F6;strokeColor=none;shadow=0;gradientColor=none;" vertex="1" parent="mu3TLzRvKkOABFL3PFfV-50">
          <mxGeometry width="23" height="20" relative="1" as="geometry">
            <mxPoint x="20" y="10" as="offset" />
          </mxGeometry>
        </mxCell>
        <mxCell id="mu3TLzRvKkOABFL3PFfV-56" value="" style="fillColor=#e1d5e7;strokeColor=none;shadow=0;fontSize=14;align=left;spacing=10;9E9E9E;verticalAlign=top;spacingTop=-4;fontStyle=0;spacingLeft=40;html=1;whiteSpace=wrap;recursiveResize=0;" vertex="1" parent="mu3TLzRvKkOABFL3PFfV-50">
          <mxGeometry x="20" y="47.5" width="540" height="485" as="geometry" />
        </mxCell>
        <mxCell id="mu3TLzRvKkOABFL3PFfV-13" value="Firebase" style="shape=image;verticalLabelPosition=middle;labelBackgroundColor=none;verticalAlign=middle;aspect=fixed;imageAspect=0;image=data:image/png,iVBORw0KGgoAAAANSUhEUgAAAlgAAAJYCAYAAAC+ZpjcAAAACXBIWXMAAAsTAAALEwEAmpwYAAAAAXNSR0IArs4c6QAAAARnQU1BAACxjwv8YQUAAC8MSURBVHgB7d3Nk113eSfw53TLNnHicXsUYHAyoRUTJ1WWCjlsQhGCtMgqUxWTVXaIv8DyX2B7OSuLv8D2bnZyqmZWWUgGUswmoSlJkxqD6PYkwYEAbpdD8Ev3PXN+t69kvXX3fTkvv3PO51N1ubJsQ2Hfvvd7n+f5Pb8IAAAAAAAAAAAAAAAAAAAAAAAAAAAAAAAAAAAAAAAAAAAAAAAAAAAAAAAAAAAAAAAAAIBFbZ+JV358Oq4EQAaKAOix7bOxUe7F5TLi3PQ3irj01LV4IQA6tBYAPVWFq83Jfnz/drhKyri4fTpeDIAOqWABvVSFqHOTIi5XgWrjQX9+rYwLp27E6wHQAQEL6J0qXD0/ibh0zF+2u1/G+advxFYAtEyLEOiVNMw+R7hKNtbX4nJqIwZAy1SwgF64b5h9XkXsrK3Hs6e2YjcAWqKCBWTvgcPs8yqrv3cvXg2AFglYQNaqcHW2CldXUlCK5T13s2otBkBLtAiBbB13UnBhZbzw1I255rcAViJgAVma86Tgwqqy/flT1+NqADRIixDIzs3T8WIT4Sqp/nudLAQaJ2ABWbl5sIX9pWjORprpErKAJglYQDZunpme9nspmnZwsvByADTEDBbQuaV3XK2qiNeeuhbfDICaqWABnUrhqqomXWk9XCVlXHAxNNAEFSygM7MFoqvuuFqZi6GBuglYQCdyCVczLoYGaqVFCLQus3CVuBgaqJUKFtCqDMPVJ1wMDdREBQtoTdbhKnExNFATAQtoRfbh6hPPOVkIrEqLEGhcj8LVJ1wMDaxAwAIa1ctwNeNiaGBZAhbQmD6Hq5ndtRPTofedAFiAGSygEQMIV8mti6E3AmABAhZQu4GEqwPV/4fSxdDAggQsoFaDClcz6Z7Em2filQCYk4AF1GaI4eq2Mi5a3wDMy5A7UItBh6s7uBgamIeABawsDYFP9qpwFXE2hs/F0MCxtAiBlY0oXCUuhgaOJWABK7l5Znp331jC1YGDOwsvW98AHEbAApa2nU7WlXEhxunsZN/JQuDBBCxgKTdPx4uTMi7GmFXh0slC4EEMuQMLu3kQKl4KppwsBO4lYAEL2X4mvjEp4rXgLvtlPOtkIXCLgAXMbftsnJ3sxfeD+xWxs7Ye510MDSRmsIC5zBaJupPvMOXBolUnC4FEwAKONZYt7StzMTQwI2ABx0o7n4Sr+bgYGkgELOBI2wdhYVyLRFdVxsWbz4x8hQWMnCF34FDWMaym+gZ7/tT1uBrA6AhYwANtn47nJxGXglXsrp2IZ50shPERsID7WMdQo4P1DSlk7QYwGmawgLtYx1AzJwthlAQs4C7WMdTPyUIYHwELuG16YlC4akYZF10MDeNhBguYcmKwHWURX//CtXgjgEETsIB0YvDcJKrWIG3Y3S/jvIuhYdi0CGHkpkPtRbwatGVjfS0up3/uAQyWgAUjZ6i9A+li6L1pyHIxNAyUgAUjZqi9U2ercOtkIQyUgAUjNd3UXrovr1NlXHCyEIbJkDuM0GyZ6PerD3gtqgysVUHr1I14PYDBELBgZNLczyxcbQa5cLIQBkaLEEZmOvcjXOXGyUIYGAELRiTNXaW5nyA/ThbCoAhYMBLTuauIS0HOnCyEgRCwYARmc1c2tfeBk4UwCAIWjMF+9YFt7qo3qkrjS9vPxDcC6C2nCGHgfnQmLhSlq3D6aL+MZ50shH4SsGDAZvuuXIXTV0XsrK3H+VNbsRNAr2gRwoCVe1XlSrjqr/IgIDtZCP0jYMFA3TwdL5YR54J+O1jfoMULPaNFCAM0bQ3uxXYwGNW34ZdOXY+XA+gFFSwYICsZhiedLLz5jMu5oS8ELBiY1Bo0dzVQRbyyfVrbF/pAixAGpGoNnq1ag98Phmx37UQ862Qh5E0FCwZitq39cjB0G04WQv4ELBgK29rHo/r3XO4J05AzLUIYgDSXMwmD7aNTxKWnrsULAWRHwIKem7UGv696NVJlvPDUjbgUQFa0CKHnJnvxvHA1Yk4WQpZUsKDHLBRlxslCyIwKFvSYhaLMOFkImRGwoKcsFOUuThZCVrQIoYe0BjmUk4WQBRUs6KGqUvFqwIOUcdGdhdA9FSzomR+diQtFKWBxtOrb8/lT1+NqAJ0QsKBHpq3BNNhu9orjOVkIHdIihB6ZuA6H+TlZCB0SsKAnUvWqClcXAublZCF0RsCCnrDzimWUEedunolXAmiVgAU9kAbbtQZZmpOF0DpD7pA5g+3UxclCaI8KFmTOYDt1mURcns7yAY1TwYKM2dhO7YrYWVufrm/YDaAxKliQsSpcGU6mXk4WQisELMjUdLA94rmAmjlZCM0TsCBTVf/+xYCmOFkIjRKwIEPWMtCKIl7ZPh3nAqidIXfIjLUMtMydhdAAFSzIzX48L1zRIncWQgMELMjItHpVmouhZU4WQu0ELMjIdKkodMDJQqiXGSzIhKWiZKGMF566EZcCWIkKFmRC9YosFPHKW8/E2QBWooIFGfjh6ThXfdu5EpCDg+t0zjtZCMtTwYIMWCpKVsqDVSFOFsLyBCzoWFoqWgWscwE5Kaczga8GsBQBCzqmekXGnts+7fUJyxCwoEOuxCF3k4iXtp+JbwSwEEPu0KGbZ2JbwKIHdvfLOP/0jdgKYC4qWNAR1St6ZGN9LS6nXW0BzEXAgo6YvaJXDobeLztZCPMRsKADqlf01NnJvut0YB4CFnRA9YreKuOCk4VwPAELWpa2tqte0WdOFsLxBCxomeoVQzAp4pI7C+FwAha0KFWvbG1nIJwshCMIWNCitUJbhQGZnSwM4D4CFrRk+k2/jAsBw3L25hknC+FeAha0ZLJv9oqBKuPizWfiYgC3uSoHWpCqV1UrZTtgwKpv7OdPXY+rAahgQRtUrxiDSRh6h1sELGjY7GqRcwHDt1F9mbjiOh0QsKBx+/vxnMWijEb1Wi+dLAQBC5pmsShjU1YVWycLGTsBCxrkUmdGy8lCRk7AgiaVFosyYkW84jodxsqaBmiI1QwQ6VNmZ209zp/aip2AEVHBgoZYzQBx+zodJwsZGwELGuBaHLjL2eoLh6F3RkXAggbs79t7BXepvnBsn1bVZTzMYEEDbp6JbacH4X5rVdA6dSNeDxg4AQtq9sPTca4qDV8J4EF2107Es4beGTotQqjZWmE1AxzBdTqMgoAFNTLcDnNwnQ4jIGBBjQy3w3xcp8PQCVhQI/cOwgJcp8OAGXKHmhhuh+VUPzfnT12PqwEDooIFNTHcDsuZFPHqdH4RBkTAgrqU8VwAi3OdDgMkYEENfnRmenLQhwMsz3U6DIqABXUotQdhZa7TYUAMucOK0uxI1d7YDqAWrtNhCFSwYEV2X0G9JkVcMvRO3wlYsCK7r6B2rtOh9wQsWEH1AXA2nYAKoF6u06HnBCxYQfUt+/kAGuE6HfpMwILVnAugOa7ToaecIoQluRoHWrO7X8b5p2/EVkBPqGDBklyNA63ZWF+bbnrfDOgJAQuWdy6AdrhOh54RsGAJqT3o9CC0Ll2nYy0KvSBgwRK0B6Ejht7pCQELlnMugG4U8cr2aT+D5E3AggVpD0L3JmHonbwJWLCg6ofmuQC6tmHonZwJWLCoIv4ygBykoXeb3smSgAULcPcgZKaMC9unnSwkPwIWLGDyscFayM0k4iVD7+RGwIIFlNqDkCVD7+TGXYQwp/TmPdmL7QDyVMTO2no8e2ordgM6poIFc9rf14KArB1cp/NqQAYELJhTVe7VHoT8PWfonRxoEcKcbp6Od6snO3egB8oivv6Fa/FGQEdUsGAOPzw4oSRcQU8UZbxq6J0uCVgwB9vboXc2JvtxxaZ3uiJgwXy+FkC/GHqnQwIWHGPWZjgbQB8ZeqcTAhYcY39fuII+S5vef3RGm592CVhwDOsZoP8MvdM2AQuOdy6AvjP0TqsELDjC9Btv6VsvDEIaet+PVwJaIGDBEVyPAwNTxgVD77RBwIIjmL+C4UlD79unfXmiWQIWHM0JQhigKmRdNvROkwQsOET15nvW/BUM1sZkbxqyDL3TCAELDmH/FQze2cm+eSyaIWDBIQrX48DwlXHx5jNxMaBmAhYcplTBglEo4pW3nvHzTr0ELHgA9w/CuKyvGXqnXgIWPID5KxiZMjbLvXg1oCYCFjxAUdqRA2NTRpy7ecamd+ohYMEDVG+0XwxgfMq4uP1MfCNgRUUA97l5OmUsYKR2107Es6e2YidgSSpYcI8fukIDxm5jsh9XLCFlFQIW3GPNegagjM0qZJnHYmkCFtxrzfwVEClkXbCElGUJWHAvFSzgFktIWZIhd7hDmrmY7MW7AXBLETtr69Oh992AOalgwR329nxTBe5xsIT0csACBCy4gwF34EHSEtLt0/FiwJwELLiTAXfgEJOIl7atcWFOAhbcoSxd9gocblLEqy6FZh4CFtyhCN9OgSO4FJo5CVgwU30rNX8FHMul0MxDwIKZ/X1lf2BO6VJo81gcQcCCmcIJQmAB5rE4ioAFtxROEAILMI/FEQQsuMUJQmBB03ks9xXyAK7KgZmbp9N7JcDiqmrF+VPX42rAjAoWhBOEwGpm81gbATMCFoQThMCKytic7FvdwCcELAgnCIEalHHBPBa3CFiQOEEI1KGIF61uIBGwIKZ3EJqdAOqwYXUDiYAFMT1Oq0UI1MLqBhJrGhi9dPJnshfvBkCN9st49ukbsRWMkgoWo7e3p3oF1G+90CocMwGL0SsK81dAI87ePGN1w1gJWIyeFQ1AY8q4uH06zgWjI2AxemXhSDXQHFvex0nAgjI+HwBNOdjy/mIwKgIWo1eEb5ZAw6pW4VvPGEcYEwEL7MACWuBU4bgIWIyauQigRWdvno6XglEQsBg1O7CAlj3vrsJxELAYNTuwgJa5q3AkBCxGrZj4Jgm0y12F4yBgMW4qWEAXinjRDOiwCViMmiWjQEc2Jvuu0RkyAYtxs2QU6EoZF1yjM1wCFgB0ZGI31mAJWIxaoUUIdKmMTbuxhknAYtxKAQvonN1YA3QiYA7l92Y//Huz53J6+uWTEzBr1a/LQ07ElLFzxx/tRlE9Dv6e3enjU7FbPDv7vRalEzyTvQDoWnovSgPvXw8GowhGbRqcUmhKlZzULlubDn1vzCo7B6GpvVUGOxHToJVC2E5M4u1pGCtjKwWx4ivVc43SN8bqTW07ADJQtZTOn7oeV4NBUMEagfL7VUD69zg7DU0n4ovT53J6Rcxm7MdBzL4Vtct7/uZ2I/jm7V+Vd/xvFwd/XH53+pzC19Y0gJXxg1XC114VLPXIgVxMYlrFejYYBBWsgZlWpD6Oc/cFqaG7FbzWqkeqfFXBq/jq0d8Ef3g6zlUB60oA5KKMF566EZeC3hOweux2ZWotvlb9UJ6bhimbye91dRq69uLNeKgKXV/+ZB7sR2fiQlE6Ig1kZXftRJw6tdX+XCr1ErB6ZBqo3p9Wp75WVWnOVb91NljUzrTSFfE3//Lf44sf/th9YEB2Xn7qutUNfSdgZa78ThWkblWowsbfWv0kYu+tiF+/E/GrtyM+qJ4nHwZA52ZVrJ2gtwSsjE3nqfanM0KbQf2qgBXv3P1bKWT9aucgcO29HwCdqD6cr/7+9Tgf9JaAlbHy7+LVdFdV0Ix/qh4/O/xPp4CVgtb7P4z46OcB0CprG/pNwMrUrHplR1OTdqrHL+b7S4UtoG2qWP0mYGVK9aoFNyOWOaeTwtZ717URgeapYvWXgJWhKlylpaDfD5r1VvVYMSClma333zp4ANSuiJ2nrsWpoHcErAyV350Otp8LmlVDwLolVbLSacR3/0FVC6hXWcQ3v3AtXgt6RcDKTFW9uhCWX7bj/1SPX0ftVLWAWlVVrLX1eNby0X5xFVtuyngxaMd+NOJTn4v49Ncifu+vI574UsSJxwJgeeX0YnpLkXtGBSsjqlctu1Y9PopWpGqW9iGwAlfo9IwKVk5UrwbrsacPKlqpsvXwbwfAojZUsfpFBSsTqlcd+PvoTJrT+mVV0frgJwEwL1WsHlHByoXq1aikOa0n/6J6/Lfq108GwDxUsXpEBSsDqlcd6bCCda9U0frZm2a0gGOpYvWEClYOVK9GL1W0bs1oOXUIHEEVqydUsDqmetWhjCpY93LqEDiCKlYPqGB1rYxvBNwjnTpMM1qPnwmAe21MPnZXbe5UsDpUfifOVf8GrgTtS0tGt6IXUhUrVbNshgduc0dh9lSwurSmetWZhra4NyHNZKXZLPNZwG1lbP7oTDwXZEsFqyPl92Kz+pDfDrqRNrhfi15K1ax3M54fA9pRfYBf/f3rcT7IkgpWVyZODrKcJ/744MShahaMWxlxbvt0nAuypILVAdWrDPS4gnWn964fVLMmLd2pCORFFStfKlhdmPjGQT0ePx3xu39lGzyMlSpWvgSsLlgs2r2HYzBSqzCtdDj55eoHekD/v4D57Idh9xwJWC2bLhaNqkUINbtVzTKbBeNStQm/sX02NoKsCFhts1iUBqVwlQbgn/hSAOPh+pwMGXJvkeH2zAx81cGHv4j46d+6bgdGYvep6/FEkA0VrDZZzUCLHjl5MJuVrt0BBm/DsHteBKw2lV78tOvWFngtQxi+MnyJz4mA1RLD7Rlaj9FIy0l/xwA8DNp0ZcMzcTbIgoDVFsPt+RlRwEputQwfPhnAQE0KKxtyYci9BYbbM5U2uY90A7r7DGGwdtdOxKlTW7EbdEoFqw2Oz5KZ1DJMi0mBwdnY3zfvmwMBqw1F/GWQn0di1NJiUnNZMDxrZTwfdE7Aalj5nek3ic2ADN2ayxKyYDimw+5/5HOnawJW09YMt2drZEPuh7l1l6HhdxiOyYnpyXU6JGA1rXSiI1sC1m0pZKV7DC0lhcHQJuyYgNWg2e4rF3DSG5aSwmDY7N4xAatZhttz9nDwAOmEoZAFA2D/YqfswWpIeaWqXD0U7wb5+kn1eCc4hF1Z0Ht2YnVIBaspD5u9yt7I1zQcJ1WyUssQ6K20E8tnUUcErOZoD9J7aehdyIL+WtMm7IwWYQO0B3siFc1vBnN4/62If3szgP7RJuyIClYT1p3c6AVD7nNTyYLe2ph8bCdWFwSsJqxrD/bCiWABQhb0U+G6tk4IWE2wXLQfLBpdmJAF/TO9OuesnYxtE7BqNrt70Au5DwSspQhZ0D9OE7ZPwKqfF3GfmMNaSgpZJ78cQE84Tdg+Aatuet39ooq1tMdP2/gOfVG1Cc9qE7ZLwKpR+b3YrJ42g/6wbHQlrtWB3tiIvTgbtEbAqtPEeobeUcFaWQpZqWUIZE6bsFUCVr20B/vGDFYt0tD7p54MIGOTwoxwmwSsOpUqWL2jRVib//LnESceCyBfG9unfU61RcCqifUMPaVFWJu1qhr45F8IWZCzSQhYbRGw6nMu6B8twlqlcPXZPw8gU0WELXYtEbDqUnjR9pLrcmr3yEk7siBXtrq3R8Cqz7mgf1SwGpF2ZD1+JoAM2ereDgGrBrP5K/pKyGrEyT9xshBytD7RcWmDgFWPc0F/PRo0xMlCyM9kzWdWGwSsOpi/6jcnCRuTThYaeofMlLG5/UduHWmagFUP1w/0mRZhowy9Q34m6+awmiZgrcj+qwGwbLRxaejddTqQj+rD/4tBowSsVRWqV733G0ELUhXLPBbkwRxW8wSsVZm/6j8VrFaYx4KMmMNqnIC1qtILtPfWw6B7S8xjQT72H1LFapKAtYLyynT2SotwCAy6tybNY9mPBRkofX41ScBaxQkvzsGwC6tVn/mzg5Yh0B33EjZLwFqFAffh8GHfqjTs/sSXAujWWfcSNkfAWoUB9+Ew6N46rULIwJ5CQVMErFUYcB8Oqxo6oVUI3ZqYw2qMgLUkA+4Do4LVCa1C6JaFo80RsJZlwH1Y0poGlZROaBVCdywcbY6AtSwD7sPjJGFntAqhI2nhqEH3RghYyzJ/NTw+4DujVQgdMujeCAFrWYW+9eCoYHUqtQofPhlAywy6N0PAWp4X5NC4iLhzrtGB9hl0b4aAtYTZCUI966FJLUJ3EnbqNz5X5dynA2jRxExxIwSsZThBOFzmsDqXqlgG3qFVm0HtBKxllKpXg2UOq3MpXD1+JoD2bGz/kZBVNwFrGcqpw2WjexbSwPsJM3HQmv2HfK7VTcBaRiHpD5YKVhZSFcvAO7SnmPhcq5uAtZzPB8MkYGXjNz9vwzu0pVQ4qJ2AtZzNYJhcmZOVJ/44gDZYnl07AWs5m8Fwmf3JRlrboIoFzSvW7MKqm4C1oPJ7wtXgGXTPiioWtEAFq3YC1qL2vAgHTwUrK6pY0A6rGuolYC3KDqzhezR2bXTPiyoWtOCEgFUnAWtRdmCNwYbThHlRxYLm7TtJWCsBa3EqWGNgDis7qljQrMIcVq0ErEWt2YE1CipY2VHFgmatlT7f6iRgLcoM1jj4t5wlVSxozn71IxbURsBanI/eMbBwNEuqWNCcolDBqpOAtbjNYBysa8iSKhY0pFBAqJOAtTgvwLEw6J4lVSxoiCH3WglYCyivCFejYhohW7+pkQGN2D7rc64uAtYiPuWFNyppBsvC0Sw99nT15mVGDur3gc+5ughYi3BNzvh4q8lSClePnwmgbuve9eoiYMFRzGFl6/HTAdTNoHttBKxF2IE1PuawspWqWIbdoV6uy6mPgLUYAWtsHg77sDJmZQOQKwELjmMfVrbSygbD7lAf9xHWR8BahNLpOAlYWTPsDuRIwILjaAxnzbA71Kf0jlcbAQuOk3ZhqWJly7A71Ge9jMeDWghYMA/rGrJmszuQGwFrEWawxkvRPGs2uwO5EbBgHqlF6NqcbKVw9fBvB0A2BCyY13+K3SBbdmLB6kqdmtoIWDCvxzUKc/bISW1CIB8CFsxLvMpaCle/uRkAWRCwYF7WNWTv0c0AyIKABYv4rSBjrs4BciFgwSJOGnTPmdOEQC4ELFjEI7ERKiRZs3QUyIGABYsy7J61tHQUoGsCFixKwMqaNiEsryhjJ6iFgLUILzwSW92zl4bdAbokYMEyTgYZe9QcFtAxAQuWoU2YNVvdga4JWIsoHNFnRpswa+awYDmTIt4OaiFgLWIiYHEHbcKsWdcAdEnAgmVpE2btYQEY6JCAtRgVLD6hTZg11+bA4srCafm6CFiLMIPFvT4TZMwcFtAVAWsRawIW93gsyNgj2oSwkHX7HmsjYC1CwOJej4WQlbFPWTgKdETAWsQHAhYP8FtBpmx0hwXtqWDVRcBaQHFewOIBPhtkKg25n1BhhPl9yudcXQSsxe0E3CmdJPQhni1VLJjfqS0Bqy4C1uK8+LifYeps2YcFc7KioVYC1uIELO6Xlo7aiZUlAQvmVPp8q5OAtTj3NHG/FK58kGfJqgaYT6GAUCsBa1ESPodxdU6W0qC7je5wvMIOrFoJWIvSo+YwadD9UQE8R596MoBjTAodmjoJWIua+ADlCI+rY+XoIac84Xg6NLUSsBa1HlsBh0k7sQy7Z+eEZbBwrHJNh6ZOAtaiXJfDUezEypJlo3C89YmAVScBa0HFl70AOcZngsw88p8DOM5DPt/qJGAtZyfgMC6Azk6qYDlJCEfatcW9XgLWMgpzWBzj8SAza48EcLidoFYC1jLKeC/gKL8dht0zY6M7HK4srWiom4C1HBUsjmaze3asaoAj2PFYOwFrGU5aMA8bsbJiVQMczhb3+glYy3hIBYs5GHbPyroZLDjUmtni2glYS7Cqgbl9LsiEChYc4YSAVTcBa3k7AcdJFSzrAbIgYMGhrGhogIC1LOVU5vVpb1w5sKYBHqxwcKsRAtayJo60MqdPx4aVDd2zaBQebBLxg6B2AtaySomfOaVw5fqcLLiTEO7nBGEzBKxlPRRXA+b12bB4FMiSE4TNELCWNDtJaLaG+aRwZS9W51Sw4AGcIGyEgLWanYB5fUYg75o5LLiPE4QNEbBWYzCQ+T1a1bBUUDq1LmDBXZwgbI6AtRovTBZj8SiQkTLizaARAtYqCoPuLMj1OZ0ygwV3Kw24N0bAWsVHZrBYgioWkIn1dQGrKQLWCorz08FAL04Wo4oF5KCInVNbCgVNEbBWVepfswRVLKBj5cRBrSYJWKuy0Z1lqGJ14iH/zOG2IswRN0nAWpWN7ixLFQvokA3uzRKwVmSjO0tTxQI6dOq6AkGTBKw6WNfAslSxgA5oDzZPwKqDQXeWpYoFdGDiJpLGCVh1UMFiFapYQMvWI94IGiVg1aD4ynRQ0BwWy1HFas3+hwEkJwy4N03AqosqFqtQxWrF5KOA0UvzV6e2FAWaJmDVxRwWq1DFAlpi/qodAlZd1vWzWdHv+kYJNM/8VTsErJrYh8XKHo2NOBk0SIsQ7L9qi4BVr78JWMWTMf16STMmhtwZOfuv2iNg1WnihcuKHq4enwmARpSlQkBbBKw67etrU4PPhipWQz7+94BRW3vI51RbBKwaFeenM1hXA1aRwtWTAVCvInZObU3nhWmBgFU/5VdWl9qEDwc123s/YMyuBq0RsOpmXQN12QxqZsidMVsr4/WgNQJWzWbrGnYCVmX5aO2saWDEdq1naJeA1QSnNKjLZlAT4YpRK3RX2iZgNcMLmXpY21Ab81eMWWk+uHUCVgOKr07LsLa6Uw/LR2uhgsWYra9rD7ZNwGqKYULqYm1DLfbswGKk0nLRU1u+9LdNwGqONiH1SW1CA+8r+ViLkLFa83nUBQGrIdqE1O5zwQrMYDFW69YHdULAapI2IXVKFSwD70tzTQ5jpD3YHQGrWb41UC8D70sz5M4oaQ92RsBq0KxNuBNQlxSuPu/b6DI++nnA2Ox+4Vq8FnRCwGqaNiF1eyI2DLwv5qNfBIyP5aKdErCadsK3BxqwGVqFC9AeZIzcPdgtAaths7sJrwbUyYb3hXyogsXYFLHj7sFuCVjtcEUB9UsD748Gc7BklLEp3YnbOQGrDR9P24QGk6nf7wZzUMFibNZPxKWgUwJWC4rzVbjSC6cJdmPNxQlCxqSIuHpqywn2rglY7XGag2akVuHDwSHSCUJD7ozJpPCFPgcCVktmO7G2AuqWThNuBoewwZ1RKWLH7qs8CFhtMnRIU7QKD2UHFiNzNciCgNWmvenQoWF3mqFV+EC/fidgNNbW4+UgCwJWiwy70yitwgcy4M5YGG7Pi4DVPsPuNEer8C577xtwZzwmRXwryIaA1bLZsPvVgKb817CAdObDXwaMw8Fwuy/wGRGwulDqkdOwz4e7CisfmL9iJMrwuZIbAasDsyqWYXeakypYT8bo2eDOSOyur+uM5EbA6kqpV07D0izWYzFaafbqg58EDF8Rbxhuz4+A1RUrG2jDZoy2VWj/FWNhNUOeBKyOzFY2qGLRrLQXazNG6VdvBwxfEa+pXuVJwOqSKhZt2IhRrm4wf8UYqF7lS8Dq0LSKFa7PoQUj2/Ju/ooxsFg0bwJW19bjpYCmpTmsP4zRzGO5HocxKKxmyJqA1bHiy9W3j8JyOFqQKlgjWd3wHzsBgzatXl23miFnAlYOJobdaUmaxToZg6eCxdC5Fid/AlYGXJ9Dq9JVOgOex0rrGdIdhDBYrsXpBQErF67PoS0Dn8dSvWLoXIvTDwJWJlSxaNWA57Hsv2LQDqpXrwXZE7ByUsQLAW35TAxuP1ZqDVrPwJCtlfHNoBcErIwUX4mt6un1gLakeaxHYzC0BxkyJwf7RcDKjb1YtO2pGMzQ+/s/DBisvVKXo08ErMxM92K5o5A2DeS+Qu1BBq2I156+Me1y0BMCVo72plUsdxTSnsfioF3YY9qDDJk7B/tHwMrQ9I5CVSza1vOhd+1BBquqXrlzsH8ErFztxaVQxaJtaXVDD4fetQcZMtWrfhKwMjWtYlnbQNvS8tEeDr1rDzJgL6te9VMRZK38blypns4FtOk/qsdb1WM/euGfL0d89POAYSli56lrcSroJRWs3LlChy6kNmFPht7T3YPCFUPkSpx+E7AyN71Cp3CpJx04WT0+F9l773rA8LgSp/cErD5Ym85iGXinfWno/WRkzfwVQ7S2HueDXhOwesDyUTqV8XU67791cIIQBsVahkEQsPriYG3DTkDbMj5ZaPcVg1O1Bq1lGAYBqydmy0fdok43Urj6wzgIW5mw+4ohKq1lGAwBq0cMvNOpFLKejmxC1rv/EDAsBtsHRcDqGwPvdCmT9Q2pepXmr2BIDLYPi4DVM9OBd7tR6FIG6xucHGSAtAYHxib3nrLhnc6l+aeOgs7/+x9ODzIgNrYPkgpWX61PB961CulO2pH1mWid1QwMzcQBpkESsHrKbiyykOaxWl5EaridISkjvvUH1+NqMDgCVo8VX42XqqetgC61uIj0V2+rXjEgVWtw/cT0fZwBErD6rlBapmNpbUNa39BCyHLvIEOSWoOntox6DJWA1XPFV6YVrBcCutTCtvcP3rFYlOHQGhw+AWsAij+dXqNzNaBLt7a9NxSyfmn2iqHQGhwFAWsonCokBw2FLNUrhiQtFNUaHD4BayAsICUbDYQs1SsGxELRkbBodGDKv4vLVXP/uYCufVQ9/u/seQWpevWT/xnQfxaKjooK1tB8NG0V7gR0raZK1s/eDOi/InbdNTguAtbAFOervr6twORixZBlaztDUUa8oDU4LgLWABVfjau2vJONFUKWre0MQVrJ8IVr8VowKgLWQFUh62JY3UAulghZqlcMgpUMoyVgDZnVDeRkgZCVgpXqFb03m7uykmGcBKwBm10I/fWAXMwZstKVOKpX9N1kYiXDmAlYAzebx7Ifi3wcE7JSsHLnIH03vQrnxvSWDUbKHqyRKL8bV6qncwG5OGRP1r+9eTB/Bb1l3xWhgjUeH09bhTsBuXhAJSsFK+GKXqvClX1XJALWSEz3Yx380Bu2JB+3QtajB39osJ2+q8LV181dkQhYIzIdei/ihYCcpJD1dMR71jLQf2mofSsgBKzRKb4Srxl6Jzt7EY9tVoWszYBeSkPtT12374pPGHIfqfLbVdBai28E5OBa3B52/8X/rqpZ1wL6ZKsKV88G3EEFa6z2p5velbLp3s/irpOEJ/8k4okvBfRDGmo/Yd8g91PBGrHye7FZBa20vmEzoAsfVo9/jBT475MG3t/9+4B8HWxqf9ZQOw+igjVis6H39M3LyUK68XY8MFwlT/xxxKe/FpCt2TU4OwEPIGCNXPGVqk04md5ZCO1KrcFjTg0+9nTE7/xVxInHArIyKeMFJwY5ioBFFH8Wb1RP1jfQntQa/Kf5/tJHTkY8+RdCFll52TU4HEfAYqr40+rNwvoG2rLgtvYUrlLIevhkQKesY2Behty5S/mdKmgV8XxAU96pHj+JpVnjQGeKeOOpa04MMh8VLO5SfDUuxiReD2hCmrlaIVwl1jjQka21dfOqzE/A4n52ZNGENHe1E7VIJwxPfrl6A3s4oHkHu67SiUEnrpmbFiEPVF6JjXhouiPrbEAdbkbtC0HS3YU/+V/uMKRBKVxZx8ASBCwOZREptVlx7uooKVz9699GfPSLgHoJV6xAwOJIQhYrS9WlBU8NLsPwO7USrliRGSyONN32Xr3JRHiTYQk1zl0dx/A7tRGuqIEKFnNRyWIpqaL0UbTqw6pV+NO/NZfFkoQraiJgMTchi4X8c/X4aXTCXBZLEa6okYDFQoQs5tLgUPsi3v2H6vH3AccTrqiZgMXChCyOlFYx3IxsvP9WxC++FzFpuVVJjwhXNEDAYilCFg+Uhtr/MdKy2qzYl8WhhCsaImCxNCGLu6RwldYxZFopShWs1DK0yoHbhCsaJGCxklnIuhw2vo/bXhxUrnrQhtMyZEq4omECFitzrQ5NXIPTJC3D0dtaOxFfF65okoBFbcpvx2uxFt8IxqXDdQyrcspwfKoPvavFQbhycTONErCoVfmduFS9qp4PxiGTdQyr+NXbBy1D1azhK4t4/QvX4kJACwQsaleFrJeqV9aLwbANIFzdksJVqma938KdiXTm5aeuV+9N0BIBi0aU342L1dMrwTANKFzd6b3rBy1DA/CDI1zROgGLxpTfjudiLV6tfrkRDMfPqsc/xWAZgB+QInbLSbzwhRvxWkDLBCwaZVfWwKS7/XZiFAzA99zBGoY0zL4V0AEBi8YJWQMxonB1i2pWT9lxRQbWAhpWfLl6k/s4no0yvhX00wjDVXLisYjf++uIJ74U9EURb1Th6lnhiq6pYNEqJwx7aKAD7YtSzeoFw+xkQ8CidYbfe0S4uo/ZrAwZZidDAhadMJfVA8LVoVIV62ffjvjAP5/uGWYnUwIWnZndYXip+qXrdXIjXM0lLSZNFS1tw2649oacCVh0zlxWZt6uHj8P5mQLfGfMW5E1AYsslH8XZ6OMy6Fl2J296vHj6qEasxR3GrakiN1JGV//g+txNSBjAhbZmM1lpeH3c0G7PqweqQLjipiVGYJvzqwl+E0rGOgDAYvsaBm27D+qx80QrmqkbdgILUF6RcAiS1qGLUkLRNO9gvtBAwzB16CInaol+E0tQfpGwCJbs5bhS+GUYTOcFGzNrWqWoLWgg63s33RKkD4SsMheVc26UFWzUstwM1hdGmb/l3BSsGXahgtIg+yTePkPbkzXuEAvCVj0ggH4mhhm75wlpUczyM5QCFj0SvnduFg9vRIsLjVZdsK8VSbMZ91D1YqBEbDoHdfsLOGfq8dPgwwJWqpWDJOARW/NqllpNsul0YdJLcG0guHXQcYmVcv2vesjHIRXtWLABCx6bVrNmlQtwzKeC+6mJdg7YxqEV7Vi6AQsBsFJwzukU4L/GlqCPTbooKVqxUgIWAyGvVlxcI/gTjglOBBDC1plxLfWT8RL9loxBgIWgzPaLfAG2QdrAEFraxLxgm3sjImAxWDNhuCfj6EHrXSX4E4YZB+B3gUt7UBGTMBi0AbdNkyzVv8WrrsZoT4ELe1Axk7AYhQGtwnerBWRZ9BKpwP3o6paaQcycgIWo9L704ZOCPIAKWi9dyPiVzsd7tEqYmdSxjcFKzggYDFKvQxaP4uDdqC9Vhxi8mEVst5ueTN8mrMq41tVsHopgNsELEZr2jbcq4JWMQ1a+UoflO/MnmFOjV/BMwtWJ07EJXNWcD8Bi9HLdhA+XXOTgtUvApb2wTsHYau2OS3BCuYiYMFMNkHr1unANGelHUhNbg3E//qdFapaRby2th4vCFZwPAEL7tFp0EoVK8GKhi3cPjwIVi+7NxDmJ2DBIVoNWqkNmAbYrV2gRUe2D7UCYSUCFhzjjqD1taj71KFgRQZSJSu1DqdVrX8XrKAOAhbMaRq0JnGulvUOghX52a1e39/aeV2wgjoIWLCEpfZopeH1X8bBjJVgRS6KuFpVaL9VvBBvBFAbAQtWUH6nqmgVVdg6ak7LqUBydBCsXq6C1dUAaidgQQ0eOKeVTmilRktqBwpW5GHaBqyeL1XBShsQGiRgQc2m7cMfVxWtXw7kYmn6T7UKWidgQUPKV6pK1lpDpw/heKpV0CEBC1pQha1zVdi6ELldx8PQ7N4xtH41gM4IWNCiKmhtVE/PxXoVtEotRGpyEKr+pvrVa6pVkAcBCzoybSFGFbKELZYhVEHWBCzIgLDFXA5C1ZtxEKp2AsiWgAWZEba4i0oV9JKABRmbzWylAfnnwmnEsUiD6m/MKlVvCFXQTwIW9EgVuM7GQXXrL1W3BuST1t9Vp/9gGAQs6KlZdevstLpVxBcFrl7Zqh5vxmR6/9+WKhUMj4AFAyFwZSu1/Laqfx8/qALV1TioUglUMHACFgzYdMFpCl3r8bXqA35z+muatjNr+f0gDipVKlQwQgIWjMjtKpfQVZc7w9ROqE4BMwIWcGt4Pt2deHbWXtwMwetOO7M239tVm29alUq/J0wBhxGwgEPNgtet2a7N6h3j87PwtTn7/aHYjU9mpVKI2omDilQKUruCFLAoAQtYyqzduBkxe16b/bqIx6d/XE5//9Zf05Wd6X8WtwNT3BGgdme/pxIF1E7AAloxC2R3PuKeXx9YOyKQTWaVprvtzJ5v/znXyAAAAAAAAAAAAAAAAAAAAAAAAAAAAAAAAAAAAAAAAAAAAAAAAAAAAAAAAAAAAAAAAAAAAAAAAJCR/w+4WK4xfGFFmgAAAABJRU5ErkJggg==;fontColor=#717171;labelPosition=right;align=left;fontStyle=0;fontSize=14;" vertex="1" parent="mu3TLzRvKkOABFL3PFfV-56">
          <mxGeometry x="16" y="9" width="30" height="30" as="geometry" />
        </mxCell>
        <mxCell id="mu3TLzRvKkOABFL3PFfV-55" value="&lt;b&gt;&lt;font style=&quot;font-size: 10px;&quot;&gt;Terraformで管理不可なリソース&lt;/font&gt;&lt;/b&gt;" style="text;html=1;align=center;verticalAlign=middle;whiteSpace=wrap;rounded=0;" vertex="1" parent="mu3TLzRvKkOABFL3PFfV-56">
          <mxGeometry x="46" y="52.5" width="167" height="30" as="geometry" />
        </mxCell>
        <mxCell id="mu3TLzRvKkOABFL3PFfV-27" value="" style="strokeColor=#dddddd;shadow=1;strokeWidth=1;rounded=1;absoluteArcSize=1;arcSize=2;recursiveResize=0;" vertex="1" parent="mu3TLzRvKkOABFL3PFfV-56">
          <mxGeometry x="39.5" y="110" width="180" height="60" as="geometry" />
        </mxCell>
        <mxCell id="mu3TLzRvKkOABFL3PFfV-28" value="Firebase&#xa;Cloud Messaging" style="shape=image;verticalLabelPosition=middle;labelBackgroundColor=default;verticalAlign=middle;aspect=fixed;imageAspect=0;image=data:image/png,iVBORw0KGgoAAAANSUhEUgAAAlgAAAJYCAYAAAC+ZpjcAAAACXBIWXMAAAsTAAALEwEAmpwYAAAAAXNSR0IArs4c6QAAAARnQU1BAACxjwv8YQUAAC8MSURBVHgB7d3Nk113eSfw53TLNnHicXsUYHAyoRUTJ1WWCjlsQhGCtMgqUxWTVXaIv8DyX2B7OSuLv8D2bnZyqmZWWUgGUswmoSlJkxqD6PYkwYEAbpdD8Ev3PXN+t69kvXX3fTkvv3PO51N1ubJsQ2Hfvvd7n+f5Pb8IAAAAAAAAAAAAAAAAAAAAAAAAAAAAAAAAAAAAAAAAAAAAAAAAAAAAAAAAAAAAAAAAAIBFbZ+JV358Oq4EQAaKAOix7bOxUe7F5TLi3PQ3irj01LV4IQA6tBYAPVWFq83Jfnz/drhKyri4fTpeDIAOqWABvVSFqHOTIi5XgWrjQX9+rYwLp27E6wHQAQEL6J0qXD0/ibh0zF+2u1/G+advxFYAtEyLEOiVNMw+R7hKNtbX4nJqIwZAy1SwgF64b5h9XkXsrK3Hs6e2YjcAWqKCBWTvgcPs8yqrv3cvXg2AFglYQNaqcHW2CldXUlCK5T13s2otBkBLtAiBbB13UnBhZbzw1I255rcAViJgAVma86Tgwqqy/flT1+NqADRIixDIzs3T8WIT4Sqp/nudLAQaJ2ABWbl5sIX9pWjORprpErKAJglYQDZunpme9nspmnZwsvByADTEDBbQuaV3XK2qiNeeuhbfDICaqWABnUrhqqomXWk9XCVlXHAxNNAEFSygM7MFoqvuuFqZi6GBuglYQCdyCVczLoYGaqVFCLQus3CVuBgaqJUKFtCqDMPVJ1wMDdREBQtoTdbhKnExNFATAQtoRfbh6hPPOVkIrEqLEGhcj8LVJ1wMDaxAwAIa1ctwNeNiaGBZAhbQmD6Hq5ndtRPTofedAFiAGSygEQMIV8mti6E3AmABAhZQu4GEqwPV/4fSxdDAggQsoFaDClcz6Z7Em2filQCYk4AF1GaI4eq2Mi5a3wDMy5A7UItBh6s7uBgamIeABawsDYFP9qpwFXE2hs/F0MCxtAiBlY0oXCUuhgaOJWABK7l5Znp331jC1YGDOwsvW98AHEbAApa2nU7WlXEhxunsZN/JQuDBBCxgKTdPx4uTMi7GmFXh0slC4EEMuQMLu3kQKl4KppwsBO4lYAEL2X4mvjEp4rXgLvtlPOtkIXCLgAXMbftsnJ3sxfeD+xWxs7Ye510MDSRmsIC5zBaJupPvMOXBolUnC4FEwAKONZYt7StzMTQwI2ABx0o7n4Sr+bgYGkgELOBI2wdhYVyLRFdVxsWbz4x8hQWMnCF34FDWMaym+gZ7/tT1uBrA6AhYwANtn47nJxGXglXsrp2IZ50shPERsID7WMdQo4P1DSlk7QYwGmawgLtYx1AzJwthlAQs4C7WMdTPyUIYHwELuG16YlC4akYZF10MDeNhBguYcmKwHWURX//CtXgjgEETsIB0YvDcJKrWIG3Y3S/jvIuhYdi0CGHkpkPtRbwatGVjfS0up3/uAQyWgAUjZ6i9A+li6L1pyHIxNAyUgAUjZqi9U2ercOtkIQyUgAUjNd3UXrovr1NlXHCyEIbJkDuM0GyZ6PerD3gtqgysVUHr1I14PYDBELBgZNLczyxcbQa5cLIQBkaLEEZmOvcjXOXGyUIYGAELRiTNXaW5nyA/ThbCoAhYMBLTuauIS0HOnCyEgRCwYARmc1c2tfeBk4UwCAIWjMF+9YFt7qo3qkrjS9vPxDcC6C2nCGHgfnQmLhSlq3D6aL+MZ50shH4SsGDAZvuuXIXTV0XsrK3H+VNbsRNAr2gRwoCVe1XlSrjqr/IgIDtZCP0jYMFA3TwdL5YR54J+O1jfoMULPaNFCAM0bQ3uxXYwGNW34ZdOXY+XA+gFFSwYICsZhiedLLz5jMu5oS8ELBiY1Bo0dzVQRbyyfVrbF/pAixAGpGoNnq1ag98Phmx37UQ862Qh5E0FCwZitq39cjB0G04WQv4ELBgK29rHo/r3XO4J05AzLUIYgDSXMwmD7aNTxKWnrsULAWRHwIKem7UGv696NVJlvPDUjbgUQFa0CKHnJnvxvHA1Yk4WQpZUsKDHLBRlxslCyIwKFvSYhaLMOFkImRGwoKcsFOUuThZCVrQIoYe0BjmUk4WQBRUs6KGqUvFqwIOUcdGdhdA9FSzomR+diQtFKWBxtOrb8/lT1+NqAJ0QsKBHpq3BNNhu9orjOVkIHdIihB6ZuA6H+TlZCB0SsKAnUvWqClcXAublZCF0RsCCnrDzimWUEedunolXAmiVgAU9kAbbtQZZmpOF0DpD7pA5g+3UxclCaI8KFmTOYDt1mURcns7yAY1TwYKM2dhO7YrYWVufrm/YDaAxKliQsSpcGU6mXk4WQisELMjUdLA94rmAmjlZCM0TsCBTVf/+xYCmOFkIjRKwIEPWMtCKIl7ZPh3nAqidIXfIjLUMtMydhdAAFSzIzX48L1zRIncWQgMELMjItHpVmouhZU4WQu0ELMjIdKkodMDJQqiXGSzIhKWiZKGMF566EZcCWIkKFmRC9YosFPHKW8/E2QBWooIFGfjh6ThXfdu5EpCDg+t0zjtZCMtTwYIMWCpKVsqDVSFOFsLyBCzoWFoqWgWscwE5Kaczga8GsBQBCzqmekXGnts+7fUJyxCwoEOuxCF3k4iXtp+JbwSwEEPu0KGbZ2JbwKIHdvfLOP/0jdgKYC4qWNAR1St6ZGN9LS6nXW0BzEXAgo6YvaJXDobeLztZCPMRsKADqlf01NnJvut0YB4CFnRA9YreKuOCk4VwPAELWpa2tqte0WdOFsLxBCxomeoVQzAp4pI7C+FwAha0KFWvbG1nIJwshCMIWNCitUJbhQGZnSwM4D4CFrRk+k2/jAsBw3L25hknC+FeAha0ZLJv9oqBKuPizWfiYgC3uSoHWpCqV1UrZTtgwKpv7OdPXY+rAahgQRtUrxiDSRh6h1sELGjY7GqRcwHDt1F9mbjiOh0QsKBx+/vxnMWijEb1Wi+dLAQBC5pmsShjU1YVWycLGTsBCxrkUmdGy8lCRk7AgiaVFosyYkW84jodxsqaBmiI1QwQ6VNmZ209zp/aip2AEVHBgoZYzQBx+zodJwsZGwELGuBaHLjL2eoLh6F3RkXAggbs79t7BXepvnBsn1bVZTzMYEEDbp6JbacH4X5rVdA6dSNeDxg4AQtq9sPTca4qDV8J4EF2107Es4beGTotQqjZWmE1AxzBdTqMgoAFNTLcDnNwnQ4jIGBBjQy3w3xcp8PQCVhQI/cOwgJcp8OAGXKHmhhuh+VUPzfnT12PqwEDooIFNTHcDsuZFPHqdH4RBkTAgrqU8VwAi3OdDgMkYEENfnRmenLQhwMsz3U6DIqABXUotQdhZa7TYUAMucOK0uxI1d7YDqAWrtNhCFSwYEV2X0G9JkVcMvRO3wlYsCK7r6B2rtOh9wQsWEH1AXA2nYAKoF6u06HnBCxYQfUt+/kAGuE6HfpMwILVnAugOa7ToaecIoQluRoHWrO7X8b5p2/EVkBPqGDBklyNA63ZWF+bbnrfDOgJAQuWdy6AdrhOh54RsGAJqT3o9CC0Ll2nYy0KvSBgwRK0B6Ejht7pCQELlnMugG4U8cr2aT+D5E3AggVpD0L3JmHonbwJWLCg6ofmuQC6tmHonZwJWLCoIv4ygBykoXeb3smSgAULcPcgZKaMC9unnSwkPwIWLGDyscFayM0k4iVD7+RGwIIFlNqDkCVD7+TGXYQwp/TmPdmL7QDyVMTO2no8e2ordgM6poIFc9rf14KArB1cp/NqQAYELJhTVe7VHoT8PWfonRxoEcKcbp6Od6snO3egB8oivv6Fa/FGQEdUsGAOPzw4oSRcQU8UZbxq6J0uCVgwB9vboXc2JvtxxaZ3uiJgwXy+FkC/GHqnQwIWHGPWZjgbQB8ZeqcTAhYcY39fuII+S5vef3RGm592CVhwDOsZoP8MvdM2AQuOdy6AvjP0TqsELDjC9Btv6VsvDEIaet+PVwJaIGDBEVyPAwNTxgVD77RBwIIjmL+C4UlD79unfXmiWQIWHM0JQhigKmRdNvROkwQsOET15nvW/BUM1sZkbxqyDL3TCAELDmH/FQze2cm+eSyaIWDBIQrX48DwlXHx5jNxMaBmAhYcplTBglEo4pW3nvHzTr0ELHgA9w/CuKyvGXqnXgIWPID5KxiZMjbLvXg1oCYCFjxAUdqRA2NTRpy7ecamd+ohYMEDVG+0XwxgfMq4uP1MfCNgRUUA97l5OmUsYKR2107Es6e2YidgSSpYcI8fukIDxm5jsh9XLCFlFQIW3GPNegagjM0qZJnHYmkCFtxrzfwVEClkXbCElGUJWHAvFSzgFktIWZIhd7hDmrmY7MW7AXBLETtr69Oh992AOalgwR329nxTBe5xsIT0csACBCy4gwF34EHSEtLt0/FiwJwELLiTAXfgEJOIl7atcWFOAhbcoSxd9gocblLEqy6FZh4CFtyhCN9OgSO4FJo5CVgwU30rNX8FHMul0MxDwIKZ/X1lf2BO6VJo81gcQcCCmcIJQmAB5rE4ioAFtxROEAILMI/FEQQsuMUJQmBB03ks9xXyAK7KgZmbp9N7JcDiqmrF+VPX42rAjAoWhBOEwGpm81gbATMCFoQThMCKytic7FvdwCcELAgnCIEalHHBPBa3CFiQOEEI1KGIF61uIBGwIKZ3EJqdAOqwYXUDiYAFMT1Oq0UI1MLqBhJrGhi9dPJnshfvBkCN9st49ukbsRWMkgoWo7e3p3oF1G+90CocMwGL0SsK81dAI87ePGN1w1gJWIyeFQ1AY8q4uH06zgWjI2AxemXhSDXQHFvex0nAgjI+HwBNOdjy/mIwKgIWo1eEb5ZAw6pW4VvPGEcYEwEL7MACWuBU4bgIWIyauQigRWdvno6XglEQsBg1O7CAlj3vrsJxELAYNTuwgJa5q3AkBCxGrZj4Jgm0y12F4yBgMW4qWEAXinjRDOiwCViMmiWjQEc2Jvuu0RkyAYtxs2QU6EoZF1yjM1wCFgB0ZGI31mAJWIxaoUUIdKmMTbuxhknAYtxKAQvonN1YA3QiYA7l92Y//Huz53J6+uWTEzBr1a/LQ07ElLFzxx/tRlE9Dv6e3enjU7FbPDv7vRalEzyTvQDoWnovSgPvXw8GowhGbRqcUmhKlZzULlubDn1vzCo7B6GpvVUGOxHToJVC2E5M4u1pGCtjKwWx4ivVc43SN8bqTW07ADJQtZTOn7oeV4NBUMEagfL7VUD69zg7DU0n4ovT53J6Rcxm7MdBzL4Vtct7/uZ2I/jm7V+Vd/xvFwd/XH53+pzC19Y0gJXxg1XC114VLPXIgVxMYlrFejYYBBWsgZlWpD6Oc/cFqaG7FbzWqkeqfFXBq/jq0d8Ef3g6zlUB60oA5KKMF566EZeC3hOweux2ZWotvlb9UJ6bhimbye91dRq69uLNeKgKXV/+ZB7sR2fiQlE6Ig1kZXftRJw6tdX+XCr1ErB6ZBqo3p9Wp75WVWnOVb91NljUzrTSFfE3//Lf44sf/th9YEB2Xn7qutUNfSdgZa78ThWkblWowsbfWv0kYu+tiF+/E/GrtyM+qJ4nHwZA52ZVrJ2gtwSsjE3nqfanM0KbQf2qgBXv3P1bKWT9aucgcO29HwCdqD6cr/7+9Tgf9JaAlbHy7+LVdFdV0Ix/qh4/O/xPp4CVgtb7P4z46OcB0CprG/pNwMrUrHplR1OTdqrHL+b7S4UtoG2qWP0mYGVK9aoFNyOWOaeTwtZ717URgeapYvWXgJWhKlylpaDfD5r1VvVYMSClma333zp4ANSuiJ2nrsWpoHcErAyV350Otp8LmlVDwLolVbLSacR3/0FVC6hXWcQ3v3AtXgt6RcDKTFW9uhCWX7bj/1SPX0ftVLWAWlVVrLX1eNby0X5xFVtuyngxaMd+NOJTn4v49Ncifu+vI574UsSJxwJgeeX0YnpLkXtGBSsjqlctu1Y9PopWpGqW9iGwAlfo9IwKVk5UrwbrsacPKlqpsvXwbwfAojZUsfpFBSsTqlcd+PvoTJrT+mVV0frgJwEwL1WsHlHByoXq1aikOa0n/6J6/Lfq108GwDxUsXpEBSsDqlcd6bCCda9U0frZm2a0gGOpYvWEClYOVK9GL1W0bs1oOXUIHEEVqydUsDqmetWhjCpY93LqEDiCKlYPqGB1rYxvBNwjnTpMM1qPnwmAe21MPnZXbe5UsDpUfifOVf8GrgTtS0tGt6IXUhUrVbNshgduc0dh9lSwurSmetWZhra4NyHNZKXZLPNZwG1lbP7oTDwXZEsFqyPl92Kz+pDfDrqRNrhfi15K1ax3M54fA9pRfYBf/f3rcT7IkgpWVyZODrKcJ/744MShahaMWxlxbvt0nAuypILVAdWrDPS4gnWn964fVLMmLd2pCORFFStfKlhdmPjGQT0ePx3xu39lGzyMlSpWvgSsLlgs2r2HYzBSqzCtdDj55eoHekD/v4D57Idh9xwJWC2bLhaNqkUINbtVzTKbBeNStQm/sX02NoKsCFhts1iUBqVwlQbgn/hSAOPh+pwMGXJvkeH2zAx81cGHv4j46d+6bgdGYvep6/FEkA0VrDZZzUCLHjl5MJuVrt0BBm/DsHteBKw2lV78tOvWFngtQxi+MnyJz4mA1RLD7Rlaj9FIy0l/xwA8DNp0ZcMzcTbIgoDVFsPt+RlRwEputQwfPhnAQE0KKxtyYci9BYbbM5U2uY90A7r7DGGwdtdOxKlTW7EbdEoFqw2Oz5KZ1DJMi0mBwdnY3zfvmwMBqw1F/GWQn0di1NJiUnNZMDxrZTwfdE7Aalj5nek3ic2ADN2ayxKyYDimw+5/5HOnawJW09YMt2drZEPuh7l1l6HhdxiOyYnpyXU6JGA1rXSiI1sC1m0pZKV7DC0lhcHQJuyYgNWg2e4rF3DSG5aSwmDY7N4xAatZhttz9nDwAOmEoZAFA2D/YqfswWpIeaWqXD0U7wb5+kn1eCc4hF1Z0Ht2YnVIBaspD5u9yt7I1zQcJ1WyUssQ6K20E8tnUUcErOZoD9J7aehdyIL+WtMm7IwWYQO0B3siFc1vBnN4/62If3szgP7RJuyIClYT1p3c6AVD7nNTyYLe2ph8bCdWFwSsJqxrD/bCiWABQhb0U+G6tk4IWE2wXLQfLBpdmJAF/TO9OuesnYxtE7BqNrt70Au5DwSspQhZ0D9OE7ZPwKqfF3GfmMNaSgpZJ78cQE84Tdg+Aatuet39ooq1tMdP2/gOfVG1Cc9qE7ZLwKpR+b3YrJ42g/6wbHQlrtWB3tiIvTgbtEbAqtPEeobeUcFaWQpZqWUIZE6bsFUCVr20B/vGDFYt0tD7p54MIGOTwoxwmwSsOpUqWL2jRVib//LnESceCyBfG9unfU61RcCqifUMPaVFWJu1qhr45F8IWZCzSQhYbRGw6nMu6B8twlqlcPXZPw8gU0WELXYtEbDqUnjR9pLrcmr3yEk7siBXtrq3R8Cqz7mgf1SwGpF2ZD1+JoAM2ereDgGrBrP5K/pKyGrEyT9xshBytD7RcWmDgFWPc0F/PRo0xMlCyM9kzWdWGwSsOpi/6jcnCRuTThYaeofMlLG5/UduHWmagFUP1w/0mRZhowy9Q34m6+awmiZgrcj+qwGwbLRxaejddTqQj+rD/4tBowSsVRWqV733G0ELUhXLPBbkwRxW8wSsVZm/6j8VrFaYx4KMmMNqnIC1qtILtPfWw6B7S8xjQT72H1LFapKAtYLyynT2SotwCAy6tybNY9mPBRkofX41ScBaxQkvzsGwC6tVn/mzg5Yh0B33EjZLwFqFAffh8GHfqjTs/sSXAujWWfcSNkfAWoUB9+Ew6N46rULIwJ5CQVMErFUYcB8Oqxo6oVUI3ZqYw2qMgLUkA+4Do4LVCa1C6JaFo80RsJZlwH1Y0poGlZROaBVCdywcbY6AtSwD7sPjJGFntAqhI2nhqEH3RghYyzJ/NTw+4DujVQgdMujeCAFrWYW+9eCoYHUqtQofPhlAywy6N0PAWp4X5NC4iLhzrtGB9hl0b4aAtYTZCUI966FJLUJ3EnbqNz5X5dynA2jRxExxIwSsZThBOFzmsDqXqlgG3qFVm0HtBKxllKpXg2UOq3MpXD1+JoD2bGz/kZBVNwFrGcqpw2WjexbSwPsJM3HQmv2HfK7VTcBaRiHpD5YKVhZSFcvAO7SnmPhcq5uAtZzPB8MkYGXjNz9vwzu0pVQ4qJ2AtZzNYJhcmZOVJ/44gDZYnl07AWs5m8Fwmf3JRlrboIoFzSvW7MKqm4C1oPJ7wtXgGXTPiioWtEAFq3YC1qL2vAgHTwUrK6pY0A6rGuolYC3KDqzhezR2bXTPiyoWtOCEgFUnAWtRdmCNwYbThHlRxYLm7TtJWCsBa3EqWGNgDis7qljQrMIcVq0ErEWt2YE1CipY2VHFgmatlT7f6iRgLcoM1jj4t5wlVSxozn71IxbURsBanI/eMbBwNEuqWNCcolDBqpOAtbjNYBysa8iSKhY0pFBAqJOAtTgvwLEw6J4lVSxoiCH3WglYCyivCFejYhohW7+pkQGN2D7rc64uAtYiPuWFNyppBsvC0Sw99nT15mVGDur3gc+5ughYi3BNzvh4q8lSClePnwmgbuve9eoiYMFRzGFl6/HTAdTNoHttBKxF2IE1PuawspWqWIbdoV6uy6mPgLUYAWtsHg77sDJmZQOQKwELjmMfVrbSygbD7lAf9xHWR8BahNLpOAlYWTPsDuRIwILjaAxnzbA71Kf0jlcbAQuOk3ZhqWJly7A71Ge9jMeDWghYMA/rGrJmszuQGwFrEWawxkvRPGs2uwO5EbBgHqlF6NqcbKVw9fBvB0A2BCyY13+K3SBbdmLB6kqdmtoIWDCvxzUKc/bISW1CIB8CFsxLvMpaCle/uRkAWRCwYF7WNWTv0c0AyIKABYv4rSBjrs4BciFgwSJOGnTPmdOEQC4ELFjEI7ERKiRZs3QUyIGABYsy7J61tHQUoGsCFixKwMqaNiEsryhjJ6iFgLUILzwSW92zl4bdAbokYMEyTgYZe9QcFtAxAQuWoU2YNVvdga4JWIsoHNFnRpswa+awYDmTIt4OaiFgLWIiYHEHbcKsWdcAdEnAgmVpE2btYQEY6JCAtRgVLD6hTZg11+bA4srCafm6CFiLMIPFvT4TZMwcFtAVAWsRawIW93gsyNgj2oSwkHX7HmsjYC1CwOJej4WQlbFPWTgKdETAWsQHAhYP8FtBpmx0hwXtqWDVRcBaQHFewOIBPhtkKg25n1BhhPl9yudcXQSsxe0E3CmdJPQhni1VLJjfqS0Bqy4C1uK8+LifYeps2YcFc7KioVYC1uIELO6Xlo7aiZUlAQvmVPp8q5OAtTj3NHG/FK58kGfJqgaYT6GAUCsBa1ESPodxdU6W0qC7je5wvMIOrFoJWIvSo+YwadD9UQE8R596MoBjTAodmjoJWIua+ADlCI+rY+XoIac84Xg6NLUSsBa1HlsBh0k7sQy7Z+eEZbBwrHJNh6ZOAtaiXJfDUezEypJlo3C89YmAVScBa0HFl70AOcZngsw88p8DOM5DPt/qJGAtZyfgMC6Azk6qYDlJCEfatcW9XgLWMgpzWBzj8SAza48EcLidoFYC1jLKeC/gKL8dht0zY6M7HK4srWiom4C1HBUsjmaze3asaoAj2PFYOwFrGU5aMA8bsbJiVQMczhb3+glYy3hIBYs5GHbPyroZLDjUmtni2glYS7Cqgbl9LsiEChYc4YSAVTcBa3k7AcdJFSzrAbIgYMGhrGhogIC1LOVU5vVpb1w5sKYBHqxwcKsRAtayJo60MqdPx4aVDd2zaBQebBLxg6B2AtaySomfOaVw5fqcLLiTEO7nBGEzBKxlPRRXA+b12bB4FMiSE4TNELCWNDtJaLaG+aRwZS9W51Sw4AGcIGyEgLWanYB5fUYg75o5LLiPE4QNEbBWYzCQ+T1a1bBUUDq1LmDBXZwgbI6AtRovTBZj8SiQkTLizaARAtYqCoPuLMj1OZ0ygwV3Kw24N0bAWsVHZrBYgioWkIn1dQGrKQLWCorz08FAL04Wo4oF5KCInVNbCgVNEbBWVepfswRVLKBj5cRBrSYJWKuy0Z1lqGJ14iH/zOG2IswRN0nAWpWN7ixLFQvokA3uzRKwVmSjO0tTxQI6dOq6AkGTBKw6WNfAslSxgA5oDzZPwKqDQXeWpYoFdGDiJpLGCVh1UMFiFapYQMvWI94IGiVg1aD4ynRQ0BwWy1HFas3+hwEkJwy4N03AqosqFqtQxWrF5KOA0UvzV6e2FAWaJmDVxRwWq1DFAlpi/qodAlZd1vWzWdHv+kYJNM/8VTsErJrYh8XKHo2NOBk0SIsQ7L9qi4BVr78JWMWTMf16STMmhtwZOfuv2iNg1WnihcuKHq4enwmARpSlQkBbBKw67etrU4PPhipWQz7+94BRW3vI51RbBKwaFeenM1hXA1aRwtWTAVCvInZObU3nhWmBgFU/5VdWl9qEDwc123s/YMyuBq0RsOpmXQN12QxqZsidMVsr4/WgNQJWzWbrGnYCVmX5aO2saWDEdq1naJeA1QSnNKjLZlAT4YpRK3RX2iZgNcMLmXpY21Ab81eMWWk+uHUCVgOKr07LsLa6Uw/LR2uhgsWYra9rD7ZNwGqKYULqYm1DLfbswGKk0nLRU1u+9LdNwGqONiH1SW1CA+8r+ViLkLFa83nUBQGrIdqE1O5zwQrMYDFW69YHdULAapI2IXVKFSwD70tzTQ5jpD3YHQGrWb41UC8D70sz5M4oaQ92RsBq0KxNuBNQlxSuPu/b6DI++nnA2Ox+4Vq8FnRCwGqaNiF1eyI2DLwv5qNfBIyP5aKdErCadsK3BxqwGVqFC9AeZIzcPdgtAaths7sJrwbUyYb3hXyogsXYFLHj7sFuCVjtcEUB9UsD748Gc7BklLEp3YnbOQGrDR9P24QGk6nf7wZzUMFibNZPxKWgUwJWC4rzVbjSC6cJdmPNxQlCxqSIuHpqywn2rglY7XGag2akVuHDwSHSCUJD7ozJpPCFPgcCVktmO7G2AuqWThNuBoewwZ1RKWLH7qs8CFhtMnRIU7QKD2UHFiNzNciCgNWmvenQoWF3mqFV+EC/fidgNNbW4+UgCwJWiwy70yitwgcy4M5YGG7Pi4DVPsPuNEer8C577xtwZzwmRXwryIaA1bLZsPvVgKb817CAdObDXwaMw8Fwuy/wGRGwulDqkdOwz4e7CisfmL9iJMrwuZIbAasDsyqWYXeakypYT8bo2eDOSOyur+uM5EbA6kqpV07D0izWYzFaafbqg58EDF8Rbxhuz4+A1RUrG2jDZoy2VWj/FWNhNUOeBKyOzFY2qGLRrLQXazNG6VdvBwxfEa+pXuVJwOqSKhZt2IhRrm4wf8UYqF7lS8Dq0LSKFa7PoQUj2/Ju/ooxsFg0bwJW19bjpYCmpTmsP4zRzGO5HocxKKxmyJqA1bHiy9W3j8JyOFqQKlgjWd3wHzsBgzatXl23miFnAlYOJobdaUmaxToZg6eCxdC5Fid/AlYGXJ9Dq9JVOgOex0rrGdIdhDBYrsXpBQErF67PoS0Dn8dSvWLoXIvTDwJWJlSxaNWA57Hsv2LQDqpXrwXZE7ByUsQLAW35TAxuP1ZqDVrPwJCtlfHNoBcErIwUX4mt6un1gLakeaxHYzC0BxkyJwf7RcDKjb1YtO2pGMzQ+/s/DBisvVKXo08ErMxM92K5o5A2DeS+Qu1BBq2I156+Me1y0BMCVo72plUsdxTSnsfioF3YY9qDDJk7B/tHwMrQ9I5CVSza1vOhd+1BBquqXrlzsH8ErFztxaVQxaJtaXVDD4fetQcZMtWrfhKwMjWtYlnbQNvS8tEeDr1rDzJgL6te9VMRZK38blypns4FtOk/qsdb1WM/euGfL0d89POAYSli56lrcSroJRWs3LlChy6kNmFPht7T3YPCFUPkSpx+E7AyN71Cp3CpJx04WT0+F9l773rA8LgSp/cErD5Ym85iGXinfWno/WRkzfwVQ7S2HueDXhOwesDyUTqV8XU67791cIIQBsVahkEQsPriYG3DTkDbMj5ZaPcVg1O1Bq1lGAYBqydmy0fdok43Urj6wzgIW5mw+4ohKq1lGAwBq0cMvNOpFLKejmxC1rv/EDAsBtsHRcDqGwPvdCmT9Q2pepXmr2BIDLYPi4DVM9OBd7tR6FIG6xucHGSAtAYHxib3nrLhnc6l+aeOgs7/+x9ODzIgNrYPkgpWX61PB961CulO2pH1mWid1QwMzcQBpkESsHrKbiyykOaxWl5EaridISkjvvUH1+NqMDgCVo8VX42XqqetgC61uIj0V2+rXjEgVWtw/cT0fZwBErD6rlBapmNpbUNa39BCyHLvIEOSWoOntox6DJWA1XPFV6YVrBcCutTCtvcP3rFYlOHQGhw+AWsAij+dXqNzNaBLt7a9NxSyfmn2iqHQGhwFAWsonCokBw2FLNUrhiQtFNUaHD4BayAsICUbDYQs1SsGxELRkbBodGDKv4vLVXP/uYCufVQ9/u/seQWpevWT/xnQfxaKjooK1tB8NG0V7gR0raZK1s/eDOi/InbdNTguAtbAFOervr6twORixZBlaztDUUa8oDU4LgLWABVfjau2vJONFUKWre0MQVrJ8IVr8VowKgLWQFUh62JY3UAulghZqlcMgpUMoyVgDZnVDeRkgZCVgpXqFb03m7uykmGcBKwBm10I/fWAXMwZstKVOKpX9N1kYiXDmAlYAzebx7Ifi3wcE7JSsHLnIH03vQrnxvSWDUbKHqyRKL8bV6qncwG5OGRP1r+9eTB/Bb1l3xWhgjUeH09bhTsBuXhAJSsFK+GKXqvClX1XJALWSEz3Yx380Bu2JB+3QtajB39osJ2+q8LV181dkQhYIzIdei/ihYCcpJD1dMR71jLQf2mofSsgBKzRKb4Srxl6Jzt7EY9tVoWszYBeSkPtT12374pPGHIfqfLbVdBai28E5OBa3B52/8X/rqpZ1wL6ZKsKV88G3EEFa6z2p5velbLp3s/irpOEJ/8k4okvBfRDGmo/Yd8g91PBGrHye7FZBa20vmEzoAsfVo9/jBT475MG3t/9+4B8HWxqf9ZQOw+igjVis6H39M3LyUK68XY8MFwlT/xxxKe/FpCt2TU4OwEPIGCNXPGVqk04md5ZCO1KrcFjTg0+9nTE7/xVxInHArIyKeMFJwY5ioBFFH8Wb1RP1jfQntQa/Kf5/tJHTkY8+RdCFll52TU4HEfAYqr40+rNwvoG2rLgtvYUrlLIevhkQKesY2Behty5S/mdKmgV8XxAU96pHj+JpVnjQGeKeOOpa04MMh8VLO5SfDUuxiReD2hCmrlaIVwl1jjQka21dfOqzE/A4n52ZNGENHe1E7VIJwxPfrl6A3s4oHkHu67SiUEnrpmbFiEPVF6JjXhouiPrbEAdbkbtC0HS3YU/+V/uMKRBKVxZx8ASBCwOZREptVlx7uooKVz9699GfPSLgHoJV6xAwOJIQhYrS9WlBU8NLsPwO7USrliRGSyONN32Xr3JRHiTYQk1zl0dx/A7tRGuqIEKFnNRyWIpqaL0UbTqw6pV+NO/NZfFkoQraiJgMTchi4X8c/X4aXTCXBZLEa6okYDFQoQs5tLgUPsi3v2H6vH3AccTrqiZgMXChCyOlFYx3IxsvP9WxC++FzFpuVVJjwhXNEDAYilCFg+Uhtr/MdKy2qzYl8WhhCsaImCxNCGLu6RwldYxZFopShWs1DK0yoHbhCsaJGCxklnIuhw2vo/bXhxUrnrQhtMyZEq4omECFitzrQ5NXIPTJC3D0dtaOxFfF65okoBFbcpvx2uxFt8IxqXDdQyrcspwfKoPvavFQbhycTONErCoVfmduFS9qp4PxiGTdQyr+NXbBy1D1azhK4t4/QvX4kJACwQsaleFrJeqV9aLwbANIFzdksJVqma938KdiXTm5aeuV+9N0BIBi0aU342L1dMrwTANKFzd6b3rBy1DA/CDI1zROgGLxpTfjudiLV6tfrkRDMfPqsc/xWAZgB+QInbLSbzwhRvxWkDLBCwaZVfWwKS7/XZiFAzA99zBGoY0zL4V0AEBi8YJWQMxonB1i2pWT9lxRQbWAhpWfLl6k/s4no0yvhX00wjDVXLisYjf++uIJ74U9EURb1Th6lnhiq6pYNEqJwx7aKAD7YtSzeoFw+xkQ8CidYbfe0S4uo/ZrAwZZidDAhadMJfVA8LVoVIV62ffjvjAP5/uGWYnUwIWnZndYXip+qXrdXIjXM0lLSZNFS1tw2649oacCVh0zlxWZt6uHj8P5mQLfGfMW5E1AYsslH8XZ6OMy6Fl2J296vHj6qEasxR3GrakiN1JGV//g+txNSBjAhbZmM1lpeH3c0G7PqweqQLjipiVGYJvzqwl+E0rGOgDAYvsaBm27D+qx80QrmqkbdgILUF6RcAiS1qGLUkLRNO9gvtBAwzB16CInaol+E0tQfpGwCJbs5bhS+GUYTOcFGzNrWqWoLWgg63s33RKkD4SsMheVc26UFWzUstwM1hdGmb/l3BSsGXahgtIg+yTePkPbkzXuEAvCVj0ggH4mhhm75wlpUczyM5QCFj0SvnduFg9vRIsLjVZdsK8VSbMZ91D1YqBEbDoHdfsLOGfq8dPgwwJWqpWDJOARW/NqllpNsul0YdJLcG0guHXQcYmVcv2vesjHIRXtWLABCx6bVrNmlQtwzKeC+6mJdg7YxqEV7Vi6AQsBsFJwzukU4L/GlqCPTbooKVqxUgIWAyGvVlxcI/gTjglOBBDC1plxLfWT8RL9loxBgIWgzPaLfAG2QdrAEFraxLxgm3sjImAxWDNhuCfj6EHrXSX4E4YZB+B3gUt7UBGTMBi0AbdNkyzVv8WrrsZoT4ELe1Axk7AYhQGtwnerBWRZ9BKpwP3o6paaQcycgIWo9L704ZOCPIAKWi9dyPiVzsd7tEqYmdSxjcFKzggYDFKvQxaP4uDdqC9Vhxi8mEVst5ueTN8mrMq41tVsHopgNsELEZr2jbcq4JWMQ1a+UoflO/MnmFOjV/BMwtWJ07EJXNWcD8Bi9HLdhA+XXOTgtUvApb2wTsHYau2OS3BCuYiYMFMNkHr1unANGelHUhNbg3E//qdFapaRby2th4vCFZwPAEL7tFp0EoVK8GKhi3cPjwIVi+7NxDmJ2DBIVoNWqkNmAbYrV2gRUe2D7UCYSUCFhzjjqD1taj71KFgRQZSJSu1DqdVrX8XrKAOAhbMaRq0JnGulvUOghX52a1e39/aeV2wgjoIWLCEpfZopeH1X8bBjJVgRS6KuFpVaL9VvBBvBFAbAQtWUH6nqmgVVdg6ak7LqUBydBCsXq6C1dUAaidgQQ0eOKeVTmilRktqBwpW5GHaBqyeL1XBShsQGiRgQc2m7cMfVxWtXw7kYmn6T7UKWidgQUPKV6pK1lpDpw/heKpV0CEBC1pQha1zVdi6ELldx8PQ7N4xtH41gM4IWNCiKmhtVE/PxXoVtEotRGpyEKr+pvrVa6pVkAcBCzoybSFGFbKELZYhVEHWBCzIgLDFXA5C1ZtxEKp2AsiWgAWZEba4i0oV9JKABRmbzWylAfnnwmnEsUiD6m/MKlVvCFXQTwIW9EgVuM7GQXXrL1W3BuST1t9Vp/9gGAQs6KlZdevstLpVxBcFrl7Zqh5vxmR6/9+WKhUMj4AFAyFwZSu1/Laqfx8/qALV1TioUglUMHACFgzYdMFpCl3r8bXqA35z+muatjNr+f0gDipVKlQwQgIWjMjtKpfQVZc7w9ROqE4BMwIWcGt4Pt2deHbWXtwMwetOO7M239tVm29alUq/J0wBhxGwgEPNgtet2a7N6h3j87PwtTn7/aHYjU9mpVKI2omDilQKUruCFLAoAQtYyqzduBkxe16b/bqIx6d/XE5//9Zf05Wd6X8WtwNT3BGgdme/pxIF1E7AAloxC2R3PuKeXx9YOyKQTWaVprvtzJ5v/znXyAAAAAAAAAAAAAAAAAAAAAAAAAAAAAAAAAAAAAAAAAAAAAAAAAAAAAAAAAAAAAAAAAAAAAAAAJCR/w+4WK4xfGFFmgAAAABJRU5ErkJggg==;fontColor=#999999;labelPosition=right;align=left;spacingLeft=20;" vertex="1" parent="mu3TLzRvKkOABFL3PFfV-27">
          <mxGeometry x="11.379999999999999" y="12.5" width="35" height="35" as="geometry" />
        </mxCell>
        <mxCell id="mu3TLzRvKkOABFL3PFfV-54" value="&lt;font style=&quot;font-size: 10px;&quot;&gt;&lt;b&gt;Terraformで管理可能なリソース&lt;/b&gt;&lt;/font&gt;" style="text;html=1;align=center;verticalAlign=middle;whiteSpace=wrap;rounded=0;" vertex="1" parent="mu3TLzRvKkOABFL3PFfV-56">
          <mxGeometry x="320" y="52.5" width="165" height="30" as="geometry" />
        </mxCell>
        <mxCell id="mu3TLzRvKkOABFL3PFfV-68" value="" style="strokeColor=#dddddd;shadow=1;strokeWidth=1;rounded=1;absoluteArcSize=1;arcSize=2;recursiveResize=0;" vertex="1" parent="mu3TLzRvKkOABFL3PFfV-56">
          <mxGeometry x="39.5" y="190" width="180" height="60" as="geometry" />
        </mxCell>
        <mxCell id="mu3TLzRvKkOABFL3PFfV-69" value="Firebase&#xa;Remote Config" style="shape=image;verticalLabelPosition=middle;labelBackgroundColor=default;verticalAlign=middle;aspect=fixed;imageAspect=0;image=data:image/png,iVBORw0KGgoAAAANSUhEUgAAAlgAAAJYCAYAAAC+ZpjcAAAACXBIWXMAAAsTAAALEwEAmpwYAAAAAXNSR0IArs4c6QAAAARnQU1BAACxjwv8YQUAAC8MSURBVHgB7d3Nk113eSfw53TLNnHicXsUYHAyoRUTJ1WWCjlsQhGCtMgqUxWTVXaIv8DyX2B7OSuLv8D2bnZyqmZWWUgGUswmoSlJkxqD6PYkwYEAbpdD8Ev3PXN+t69kvXX3fTkvv3PO51N1ubJsQ2Hfvvd7n+f5Pb8IAAAAAAAAAAAAAAAAAAAAAAAAAAAAAAAAAAAAAAAAAAAAAAAAAAAAAAAAAAAAAAAAAIBFbZ+JV358Oq4EQAaKAOix7bOxUe7F5TLi3PQ3irj01LV4IQA6tBYAPVWFq83Jfnz/drhKyri4fTpeDIAOqWABvVSFqHOTIi5XgWrjQX9+rYwLp27E6wHQAQEL6J0qXD0/ibh0zF+2u1/G+advxFYAtEyLEOiVNMw+R7hKNtbX4nJqIwZAy1SwgF64b5h9XkXsrK3Hs6e2YjcAWqKCBWTvgcPs8yqrv3cvXg2AFglYQNaqcHW2CldXUlCK5T13s2otBkBLtAiBbB13UnBhZbzw1I255rcAViJgAVma86Tgwqqy/flT1+NqADRIixDIzs3T8WIT4Sqp/nudLAQaJ2ABWbl5sIX9pWjORprpErKAJglYQDZunpme9nspmnZwsvByADTEDBbQuaV3XK2qiNeeuhbfDICaqWABnUrhqqomXWk9XCVlXHAxNNAEFSygM7MFoqvuuFqZi6GBuglYQCdyCVczLoYGaqVFCLQus3CVuBgaqJUKFtCqDMPVJ1wMDdREBQtoTdbhKnExNFATAQtoRfbh6hPPOVkIrEqLEGhcj8LVJ1wMDaxAwAIa1ctwNeNiaGBZAhbQmD6Hq5ndtRPTofedAFiAGSygEQMIV8mti6E3AmABAhZQu4GEqwPV/4fSxdDAggQsoFaDClcz6Z7Em2filQCYk4AF1GaI4eq2Mi5a3wDMy5A7UItBh6s7uBgamIeABawsDYFP9qpwFXE2hs/F0MCxtAiBlY0oXCUuhgaOJWABK7l5Znp331jC1YGDOwsvW98AHEbAApa2nU7WlXEhxunsZN/JQuDBBCxgKTdPx4uTMi7GmFXh0slC4EEMuQMLu3kQKl4KppwsBO4lYAEL2X4mvjEp4rXgLvtlPOtkIXCLgAXMbftsnJ3sxfeD+xWxs7Ye510MDSRmsIC5zBaJupPvMOXBolUnC4FEwAKONZYt7StzMTQwI2ABx0o7n4Sr+bgYGkgELOBI2wdhYVyLRFdVxsWbz4x8hQWMnCF34FDWMaym+gZ7/tT1uBrA6AhYwANtn47nJxGXglXsrp2IZ50shPERsID7WMdQo4P1DSlk7QYwGmawgLtYx1AzJwthlAQs4C7WMdTPyUIYHwELuG16YlC4akYZF10MDeNhBguYcmKwHWURX//CtXgjgEETsIB0YvDcJKrWIG3Y3S/jvIuhYdi0CGHkpkPtRbwatGVjfS0up3/uAQyWgAUjZ6i9A+li6L1pyHIxNAyUgAUjZqi9U2ercOtkIQyUgAUjNd3UXrovr1NlXHCyEIbJkDuM0GyZ6PerD3gtqgysVUHr1I14PYDBELBgZNLczyxcbQa5cLIQBkaLEEZmOvcjXOXGyUIYGAELRiTNXaW5nyA/ThbCoAhYMBLTuauIS0HOnCyEgRCwYARmc1c2tfeBk4UwCAIWjMF+9YFt7qo3qkrjS9vPxDcC6C2nCGHgfnQmLhSlq3D6aL+MZ50shH4SsGDAZvuuXIXTV0XsrK3H+VNbsRNAr2gRwoCVe1XlSrjqr/IgIDtZCP0jYMFA3TwdL5YR54J+O1jfoMULPaNFCAM0bQ3uxXYwGNW34ZdOXY+XA+gFFSwYICsZhiedLLz5jMu5oS8ELBiY1Bo0dzVQRbyyfVrbF/pAixAGpGoNnq1ag98Phmx37UQ862Qh5E0FCwZitq39cjB0G04WQv4ELBgK29rHo/r3XO4J05AzLUIYgDSXMwmD7aNTxKWnrsULAWRHwIKem7UGv696NVJlvPDUjbgUQFa0CKHnJnvxvHA1Yk4WQpZUsKDHLBRlxslCyIwKFvSYhaLMOFkImRGwoKcsFOUuThZCVrQIoYe0BjmUk4WQBRUs6KGqUvFqwIOUcdGdhdA9FSzomR+diQtFKWBxtOrb8/lT1+NqAJ0QsKBHpq3BNNhu9orjOVkIHdIihB6ZuA6H+TlZCB0SsKAnUvWqClcXAublZCF0RsCCnrDzimWUEedunolXAmiVgAU9kAbbtQZZmpOF0DpD7pA5g+3UxclCaI8KFmTOYDt1mURcns7yAY1TwYKM2dhO7YrYWVufrm/YDaAxKliQsSpcGU6mXk4WQisELMjUdLA94rmAmjlZCM0TsCBTVf/+xYCmOFkIjRKwIEPWMtCKIl7ZPh3nAqidIXfIjLUMtMydhdAAFSzIzX48L1zRIncWQgMELMjItHpVmouhZU4WQu0ELMjIdKkodMDJQqiXGSzIhKWiZKGMF566EZcCWIkKFmRC9YosFPHKW8/E2QBWooIFGfjh6ThXfdu5EpCDg+t0zjtZCMtTwYIMWCpKVsqDVSFOFsLyBCzoWFoqWgWscwE5Kaczga8GsBQBCzqmekXGnts+7fUJyxCwoEOuxCF3k4iXtp+JbwSwEEPu0KGbZ2JbwKIHdvfLOP/0jdgKYC4qWNAR1St6ZGN9LS6nXW0BzEXAgo6YvaJXDobeLztZCPMRsKADqlf01NnJvut0YB4CFnRA9YreKuOCk4VwPAELWpa2tqte0WdOFsLxBCxomeoVQzAp4pI7C+FwAha0KFWvbG1nIJwshCMIWNCitUJbhQGZnSwM4D4CFrRk+k2/jAsBw3L25hknC+FeAha0ZLJv9oqBKuPizWfiYgC3uSoHWpCqV1UrZTtgwKpv7OdPXY+rAahgQRtUrxiDSRh6h1sELGjY7GqRcwHDt1F9mbjiOh0QsKBx+/vxnMWijEb1Wi+dLAQBC5pmsShjU1YVWycLGTsBCxrkUmdGy8lCRk7AgiaVFosyYkW84jodxsqaBmiI1QwQ6VNmZ209zp/aip2AEVHBgoZYzQBx+zodJwsZGwELGuBaHLjL2eoLh6F3RkXAggbs79t7BXepvnBsn1bVZTzMYEEDbp6JbacH4X5rVdA6dSNeDxg4AQtq9sPTca4qDV8J4EF2107Es4beGTotQqjZWmE1AxzBdTqMgoAFNTLcDnNwnQ4jIGBBjQy3w3xcp8PQCVhQI/cOwgJcp8OAGXKHmhhuh+VUPzfnT12PqwEDooIFNTHcDsuZFPHqdH4RBkTAgrqU8VwAi3OdDgMkYEENfnRmenLQhwMsz3U6DIqABXUotQdhZa7TYUAMucOK0uxI1d7YDqAWrtNhCFSwYEV2X0G9JkVcMvRO3wlYsCK7r6B2rtOh9wQsWEH1AXA2nYAKoF6u06HnBCxYQfUt+/kAGuE6HfpMwILVnAugOa7ToaecIoQluRoHWrO7X8b5p2/EVkBPqGDBklyNA63ZWF+bbnrfDOgJAQuWdy6AdrhOh54RsGAJqT3o9CC0Ll2nYy0KvSBgwRK0B6Ejht7pCQELlnMugG4U8cr2aT+D5E3AggVpD0L3JmHonbwJWLCg6ofmuQC6tmHonZwJWLCoIv4ygBykoXeb3smSgAULcPcgZKaMC9unnSwkPwIWLGDyscFayM0k4iVD7+RGwIIFlNqDkCVD7+TGXYQwp/TmPdmL7QDyVMTO2no8e2ordgM6poIFc9rf14KArB1cp/NqQAYELJhTVe7VHoT8PWfonRxoEcKcbp6Od6snO3egB8oivv6Fa/FGQEdUsGAOPzw4oSRcQU8UZbxq6J0uCVgwB9vboXc2JvtxxaZ3uiJgwXy+FkC/GHqnQwIWHGPWZjgbQB8ZeqcTAhYcY39fuII+S5vef3RGm592CVhwDOsZoP8MvdM2AQuOdy6AvjP0TqsELDjC9Btv6VsvDEIaet+PVwJaIGDBEVyPAwNTxgVD77RBwIIjmL+C4UlD79unfXmiWQIWHM0JQhigKmRdNvROkwQsOET15nvW/BUM1sZkbxqyDL3TCAELDmH/FQze2cm+eSyaIWDBIQrX48DwlXHx5jNxMaBmAhYcplTBglEo4pW3nvHzTr0ELHgA9w/CuKyvGXqnXgIWPID5KxiZMjbLvXg1oCYCFjxAUdqRA2NTRpy7ecamd+ohYMEDVG+0XwxgfMq4uP1MfCNgRUUA97l5OmUsYKR2107Es6e2YidgSSpYcI8fukIDxm5jsh9XLCFlFQIW3GPNegagjM0qZJnHYmkCFtxrzfwVEClkXbCElGUJWHAvFSzgFktIWZIhd7hDmrmY7MW7AXBLETtr69Oh992AOalgwR329nxTBe5xsIT0csACBCy4gwF34EHSEtLt0/FiwJwELLiTAXfgEJOIl7atcWFOAhbcoSxd9gocblLEqy6FZh4CFtyhCN9OgSO4FJo5CVgwU30rNX8FHMul0MxDwIKZ/X1lf2BO6VJo81gcQcCCmcIJQmAB5rE4ioAFtxROEAILMI/FEQQsuMUJQmBB03ks9xXyAK7KgZmbp9N7JcDiqmrF+VPX42rAjAoWhBOEwGpm81gbATMCFoQThMCKytic7FvdwCcELAgnCIEalHHBPBa3CFiQOEEI1KGIF61uIBGwIKZ3EJqdAOqwYXUDiYAFMT1Oq0UI1MLqBhJrGhi9dPJnshfvBkCN9st49ukbsRWMkgoWo7e3p3oF1G+90CocMwGL0SsK81dAI87ePGN1w1gJWIyeFQ1AY8q4uH06zgWjI2AxemXhSDXQHFvex0nAgjI+HwBNOdjy/mIwKgIWo1eEb5ZAw6pW4VvPGEcYEwEL7MACWuBU4bgIWIyauQigRWdvno6XglEQsBg1O7CAlj3vrsJxELAYNTuwgJa5q3AkBCxGrZj4Jgm0y12F4yBgMW4qWEAXinjRDOiwCViMmiWjQEc2Jvuu0RkyAYtxs2QU6EoZF1yjM1wCFgB0ZGI31mAJWIxaoUUIdKmMTbuxhknAYtxKAQvonN1YA3QiYA7l92Y//Huz53J6+uWTEzBr1a/LQ07ElLFzxx/tRlE9Dv6e3enjU7FbPDv7vRalEzyTvQDoWnovSgPvXw8GowhGbRqcUmhKlZzULlubDn1vzCo7B6GpvVUGOxHToJVC2E5M4u1pGCtjKwWx4ivVc43SN8bqTW07ADJQtZTOn7oeV4NBUMEagfL7VUD69zg7DU0n4ovT53J6Rcxm7MdBzL4Vtct7/uZ2I/jm7V+Vd/xvFwd/XH53+pzC19Y0gJXxg1XC114VLPXIgVxMYlrFejYYBBWsgZlWpD6Oc/cFqaG7FbzWqkeqfFXBq/jq0d8Ef3g6zlUB60oA5KKMF566EZeC3hOweux2ZWotvlb9UJ6bhimbye91dRq69uLNeKgKXV/+ZB7sR2fiQlE6Ig1kZXftRJw6tdX+XCr1ErB6ZBqo3p9Wp75WVWnOVb91NljUzrTSFfE3//Lf44sf/th9YEB2Xn7qutUNfSdgZa78ThWkblWowsbfWv0kYu+tiF+/E/GrtyM+qJ4nHwZA52ZVrJ2gtwSsjE3nqfanM0KbQf2qgBXv3P1bKWT9aucgcO29HwCdqD6cr/7+9Tgf9JaAlbHy7+LVdFdV0Ix/qh4/O/xPp4CVgtb7P4z46OcB0CprG/pNwMrUrHplR1OTdqrHL+b7S4UtoG2qWP0mYGVK9aoFNyOWOaeTwtZ717URgeapYvWXgJWhKlylpaDfD5r1VvVYMSClma333zp4ANSuiJ2nrsWpoHcErAyV350Otp8LmlVDwLolVbLSacR3/0FVC6hXWcQ3v3AtXgt6RcDKTFW9uhCWX7bj/1SPX0ftVLWAWlVVrLX1eNby0X5xFVtuyngxaMd+NOJTn4v49Ncifu+vI574UsSJxwJgeeX0YnpLkXtGBSsjqlctu1Y9PopWpGqW9iGwAlfo9IwKVk5UrwbrsacPKlqpsvXwbwfAojZUsfpFBSsTqlcd+PvoTJrT+mVV0frgJwEwL1WsHlHByoXq1aikOa0n/6J6/Lfq108GwDxUsXpEBSsDqlcd6bCCda9U0frZm2a0gGOpYvWEClYOVK9GL1W0bs1oOXUIHEEVqydUsDqmetWhjCpY93LqEDiCKlYPqGB1rYxvBNwjnTpMM1qPnwmAe21MPnZXbe5UsDpUfifOVf8GrgTtS0tGt6IXUhUrVbNshgduc0dh9lSwurSmetWZhra4NyHNZKXZLPNZwG1lbP7oTDwXZEsFqyPl92Kz+pDfDrqRNrhfi15K1ax3M54fA9pRfYBf/f3rcT7IkgpWVyZODrKcJ/744MShahaMWxlxbvt0nAuypILVAdWrDPS4gnWn964fVLMmLd2pCORFFStfKlhdmPjGQT0ePx3xu39lGzyMlSpWvgSsLlgs2r2HYzBSqzCtdDj55eoHekD/v4D57Idh9xwJWC2bLhaNqkUINbtVzTKbBeNStQm/sX02NoKsCFhts1iUBqVwlQbgn/hSAOPh+pwMGXJvkeH2zAx81cGHv4j46d+6bgdGYvep6/FEkA0VrDZZzUCLHjl5MJuVrt0BBm/DsHteBKw2lV78tOvWFngtQxi+MnyJz4mA1RLD7Rlaj9FIy0l/xwA8DNp0ZcMzcTbIgoDVFsPt+RlRwEputQwfPhnAQE0KKxtyYci9BYbbM5U2uY90A7r7DGGwdtdOxKlTW7EbdEoFqw2Oz5KZ1DJMi0mBwdnY3zfvmwMBqw1F/GWQn0di1NJiUnNZMDxrZTwfdE7Aalj5nek3ic2ADN2ayxKyYDimw+5/5HOnawJW09YMt2drZEPuh7l1l6HhdxiOyYnpyXU6JGA1rXSiI1sC1m0pZKV7DC0lhcHQJuyYgNWg2e4rF3DSG5aSwmDY7N4xAatZhttz9nDwAOmEoZAFA2D/YqfswWpIeaWqXD0U7wb5+kn1eCc4hF1Z0Ht2YnVIBaspD5u9yt7I1zQcJ1WyUssQ6K20E8tnUUcErOZoD9J7aehdyIL+WtMm7IwWYQO0B3siFc1vBnN4/62If3szgP7RJuyIClYT1p3c6AVD7nNTyYLe2ph8bCdWFwSsJqxrD/bCiWABQhb0U+G6tk4IWE2wXLQfLBpdmJAF/TO9OuesnYxtE7BqNrt70Au5DwSspQhZ0D9OE7ZPwKqfF3GfmMNaSgpZJ78cQE84Tdg+Aatuet39ooq1tMdP2/gOfVG1Cc9qE7ZLwKpR+b3YrJ42g/6wbHQlrtWB3tiIvTgbtEbAqtPEeobeUcFaWQpZqWUIZE6bsFUCVr20B/vGDFYt0tD7p54MIGOTwoxwmwSsOpUqWL2jRVib//LnESceCyBfG9unfU61RcCqifUMPaVFWJu1qhr45F8IWZCzSQhYbRGw6nMu6B8twlqlcPXZPw8gU0WELXYtEbDqUnjR9pLrcmr3yEk7siBXtrq3R8Cqz7mgf1SwGpF2ZD1+JoAM2ereDgGrBrP5K/pKyGrEyT9xshBytD7RcWmDgFWPc0F/PRo0xMlCyM9kzWdWGwSsOpi/6jcnCRuTThYaeofMlLG5/UduHWmagFUP1w/0mRZhowy9Q34m6+awmiZgrcj+qwGwbLRxaejddTqQj+rD/4tBowSsVRWqV733G0ELUhXLPBbkwRxW8wSsVZm/6j8VrFaYx4KMmMNqnIC1qtILtPfWw6B7S8xjQT72H1LFapKAtYLyynT2SotwCAy6tybNY9mPBRkofX41ScBaxQkvzsGwC6tVn/mzg5Yh0B33EjZLwFqFAffh8GHfqjTs/sSXAujWWfcSNkfAWoUB9+Ew6N46rULIwJ5CQVMErFUYcB8Oqxo6oVUI3ZqYw2qMgLUkA+4Do4LVCa1C6JaFo80RsJZlwH1Y0poGlZROaBVCdywcbY6AtSwD7sPjJGFntAqhI2nhqEH3RghYyzJ/NTw+4DujVQgdMujeCAFrWYW+9eCoYHUqtQofPhlAywy6N0PAWp4X5NC4iLhzrtGB9hl0b4aAtYTZCUI966FJLUJ3EnbqNz5X5dynA2jRxExxIwSsZThBOFzmsDqXqlgG3qFVm0HtBKxllKpXg2UOq3MpXD1+JoD2bGz/kZBVNwFrGcqpw2WjexbSwPsJM3HQmv2HfK7VTcBaRiHpD5YKVhZSFcvAO7SnmPhcq5uAtZzPB8MkYGXjNz9vwzu0pVQ4qJ2AtZzNYJhcmZOVJ/44gDZYnl07AWs5m8Fwmf3JRlrboIoFzSvW7MKqm4C1oPJ7wtXgGXTPiioWtEAFq3YC1qL2vAgHTwUrK6pY0A6rGuolYC3KDqzhezR2bXTPiyoWtOCEgFUnAWtRdmCNwYbThHlRxYLm7TtJWCsBa3EqWGNgDis7qljQrMIcVq0ErEWt2YE1CipY2VHFgmatlT7f6iRgLcoM1jj4t5wlVSxozn71IxbURsBanI/eMbBwNEuqWNCcolDBqpOAtbjNYBysa8iSKhY0pFBAqJOAtTgvwLEw6J4lVSxoiCH3WglYCyivCFejYhohW7+pkQGN2D7rc64uAtYiPuWFNyppBsvC0Sw99nT15mVGDur3gc+5ughYi3BNzvh4q8lSClePnwmgbuve9eoiYMFRzGFl6/HTAdTNoHttBKxF2IE1PuawspWqWIbdoV6uy6mPgLUYAWtsHg77sDJmZQOQKwELjmMfVrbSygbD7lAf9xHWR8BahNLpOAlYWTPsDuRIwILjaAxnzbA71Kf0jlcbAQuOk3ZhqWJly7A71Ge9jMeDWghYMA/rGrJmszuQGwFrEWawxkvRPGs2uwO5EbBgHqlF6NqcbKVw9fBvB0A2BCyY13+K3SBbdmLB6kqdmtoIWDCvxzUKc/bISW1CIB8CFsxLvMpaCle/uRkAWRCwYF7WNWTv0c0AyIKABYv4rSBjrs4BciFgwSJOGnTPmdOEQC4ELFjEI7ERKiRZs3QUyIGABYsy7J61tHQUoGsCFixKwMqaNiEsryhjJ6iFgLUILzwSW92zl4bdAbokYMEyTgYZe9QcFtAxAQuWoU2YNVvdga4JWIsoHNFnRpswa+awYDmTIt4OaiFgLWIiYHEHbcKsWdcAdEnAgmVpE2btYQEY6JCAtRgVLD6hTZg11+bA4srCafm6CFiLMIPFvT4TZMwcFtAVAWsRawIW93gsyNgj2oSwkHX7HmsjYC1CwOJej4WQlbFPWTgKdETAWsQHAhYP8FtBpmx0hwXtqWDVRcBaQHFewOIBPhtkKg25n1BhhPl9yudcXQSsxe0E3CmdJPQhni1VLJjfqS0Bqy4C1uK8+LifYeps2YcFc7KioVYC1uIELO6Xlo7aiZUlAQvmVPp8q5OAtTj3NHG/FK58kGfJqgaYT6GAUCsBa1ESPodxdU6W0qC7je5wvMIOrFoJWIvSo+YwadD9UQE8R596MoBjTAodmjoJWIua+ADlCI+rY+XoIac84Xg6NLUSsBa1HlsBh0k7sQy7Z+eEZbBwrHJNh6ZOAtaiXJfDUezEypJlo3C89YmAVScBa0HFl70AOcZngsw88p8DOM5DPt/qJGAtZyfgMC6Azk6qYDlJCEfatcW9XgLWMgpzWBzj8SAza48EcLidoFYC1jLKeC/gKL8dht0zY6M7HK4srWiom4C1HBUsjmaze3asaoAj2PFYOwFrGU5aMA8bsbJiVQMczhb3+glYy3hIBYs5GHbPyroZLDjUmtni2glYS7Cqgbl9LsiEChYc4YSAVTcBa3k7AcdJFSzrAbIgYMGhrGhogIC1LOVU5vVpb1w5sKYBHqxwcKsRAtayJo60MqdPx4aVDd2zaBQebBLxg6B2AtaySomfOaVw5fqcLLiTEO7nBGEzBKxlPRRXA+b12bB4FMiSE4TNELCWNDtJaLaG+aRwZS9W51Sw4AGcIGyEgLWanYB5fUYg75o5LLiPE4QNEbBWYzCQ+T1a1bBUUDq1LmDBXZwgbI6AtRovTBZj8SiQkTLizaARAtYqCoPuLMj1OZ0ygwV3Kw24N0bAWsVHZrBYgioWkIn1dQGrKQLWCorz08FAL04Wo4oF5KCInVNbCgVNEbBWVepfswRVLKBj5cRBrSYJWKuy0Z1lqGJ14iH/zOG2IswRN0nAWpWN7ixLFQvokA3uzRKwVmSjO0tTxQI6dOq6AkGTBKw6WNfAslSxgA5oDzZPwKqDQXeWpYoFdGDiJpLGCVh1UMFiFapYQMvWI94IGiVg1aD4ynRQ0BwWy1HFas3+hwEkJwy4N03AqosqFqtQxWrF5KOA0UvzV6e2FAWaJmDVxRwWq1DFAlpi/qodAlZd1vWzWdHv+kYJNM/8VTsErJrYh8XKHo2NOBk0SIsQ7L9qi4BVr78JWMWTMf16STMmhtwZOfuv2iNg1WnihcuKHq4enwmARpSlQkBbBKw67etrU4PPhipWQz7+94BRW3vI51RbBKwaFeenM1hXA1aRwtWTAVCvInZObU3nhWmBgFU/5VdWl9qEDwc123s/YMyuBq0RsOpmXQN12QxqZsidMVsr4/WgNQJWzWbrGnYCVmX5aO2saWDEdq1naJeA1QSnNKjLZlAT4YpRK3RX2iZgNcMLmXpY21Ab81eMWWk+uHUCVgOKr07LsLa6Uw/LR2uhgsWYra9rD7ZNwGqKYULqYm1DLfbswGKk0nLRU1u+9LdNwGqONiH1SW1CA+8r+ViLkLFa83nUBQGrIdqE1O5zwQrMYDFW69YHdULAapI2IXVKFSwD70tzTQ5jpD3YHQGrWb41UC8D70sz5M4oaQ92RsBq0KxNuBNQlxSuPu/b6DI++nnA2Ox+4Vq8FnRCwGqaNiF1eyI2DLwv5qNfBIyP5aKdErCadsK3BxqwGVqFC9AeZIzcPdgtAaths7sJrwbUyYb3hXyogsXYFLHj7sFuCVjtcEUB9UsD748Gc7BklLEp3YnbOQGrDR9P24QGk6nf7wZzUMFibNZPxKWgUwJWC4rzVbjSC6cJdmPNxQlCxqSIuHpqywn2rglY7XGag2akVuHDwSHSCUJD7ozJpPCFPgcCVktmO7G2AuqWThNuBoewwZ1RKWLH7qs8CFhtMnRIU7QKD2UHFiNzNciCgNWmvenQoWF3mqFV+EC/fidgNNbW4+UgCwJWiwy70yitwgcy4M5YGG7Pi4DVPsPuNEer8C577xtwZzwmRXwryIaA1bLZsPvVgKb817CAdObDXwaMw8Fwuy/wGRGwulDqkdOwz4e7CisfmL9iJMrwuZIbAasDsyqWYXeakypYT8bo2eDOSOyur+uM5EbA6kqpV07D0izWYzFaafbqg58EDF8Rbxhuz4+A1RUrG2jDZoy2VWj/FWNhNUOeBKyOzFY2qGLRrLQXazNG6VdvBwxfEa+pXuVJwOqSKhZt2IhRrm4wf8UYqF7lS8Dq0LSKFa7PoQUj2/Ju/ooxsFg0bwJW19bjpYCmpTmsP4zRzGO5HocxKKxmyJqA1bHiy9W3j8JyOFqQKlgjWd3wHzsBgzatXl23miFnAlYOJobdaUmaxToZg6eCxdC5Fid/AlYGXJ9Dq9JVOgOex0rrGdIdhDBYrsXpBQErF67PoS0Dn8dSvWLoXIvTDwJWJlSxaNWA57Hsv2LQDqpXrwXZE7ByUsQLAW35TAxuP1ZqDVrPwJCtlfHNoBcErIwUX4mt6un1gLakeaxHYzC0BxkyJwf7RcDKjb1YtO2pGMzQ+/s/DBisvVKXo08ErMxM92K5o5A2DeS+Qu1BBq2I156+Me1y0BMCVo72plUsdxTSnsfioF3YY9qDDJk7B/tHwMrQ9I5CVSza1vOhd+1BBquqXrlzsH8ErFztxaVQxaJtaXVDD4fetQcZMtWrfhKwMjWtYlnbQNvS8tEeDr1rDzJgL6te9VMRZK38blypns4FtOk/qsdb1WM/euGfL0d89POAYSli56lrcSroJRWs3LlChy6kNmFPht7T3YPCFUPkSpx+E7AyN71Cp3CpJx04WT0+F9l773rA8LgSp/cErD5Ym85iGXinfWno/WRkzfwVQ7S2HueDXhOwesDyUTqV8XU67791cIIQBsVahkEQsPriYG3DTkDbMj5ZaPcVg1O1Bq1lGAYBqydmy0fdok43Urj6wzgIW5mw+4ohKq1lGAwBq0cMvNOpFLKejmxC1rv/EDAsBtsHRcDqGwPvdCmT9Q2pepXmr2BIDLYPi4DVM9OBd7tR6FIG6xucHGSAtAYHxib3nrLhnc6l+aeOgs7/+x9ODzIgNrYPkgpWX61PB961CulO2pH1mWid1QwMzcQBpkESsHrKbiyykOaxWl5EaridISkjvvUH1+NqMDgCVo8VX42XqqetgC61uIj0V2+rXjEgVWtw/cT0fZwBErD6rlBapmNpbUNa39BCyHLvIEOSWoOntox6DJWA1XPFV6YVrBcCutTCtvcP3rFYlOHQGhw+AWsAij+dXqNzNaBLt7a9NxSyfmn2iqHQGhwFAWsonCokBw2FLNUrhiQtFNUaHD4BayAsICUbDYQs1SsGxELRkbBodGDKv4vLVXP/uYCufVQ9/u/seQWpevWT/xnQfxaKjooK1tB8NG0V7gR0raZK1s/eDOi/InbdNTguAtbAFOervr6twORixZBlaztDUUa8oDU4LgLWABVfjau2vJONFUKWre0MQVrJ8IVr8VowKgLWQFUh62JY3UAulghZqlcMgpUMoyVgDZnVDeRkgZCVgpXqFb03m7uykmGcBKwBm10I/fWAXMwZstKVOKpX9N1kYiXDmAlYAzebx7Ifi3wcE7JSsHLnIH03vQrnxvSWDUbKHqyRKL8bV6qncwG5OGRP1r+9eTB/Bb1l3xWhgjUeH09bhTsBuXhAJSsFK+GKXqvClX1XJALWSEz3Yx380Bu2JB+3QtajB39osJ2+q8LV181dkQhYIzIdei/ihYCcpJD1dMR71jLQf2mofSsgBKzRKb4Srxl6Jzt7EY9tVoWszYBeSkPtT12374pPGHIfqfLbVdBai28E5OBa3B52/8X/rqpZ1wL6ZKsKV88G3EEFa6z2p5velbLp3s/irpOEJ/8k4okvBfRDGmo/Yd8g91PBGrHye7FZBa20vmEzoAsfVo9/jBT475MG3t/9+4B8HWxqf9ZQOw+igjVis6H39M3LyUK68XY8MFwlT/xxxKe/FpCt2TU4OwEPIGCNXPGVqk04md5ZCO1KrcFjTg0+9nTE7/xVxInHArIyKeMFJwY5ioBFFH8Wb1RP1jfQntQa/Kf5/tJHTkY8+RdCFll52TU4HEfAYqr40+rNwvoG2rLgtvYUrlLIevhkQKesY2Behty5S/mdKmgV8XxAU96pHj+JpVnjQGeKeOOpa04MMh8VLO5SfDUuxiReD2hCmrlaIVwl1jjQka21dfOqzE/A4n52ZNGENHe1E7VIJwxPfrl6A3s4oHkHu67SiUEnrpmbFiEPVF6JjXhouiPrbEAdbkbtC0HS3YU/+V/uMKRBKVxZx8ASBCwOZREptVlx7uooKVz9699GfPSLgHoJV6xAwOJIQhYrS9WlBU8NLsPwO7USrliRGSyONN32Xr3JRHiTYQk1zl0dx/A7tRGuqIEKFnNRyWIpqaL0UbTqw6pV+NO/NZfFkoQraiJgMTchi4X8c/X4aXTCXBZLEa6okYDFQoQs5tLgUPsi3v2H6vH3AccTrqiZgMXChCyOlFYx3IxsvP9WxC++FzFpuVVJjwhXNEDAYilCFg+Uhtr/MdKy2qzYl8WhhCsaImCxNCGLu6RwldYxZFopShWs1DK0yoHbhCsaJGCxklnIuhw2vo/bXhxUrnrQhtMyZEq4omECFitzrQ5NXIPTJC3D0dtaOxFfF65okoBFbcpvx2uxFt8IxqXDdQyrcspwfKoPvavFQbhycTONErCoVfmduFS9qp4PxiGTdQyr+NXbBy1D1azhK4t4/QvX4kJACwQsaleFrJeqV9aLwbANIFzdksJVqma938KdiXTm5aeuV+9N0BIBi0aU342L1dMrwTANKFzd6b3rBy1DA/CDI1zROgGLxpTfjudiLV6tfrkRDMfPqsc/xWAZgB+QInbLSbzwhRvxWkDLBCwaZVfWwKS7/XZiFAzA99zBGoY0zL4V0AEBi8YJWQMxonB1i2pWT9lxRQbWAhpWfLl6k/s4no0yvhX00wjDVXLisYjf++uIJ74U9EURb1Th6lnhiq6pYNEqJwx7aKAD7YtSzeoFw+xkQ8CidYbfe0S4uo/ZrAwZZidDAhadMJfVA8LVoVIV62ffjvjAP5/uGWYnUwIWnZndYXip+qXrdXIjXM0lLSZNFS1tw2649oacCVh0zlxWZt6uHj8P5mQLfGfMW5E1AYsslH8XZ6OMy6Fl2J296vHj6qEasxR3GrakiN1JGV//g+txNSBjAhbZmM1lpeH3c0G7PqweqQLjipiVGYJvzqwl+E0rGOgDAYvsaBm27D+qx80QrmqkbdgILUF6RcAiS1qGLUkLRNO9gvtBAwzB16CInaol+E0tQfpGwCJbs5bhS+GUYTOcFGzNrWqWoLWgg63s33RKkD4SsMheVc26UFWzUstwM1hdGmb/l3BSsGXahgtIg+yTePkPbkzXuEAvCVj0ggH4mhhm75wlpUczyM5QCFj0SvnduFg9vRIsLjVZdsK8VSbMZ91D1YqBEbDoHdfsLOGfq8dPgwwJWqpWDJOARW/NqllpNsul0YdJLcG0guHXQcYmVcv2vesjHIRXtWLABCx6bVrNmlQtwzKeC+6mJdg7YxqEV7Vi6AQsBsFJwzukU4L/GlqCPTbooKVqxUgIWAyGvVlxcI/gTjglOBBDC1plxLfWT8RL9loxBgIWgzPaLfAG2QdrAEFraxLxgm3sjImAxWDNhuCfj6EHrXSX4E4YZB+B3gUt7UBGTMBi0AbdNkyzVv8WrrsZoT4ELe1Axk7AYhQGtwnerBWRZ9BKpwP3o6paaQcycgIWo9L704ZOCPIAKWi9dyPiVzsd7tEqYmdSxjcFKzggYDFKvQxaP4uDdqC9Vhxi8mEVst5ueTN8mrMq41tVsHopgNsELEZr2jbcq4JWMQ1a+UoflO/MnmFOjV/BMwtWJ07EJXNWcD8Bi9HLdhA+XXOTgtUvApb2wTsHYau2OS3BCuYiYMFMNkHr1unANGelHUhNbg3E//qdFapaRby2th4vCFZwPAEL7tFp0EoVK8GKhi3cPjwIVi+7NxDmJ2DBIVoNWqkNmAbYrV2gRUe2D7UCYSUCFhzjjqD1taj71KFgRQZSJSu1DqdVrX8XrKAOAhbMaRq0JnGulvUOghX52a1e39/aeV2wgjoIWLCEpfZopeH1X8bBjJVgRS6KuFpVaL9VvBBvBFAbAQtWUH6nqmgVVdg6ak7LqUBydBCsXq6C1dUAaidgQQ0eOKeVTmilRktqBwpW5GHaBqyeL1XBShsQGiRgQc2m7cMfVxWtXw7kYmn6T7UKWidgQUPKV6pK1lpDpw/heKpV0CEBC1pQha1zVdi6ELldx8PQ7N4xtH41gM4IWNCiKmhtVE/PxXoVtEotRGpyEKr+pvrVa6pVkAcBCzoybSFGFbKELZYhVEHWBCzIgLDFXA5C1ZtxEKp2AsiWgAWZEba4i0oV9JKABRmbzWylAfnnwmnEsUiD6m/MKlVvCFXQTwIW9EgVuM7GQXXrL1W3BuST1t9Vp/9gGAQs6KlZdevstLpVxBcFrl7Zqh5vxmR6/9+WKhUMj4AFAyFwZSu1/Laqfx8/qALV1TioUglUMHACFgzYdMFpCl3r8bXqA35z+muatjNr+f0gDipVKlQwQgIWjMjtKpfQVZc7w9ROqE4BMwIWcGt4Pt2deHbWXtwMwetOO7M239tVm29alUq/J0wBhxGwgEPNgtet2a7N6h3j87PwtTn7/aHYjU9mpVKI2omDilQKUruCFLAoAQtYyqzduBkxe16b/bqIx6d/XE5//9Zf05Wd6X8WtwNT3BGgdme/pxIF1E7AAloxC2R3PuKeXx9YOyKQTWaVprvtzJ5v/znXyAAAAAAAAAAAAAAAAAAAAAAAAAAAAAAAAAAAAAAAAAAAAAAAAAAAAAAAAAAAAAAAAAAAAAAAAJCR/w+4WK4xfGFFmgAAAABJRU5ErkJggg==;fontColor=#999999;labelPosition=right;align=left;spacingLeft=20;" vertex="1" parent="mu3TLzRvKkOABFL3PFfV-68">
          <mxGeometry x="11.379999999999999" y="12.5" width="35" height="35" as="geometry" />
        </mxCell>
        <mxCell id="mu3TLzRvKkOABFL3PFfV-75" value="" style="strokeColor=#dddddd;shadow=1;strokeWidth=1;rounded=1;absoluteArcSize=1;arcSize=2;" vertex="1" parent="mu3TLzRvKkOABFL3PFfV-56">
          <mxGeometry x="39.5" y="350" width="180" height="60" as="geometry" />
        </mxCell>
        <mxCell id="mu3TLzRvKkOABFL3PFfV-76" value="Google Analytics&lt;div&gt;for Firebase&lt;/div&gt;" style="sketch=0;dashed=0;connectable=0;html=1;fillColor=#5184F3;strokeColor=none;shape=mxgraph.gcp2.google_analytics;part=1;labelPosition=right;verticalLabelPosition=middle;align=left;verticalAlign=middle;spacingLeft=20;fontColor=#999999;fontSize=12;" vertex="1" parent="mu3TLzRvKkOABFL3PFfV-75">
          <mxGeometry width="35" height="35" relative="1" as="geometry">
            <mxPoint x="10" y="14" as="offset" />
          </mxGeometry>
        </mxCell>
        <mxCell id="mu3TLzRvKkOABFL3PFfV-77" value="" style="strokeColor=#dddddd;shadow=1;strokeWidth=1;rounded=1;absoluteArcSize=1;arcSize=2;recursiveResize=0;" vertex="1" parent="mu3TLzRvKkOABFL3PFfV-56">
          <mxGeometry x="39.5" y="270" width="180" height="60" as="geometry" />
        </mxCell>
        <mxCell id="mu3TLzRvKkOABFL3PFfV-78" value="Firebase&#xa;Crashlytics" style="shape=image;verticalLabelPosition=middle;labelBackgroundColor=default;verticalAlign=middle;aspect=fixed;imageAspect=0;image=data:image/png,iVBORw0KGgoAAAANSUhEUgAAAlgAAAJYCAYAAAC+ZpjcAAAACXBIWXMAAAsTAAALEwEAmpwYAAAAAXNSR0IArs4c6QAAAARnQU1BAACxjwv8YQUAAC8MSURBVHgB7d3Nk113eSfw53TLNnHicXsUYHAyoRUTJ1WWCjlsQhGCtMgqUxWTVXaIv8DyX2B7OSuLv8D2bnZyqmZWWUgGUswmoSlJkxqD6PYkwYEAbpdD8Ev3PXN+t69kvXX3fTkvv3PO51N1ubJsQ2Hfvvd7n+f5Pb8IAAAAAAAAAAAAAAAAAAAAAAAAAAAAAAAAAAAAAAAAAAAAAAAAAAAAAAAAAAAAAAAAAIBFbZ+JV358Oq4EQAaKAOix7bOxUe7F5TLi3PQ3irj01LV4IQA6tBYAPVWFq83Jfnz/drhKyri4fTpeDIAOqWABvVSFqHOTIi5XgWrjQX9+rYwLp27E6wHQAQEL6J0qXD0/ibh0zF+2u1/G+advxFYAtEyLEOiVNMw+R7hKNtbX4nJqIwZAy1SwgF64b5h9XkXsrK3Hs6e2YjcAWqKCBWTvgcPs8yqrv3cvXg2AFglYQNaqcHW2CldXUlCK5T13s2otBkBLtAiBbB13UnBhZbzw1I255rcAViJgAVma86Tgwqqy/flT1+NqADRIixDIzs3T8WIT4Sqp/nudLAQaJ2ABWbl5sIX9pWjORprpErKAJglYQDZunpme9nspmnZwsvByADTEDBbQuaV3XK2qiNeeuhbfDICaqWABnUrhqqomXWk9XCVlXHAxNNAEFSygM7MFoqvuuFqZi6GBuglYQCdyCVczLoYGaqVFCLQus3CVuBgaqJUKFtCqDMPVJ1wMDdREBQtoTdbhKnExNFATAQtoRfbh6hPPOVkIrEqLEGhcj8LVJ1wMDaxAwAIa1ctwNeNiaGBZAhbQmD6Hq5ndtRPTofedAFiAGSygEQMIV8mti6E3AmABAhZQu4GEqwPV/4fSxdDAggQsoFaDClcz6Z7Em2filQCYk4AF1GaI4eq2Mi5a3wDMy5A7UItBh6s7uBgamIeABawsDYFP9qpwFXE2hs/F0MCxtAiBlY0oXCUuhgaOJWABK7l5Znp331jC1YGDOwsvW98AHEbAApa2nU7WlXEhxunsZN/JQuDBBCxgKTdPx4uTMi7GmFXh0slC4EEMuQMLu3kQKl4KppwsBO4lYAEL2X4mvjEp4rXgLvtlPOtkIXCLgAXMbftsnJ3sxfeD+xWxs7Ye510MDSRmsIC5zBaJupPvMOXBolUnC4FEwAKONZYt7StzMTQwI2ABx0o7n4Sr+bgYGkgELOBI2wdhYVyLRFdVxsWbz4x8hQWMnCF34FDWMaym+gZ7/tT1uBrA6AhYwANtn47nJxGXglXsrp2IZ50shPERsID7WMdQo4P1DSlk7QYwGmawgLtYx1AzJwthlAQs4C7WMdTPyUIYHwELuG16YlC4akYZF10MDeNhBguYcmKwHWURX//CtXgjgEETsIB0YvDcJKrWIG3Y3S/jvIuhYdi0CGHkpkPtRbwatGVjfS0up3/uAQyWgAUjZ6i9A+li6L1pyHIxNAyUgAUjZqi9U2ercOtkIQyUgAUjNd3UXrovr1NlXHCyEIbJkDuM0GyZ6PerD3gtqgysVUHr1I14PYDBELBgZNLczyxcbQa5cLIQBkaLEEZmOvcjXOXGyUIYGAELRiTNXaW5nyA/ThbCoAhYMBLTuauIS0HOnCyEgRCwYARmc1c2tfeBk4UwCAIWjMF+9YFt7qo3qkrjS9vPxDcC6C2nCGHgfnQmLhSlq3D6aL+MZ50shH4SsGDAZvuuXIXTV0XsrK3H+VNbsRNAr2gRwoCVe1XlSrjqr/IgIDtZCP0jYMFA3TwdL5YR54J+O1jfoMULPaNFCAM0bQ3uxXYwGNW34ZdOXY+XA+gFFSwYICsZhiedLLz5jMu5oS8ELBiY1Bo0dzVQRbyyfVrbF/pAixAGpGoNnq1ag98Phmx37UQ862Qh5E0FCwZitq39cjB0G04WQv4ELBgK29rHo/r3XO4J05AzLUIYgDSXMwmD7aNTxKWnrsULAWRHwIKem7UGv696NVJlvPDUjbgUQFa0CKHnJnvxvHA1Yk4WQpZUsKDHLBRlxslCyIwKFvSYhaLMOFkImRGwoKcsFOUuThZCVrQIoYe0BjmUk4WQBRUs6KGqUvFqwIOUcdGdhdA9FSzomR+diQtFKWBxtOrb8/lT1+NqAJ0QsKBHpq3BNNhu9orjOVkIHdIihB6ZuA6H+TlZCB0SsKAnUvWqClcXAublZCF0RsCCnrDzimWUEedunolXAmiVgAU9kAbbtQZZmpOF0DpD7pA5g+3UxclCaI8KFmTOYDt1mURcns7yAY1TwYKM2dhO7YrYWVufrm/YDaAxKliQsSpcGU6mXk4WQisELMjUdLA94rmAmjlZCM0TsCBTVf/+xYCmOFkIjRKwIEPWMtCKIl7ZPh3nAqidIXfIjLUMtMydhdAAFSzIzX48L1zRIncWQgMELMjItHpVmouhZU4WQu0ELMjIdKkodMDJQqiXGSzIhKWiZKGMF566EZcCWIkKFmRC9YosFPHKW8/E2QBWooIFGfjh6ThXfdu5EpCDg+t0zjtZCMtTwYIMWCpKVsqDVSFOFsLyBCzoWFoqWgWscwE5Kaczga8GsBQBCzqmekXGnts+7fUJyxCwoEOuxCF3k4iXtp+JbwSwEEPu0KGbZ2JbwKIHdvfLOP/0jdgKYC4qWNAR1St6ZGN9LS6nXW0BzEXAgo6YvaJXDobeLztZCPMRsKADqlf01NnJvut0YB4CFnRA9YreKuOCk4VwPAELWpa2tqte0WdOFsLxBCxomeoVQzAp4pI7C+FwAha0KFWvbG1nIJwshCMIWNCitUJbhQGZnSwM4D4CFrRk+k2/jAsBw3L25hknC+FeAha0ZLJv9oqBKuPizWfiYgC3uSoHWpCqV1UrZTtgwKpv7OdPXY+rAahgQRtUrxiDSRh6h1sELGjY7GqRcwHDt1F9mbjiOh0QsKBx+/vxnMWijEb1Wi+dLAQBC5pmsShjU1YVWycLGTsBCxrkUmdGy8lCRk7AgiaVFosyYkW84jodxsqaBmiI1QwQ6VNmZ209zp/aip2AEVHBgoZYzQBx+zodJwsZGwELGuBaHLjL2eoLh6F3RkXAggbs79t7BXepvnBsn1bVZTzMYEEDbp6JbacH4X5rVdA6dSNeDxg4AQtq9sPTca4qDV8J4EF2107Es4beGTotQqjZWmE1AxzBdTqMgoAFNTLcDnNwnQ4jIGBBjQy3w3xcp8PQCVhQI/cOwgJcp8OAGXKHmhhuh+VUPzfnT12PqwEDooIFNTHcDsuZFPHqdH4RBkTAgrqU8VwAi3OdDgMkYEENfnRmenLQhwMsz3U6DIqABXUotQdhZa7TYUAMucOK0uxI1d7YDqAWrtNhCFSwYEV2X0G9JkVcMvRO3wlYsCK7r6B2rtOh9wQsWEH1AXA2nYAKoF6u06HnBCxYQfUt+/kAGuE6HfpMwILVnAugOa7ToaecIoQluRoHWrO7X8b5p2/EVkBPqGDBklyNA63ZWF+bbnrfDOgJAQuWdy6AdrhOh54RsGAJqT3o9CC0Ll2nYy0KvSBgwRK0B6Ejht7pCQELlnMugG4U8cr2aT+D5E3AggVpD0L3JmHonbwJWLCg6ofmuQC6tmHonZwJWLCoIv4ygBykoXeb3smSgAULcPcgZKaMC9unnSwkPwIWLGDyscFayM0k4iVD7+RGwIIFlNqDkCVD7+TGXYQwp/TmPdmL7QDyVMTO2no8e2ordgM6poIFc9rf14KArB1cp/NqQAYELJhTVe7VHoT8PWfonRxoEcKcbp6Od6snO3egB8oivv6Fa/FGQEdUsGAOPzw4oSRcQU8UZbxq6J0uCVgwB9vboXc2JvtxxaZ3uiJgwXy+FkC/GHqnQwIWHGPWZjgbQB8ZeqcTAhYcY39fuII+S5vef3RGm592CVhwDOsZoP8MvdM2AQuOdy6AvjP0TqsELDjC9Btv6VsvDEIaet+PVwJaIGDBEVyPAwNTxgVD77RBwIIjmL+C4UlD79unfXmiWQIWHM0JQhigKmRdNvROkwQsOET15nvW/BUM1sZkbxqyDL3TCAELDmH/FQze2cm+eSyaIWDBIQrX48DwlXHx5jNxMaBmAhYcplTBglEo4pW3nvHzTr0ELHgA9w/CuKyvGXqnXgIWPID5KxiZMjbLvXg1oCYCFjxAUdqRA2NTRpy7ecamd+ohYMEDVG+0XwxgfMq4uP1MfCNgRUUA97l5OmUsYKR2107Es6e2YidgSSpYcI8fukIDxm5jsh9XLCFlFQIW3GPNegagjM0qZJnHYmkCFtxrzfwVEClkXbCElGUJWHAvFSzgFktIWZIhd7hDmrmY7MW7AXBLETtr69Oh992AOalgwR329nxTBe5xsIT0csACBCy4gwF34EHSEtLt0/FiwJwELLiTAXfgEJOIl7atcWFOAhbcoSxd9gocblLEqy6FZh4CFtyhCN9OgSO4FJo5CVgwU30rNX8FHMul0MxDwIKZ/X1lf2BO6VJo81gcQcCCmcIJQmAB5rE4ioAFtxROEAILMI/FEQQsuMUJQmBB03ks9xXyAK7KgZmbp9N7JcDiqmrF+VPX42rAjAoWhBOEwGpm81gbATMCFoQThMCKytic7FvdwCcELAgnCIEalHHBPBa3CFiQOEEI1KGIF61uIBGwIKZ3EJqdAOqwYXUDiYAFMT1Oq0UI1MLqBhJrGhi9dPJnshfvBkCN9st49ukbsRWMkgoWo7e3p3oF1G+90CocMwGL0SsK81dAI87ePGN1w1gJWIyeFQ1AY8q4uH06zgWjI2AxemXhSDXQHFvex0nAgjI+HwBNOdjy/mIwKgIWo1eEb5ZAw6pW4VvPGEcYEwEL7MACWuBU4bgIWIyauQigRWdvno6XglEQsBg1O7CAlj3vrsJxELAYNTuwgJa5q3AkBCxGrZj4Jgm0y12F4yBgMW4qWEAXinjRDOiwCViMmiWjQEc2Jvuu0RkyAYtxs2QU6EoZF1yjM1wCFgB0ZGI31mAJWIxaoUUIdKmMTbuxhknAYtxKAQvonN1YA3QiYA7l92Y//Huz53J6+uWTEzBr1a/LQ07ElLFzxx/tRlE9Dv6e3enjU7FbPDv7vRalEzyTvQDoWnovSgPvXw8GowhGbRqcUmhKlZzULlubDn1vzCo7B6GpvVUGOxHToJVC2E5M4u1pGCtjKwWx4ivVc43SN8bqTW07ADJQtZTOn7oeV4NBUMEagfL7VUD69zg7DU0n4ovT53J6Rcxm7MdBzL4Vtct7/uZ2I/jm7V+Vd/xvFwd/XH53+pzC19Y0gJXxg1XC114VLPXIgVxMYlrFejYYBBWsgZlWpD6Oc/cFqaG7FbzWqkeqfFXBq/jq0d8Ef3g6zlUB60oA5KKMF566EZeC3hOweux2ZWotvlb9UJ6bhimbye91dRq69uLNeKgKXV/+ZB7sR2fiQlE6Ig1kZXftRJw6tdX+XCr1ErB6ZBqo3p9Wp75WVWnOVb91NljUzrTSFfE3//Lf44sf/th9YEB2Xn7qutUNfSdgZa78ThWkblWowsbfWv0kYu+tiF+/E/GrtyM+qJ4nHwZA52ZVrJ2gtwSsjE3nqfanM0KbQf2qgBXv3P1bKWT9aucgcO29HwCdqD6cr/7+9Tgf9JaAlbHy7+LVdFdV0Ix/qh4/O/xPp4CVgtb7P4z46OcB0CprG/pNwMrUrHplR1OTdqrHL+b7S4UtoG2qWP0mYGVK9aoFNyOWOaeTwtZ717URgeapYvWXgJWhKlylpaDfD5r1VvVYMSClma333zp4ANSuiJ2nrsWpoHcErAyV350Otp8LmlVDwLolVbLSacR3/0FVC6hXWcQ3v3AtXgt6RcDKTFW9uhCWX7bj/1SPX0ftVLWAWlVVrLX1eNby0X5xFVtuyngxaMd+NOJTn4v49Ncifu+vI574UsSJxwJgeeX0YnpLkXtGBSsjqlctu1Y9PopWpGqW9iGwAlfo9IwKVk5UrwbrsacPKlqpsvXwbwfAojZUsfpFBSsTqlcd+PvoTJrT+mVV0frgJwEwL1WsHlHByoXq1aikOa0n/6J6/Lfq108GwDxUsXpEBSsDqlcd6bCCda9U0frZm2a0gGOpYvWEClYOVK9GL1W0bs1oOXUIHEEVqydUsDqmetWhjCpY93LqEDiCKlYPqGB1rYxvBNwjnTpMM1qPnwmAe21MPnZXbe5UsDpUfifOVf8GrgTtS0tGt6IXUhUrVbNshgduc0dh9lSwurSmetWZhra4NyHNZKXZLPNZwG1lbP7oTDwXZEsFqyPl92Kz+pDfDrqRNrhfi15K1ax3M54fA9pRfYBf/f3rcT7IkgpWVyZODrKcJ/744MShahaMWxlxbvt0nAuypILVAdWrDPS4gnWn964fVLMmLd2pCORFFStfKlhdmPjGQT0ePx3xu39lGzyMlSpWvgSsLlgs2r2HYzBSqzCtdDj55eoHekD/v4D57Idh9xwJWC2bLhaNqkUINbtVzTKbBeNStQm/sX02NoKsCFhts1iUBqVwlQbgn/hSAOPh+pwMGXJvkeH2zAx81cGHv4j46d+6bgdGYvep6/FEkA0VrDZZzUCLHjl5MJuVrt0BBm/DsHteBKw2lV78tOvWFngtQxi+MnyJz4mA1RLD7Rlaj9FIy0l/xwA8DNp0ZcMzcTbIgoDVFsPt+RlRwEputQwfPhnAQE0KKxtyYci9BYbbM5U2uY90A7r7DGGwdtdOxKlTW7EbdEoFqw2Oz5KZ1DJMi0mBwdnY3zfvmwMBqw1F/GWQn0di1NJiUnNZMDxrZTwfdE7Aalj5nek3ic2ADN2ayxKyYDimw+5/5HOnawJW09YMt2drZEPuh7l1l6HhdxiOyYnpyXU6JGA1rXSiI1sC1m0pZKV7DC0lhcHQJuyYgNWg2e4rF3DSG5aSwmDY7N4xAatZhttz9nDwAOmEoZAFA2D/YqfswWpIeaWqXD0U7wb5+kn1eCc4hF1Z0Ht2YnVIBaspD5u9yt7I1zQcJ1WyUssQ6K20E8tnUUcErOZoD9J7aehdyIL+WtMm7IwWYQO0B3siFc1vBnN4/62If3szgP7RJuyIClYT1p3c6AVD7nNTyYLe2ph8bCdWFwSsJqxrD/bCiWABQhb0U+G6tk4IWE2wXLQfLBpdmJAF/TO9OuesnYxtE7BqNrt70Au5DwSspQhZ0D9OE7ZPwKqfF3GfmMNaSgpZJ78cQE84Tdg+Aatuet39ooq1tMdP2/gOfVG1Cc9qE7ZLwKpR+b3YrJ42g/6wbHQlrtWB3tiIvTgbtEbAqtPEeobeUcFaWQpZqWUIZE6bsFUCVr20B/vGDFYt0tD7p54MIGOTwoxwmwSsOpUqWL2jRVib//LnESceCyBfG9unfU61RcCqifUMPaVFWJu1qhr45F8IWZCzSQhYbRGw6nMu6B8twlqlcPXZPw8gU0WELXYtEbDqUnjR9pLrcmr3yEk7siBXtrq3R8Cqz7mgf1SwGpF2ZD1+JoAM2ereDgGrBrP5K/pKyGrEyT9xshBytD7RcWmDgFWPc0F/PRo0xMlCyM9kzWdWGwSsOpi/6jcnCRuTThYaeofMlLG5/UduHWmagFUP1w/0mRZhowy9Q34m6+awmiZgrcj+qwGwbLRxaejddTqQj+rD/4tBowSsVRWqV733G0ELUhXLPBbkwRxW8wSsVZm/6j8VrFaYx4KMmMNqnIC1qtILtPfWw6B7S8xjQT72H1LFapKAtYLyynT2SotwCAy6tybNY9mPBRkofX41ScBaxQkvzsGwC6tVn/mzg5Yh0B33EjZLwFqFAffh8GHfqjTs/sSXAujWWfcSNkfAWoUB9+Ew6N46rULIwJ5CQVMErFUYcB8Oqxo6oVUI3ZqYw2qMgLUkA+4Do4LVCa1C6JaFo80RsJZlwH1Y0poGlZROaBVCdywcbY6AtSwD7sPjJGFntAqhI2nhqEH3RghYyzJ/NTw+4DujVQgdMujeCAFrWYW+9eCoYHUqtQofPhlAywy6N0PAWp4X5NC4iLhzrtGB9hl0b4aAtYTZCUI966FJLUJ3EnbqNz5X5dynA2jRxExxIwSsZThBOFzmsDqXqlgG3qFVm0HtBKxllKpXg2UOq3MpXD1+JoD2bGz/kZBVNwFrGcqpw2WjexbSwPsJM3HQmv2HfK7VTcBaRiHpD5YKVhZSFcvAO7SnmPhcq5uAtZzPB8MkYGXjNz9vwzu0pVQ4qJ2AtZzNYJhcmZOVJ/44gDZYnl07AWs5m8Fwmf3JRlrboIoFzSvW7MKqm4C1oPJ7wtXgGXTPiioWtEAFq3YC1qL2vAgHTwUrK6pY0A6rGuolYC3KDqzhezR2bXTPiyoWtOCEgFUnAWtRdmCNwYbThHlRxYLm7TtJWCsBa3EqWGNgDis7qljQrMIcVq0ErEWt2YE1CipY2VHFgmatlT7f6iRgLcoM1jj4t5wlVSxozn71IxbURsBanI/eMbBwNEuqWNCcolDBqpOAtbjNYBysa8iSKhY0pFBAqJOAtTgvwLEw6J4lVSxoiCH3WglYCyivCFejYhohW7+pkQGN2D7rc64uAtYiPuWFNyppBsvC0Sw99nT15mVGDur3gc+5ughYi3BNzvh4q8lSClePnwmgbuve9eoiYMFRzGFl6/HTAdTNoHttBKxF2IE1PuawspWqWIbdoV6uy6mPgLUYAWtsHg77sDJmZQOQKwELjmMfVrbSygbD7lAf9xHWR8BahNLpOAlYWTPsDuRIwILjaAxnzbA71Kf0jlcbAQuOk3ZhqWJly7A71Ge9jMeDWghYMA/rGrJmszuQGwFrEWawxkvRPGs2uwO5EbBgHqlF6NqcbKVw9fBvB0A2BCyY13+K3SBbdmLB6kqdmtoIWDCvxzUKc/bISW1CIB8CFsxLvMpaCle/uRkAWRCwYF7WNWTv0c0AyIKABYv4rSBjrs4BciFgwSJOGnTPmdOEQC4ELFjEI7ERKiRZs3QUyIGABYsy7J61tHQUoGsCFixKwMqaNiEsryhjJ6iFgLUILzwSW92zl4bdAbokYMEyTgYZe9QcFtAxAQuWoU2YNVvdga4JWIsoHNFnRpswa+awYDmTIt4OaiFgLWIiYHEHbcKsWdcAdEnAgmVpE2btYQEY6JCAtRgVLD6hTZg11+bA4srCafm6CFiLMIPFvT4TZMwcFtAVAWsRawIW93gsyNgj2oSwkHX7HmsjYC1CwOJej4WQlbFPWTgKdETAWsQHAhYP8FtBpmx0hwXtqWDVRcBaQHFewOIBPhtkKg25n1BhhPl9yudcXQSsxe0E3CmdJPQhni1VLJjfqS0Bqy4C1uK8+LifYeps2YcFc7KioVYC1uIELO6Xlo7aiZUlAQvmVPp8q5OAtTj3NHG/FK58kGfJqgaYT6GAUCsBa1ESPodxdU6W0qC7je5wvMIOrFoJWIvSo+YwadD9UQE8R596MoBjTAodmjoJWIua+ADlCI+rY+XoIac84Xg6NLUSsBa1HlsBh0k7sQy7Z+eEZbBwrHJNh6ZOAtaiXJfDUezEypJlo3C89YmAVScBa0HFl70AOcZngsw88p8DOM5DPt/qJGAtZyfgMC6Azk6qYDlJCEfatcW9XgLWMgpzWBzj8SAza48EcLidoFYC1jLKeC/gKL8dht0zY6M7HK4srWiom4C1HBUsjmaze3asaoAj2PFYOwFrGU5aMA8bsbJiVQMczhb3+glYy3hIBYs5GHbPyroZLDjUmtni2glYS7Cqgbl9LsiEChYc4YSAVTcBa3k7AcdJFSzrAbIgYMGhrGhogIC1LOVU5vVpb1w5sKYBHqxwcKsRAtayJo60MqdPx4aVDd2zaBQebBLxg6B2AtaySomfOaVw5fqcLLiTEO7nBGEzBKxlPRRXA+b12bB4FMiSE4TNELCWNDtJaLaG+aRwZS9W51Sw4AGcIGyEgLWanYB5fUYg75o5LLiPE4QNEbBWYzCQ+T1a1bBUUDq1LmDBXZwgbI6AtRovTBZj8SiQkTLizaARAtYqCoPuLMj1OZ0ygwV3Kw24N0bAWsVHZrBYgioWkIn1dQGrKQLWCorz08FAL04Wo4oF5KCInVNbCgVNEbBWVepfswRVLKBj5cRBrSYJWKuy0Z1lqGJ14iH/zOG2IswRN0nAWpWN7ixLFQvokA3uzRKwVmSjO0tTxQI6dOq6AkGTBKw6WNfAslSxgA5oDzZPwKqDQXeWpYoFdGDiJpLGCVh1UMFiFapYQMvWI94IGiVg1aD4ynRQ0BwWy1HFas3+hwEkJwy4N03AqosqFqtQxWrF5KOA0UvzV6e2FAWaJmDVxRwWq1DFAlpi/qodAlZd1vWzWdHv+kYJNM/8VTsErJrYh8XKHo2NOBk0SIsQ7L9qi4BVr78JWMWTMf16STMmhtwZOfuv2iNg1WnihcuKHq4enwmARpSlQkBbBKw67etrU4PPhipWQz7+94BRW3vI51RbBKwaFeenM1hXA1aRwtWTAVCvInZObU3nhWmBgFU/5VdWl9qEDwc123s/YMyuBq0RsOpmXQN12QxqZsidMVsr4/WgNQJWzWbrGnYCVmX5aO2saWDEdq1naJeA1QSnNKjLZlAT4YpRK3RX2iZgNcMLmXpY21Ab81eMWWk+uHUCVgOKr07LsLa6Uw/LR2uhgsWYra9rD7ZNwGqKYULqYm1DLfbswGKk0nLRU1u+9LdNwGqONiH1SW1CA+8r+ViLkLFa83nUBQGrIdqE1O5zwQrMYDFW69YHdULAapI2IXVKFSwD70tzTQ5jpD3YHQGrWb41UC8D70sz5M4oaQ92RsBq0KxNuBNQlxSuPu/b6DI++nnA2Ox+4Vq8FnRCwGqaNiF1eyI2DLwv5qNfBIyP5aKdErCadsK3BxqwGVqFC9AeZIzcPdgtAaths7sJrwbUyYb3hXyogsXYFLHj7sFuCVjtcEUB9UsD748Gc7BklLEp3YnbOQGrDR9P24QGk6nf7wZzUMFibNZPxKWgUwJWC4rzVbjSC6cJdmPNxQlCxqSIuHpqywn2rglY7XGag2akVuHDwSHSCUJD7ozJpPCFPgcCVktmO7G2AuqWThNuBoewwZ1RKWLH7qs8CFhtMnRIU7QKD2UHFiNzNciCgNWmvenQoWF3mqFV+EC/fidgNNbW4+UgCwJWiwy70yitwgcy4M5YGG7Pi4DVPsPuNEer8C577xtwZzwmRXwryIaA1bLZsPvVgKb817CAdObDXwaMw8Fwuy/wGRGwulDqkdOwz4e7CisfmL9iJMrwuZIbAasDsyqWYXeakypYT8bo2eDOSOyur+uM5EbA6kqpV07D0izWYzFaafbqg58EDF8Rbxhuz4+A1RUrG2jDZoy2VWj/FWNhNUOeBKyOzFY2qGLRrLQXazNG6VdvBwxfEa+pXuVJwOqSKhZt2IhRrm4wf8UYqF7lS8Dq0LSKFa7PoQUj2/Ju/ooxsFg0bwJW19bjpYCmpTmsP4zRzGO5HocxKKxmyJqA1bHiy9W3j8JyOFqQKlgjWd3wHzsBgzatXl23miFnAlYOJobdaUmaxToZg6eCxdC5Fid/AlYGXJ9Dq9JVOgOex0rrGdIdhDBYrsXpBQErF67PoS0Dn8dSvWLoXIvTDwJWJlSxaNWA57Hsv2LQDqpXrwXZE7ByUsQLAW35TAxuP1ZqDVrPwJCtlfHNoBcErIwUX4mt6un1gLakeaxHYzC0BxkyJwf7RcDKjb1YtO2pGMzQ+/s/DBisvVKXo08ErMxM92K5o5A2DeS+Qu1BBq2I156+Me1y0BMCVo72plUsdxTSnsfioF3YY9qDDJk7B/tHwMrQ9I5CVSza1vOhd+1BBquqXrlzsH8ErFztxaVQxaJtaXVDD4fetQcZMtWrfhKwMjWtYlnbQNvS8tEeDr1rDzJgL6te9VMRZK38blypns4FtOk/qsdb1WM/euGfL0d89POAYSli56lrcSroJRWs3LlChy6kNmFPht7T3YPCFUPkSpx+E7AyN71Cp3CpJx04WT0+F9l773rA8LgSp/cErD5Ym85iGXinfWno/WRkzfwVQ7S2HueDXhOwesDyUTqV8XU67791cIIQBsVahkEQsPriYG3DTkDbMj5ZaPcVg1O1Bq1lGAYBqydmy0fdok43Urj6wzgIW5mw+4ohKq1lGAwBq0cMvNOpFLKejmxC1rv/EDAsBtsHRcDqGwPvdCmT9Q2pepXmr2BIDLYPi4DVM9OBd7tR6FIG6xucHGSAtAYHxib3nrLhnc6l+aeOgs7/+x9ODzIgNrYPkgpWX61PB961CulO2pH1mWid1QwMzcQBpkESsHrKbiyykOaxWl5EaridISkjvvUH1+NqMDgCVo8VX42XqqetgC61uIj0V2+rXjEgVWtw/cT0fZwBErD6rlBapmNpbUNa39BCyHLvIEOSWoOntox6DJWA1XPFV6YVrBcCutTCtvcP3rFYlOHQGhw+AWsAij+dXqNzNaBLt7a9NxSyfmn2iqHQGhwFAWsonCokBw2FLNUrhiQtFNUaHD4BayAsICUbDYQs1SsGxELRkbBodGDKv4vLVXP/uYCufVQ9/u/seQWpevWT/xnQfxaKjooK1tB8NG0V7gR0raZK1s/eDOi/InbdNTguAtbAFOervr6twORixZBlaztDUUa8oDU4LgLWABVfjau2vJONFUKWre0MQVrJ8IVr8VowKgLWQFUh62JY3UAulghZqlcMgpUMoyVgDZnVDeRkgZCVgpXqFb03m7uykmGcBKwBm10I/fWAXMwZstKVOKpX9N1kYiXDmAlYAzebx7Ifi3wcE7JSsHLnIH03vQrnxvSWDUbKHqyRKL8bV6qncwG5OGRP1r+9eTB/Bb1l3xWhgjUeH09bhTsBuXhAJSsFK+GKXqvClX1XJALWSEz3Yx380Bu2JB+3QtajB39osJ2+q8LV181dkQhYIzIdei/ihYCcpJD1dMR71jLQf2mofSsgBKzRKb4Srxl6Jzt7EY9tVoWszYBeSkPtT12374pPGHIfqfLbVdBai28E5OBa3B52/8X/rqpZ1wL6ZKsKV88G3EEFa6z2p5velbLp3s/irpOEJ/8k4okvBfRDGmo/Yd8g91PBGrHye7FZBa20vmEzoAsfVo9/jBT475MG3t/9+4B8HWxqf9ZQOw+igjVis6H39M3LyUK68XY8MFwlT/xxxKe/FpCt2TU4OwEPIGCNXPGVqk04md5ZCO1KrcFjTg0+9nTE7/xVxInHArIyKeMFJwY5ioBFFH8Wb1RP1jfQntQa/Kf5/tJHTkY8+RdCFll52TU4HEfAYqr40+rNwvoG2rLgtvYUrlLIevhkQKesY2Behty5S/mdKmgV8XxAU96pHj+JpVnjQGeKeOOpa04MMh8VLO5SfDUuxiReD2hCmrlaIVwl1jjQka21dfOqzE/A4n52ZNGENHe1E7VIJwxPfrl6A3s4oHkHu67SiUEnrpmbFiEPVF6JjXhouiPrbEAdbkbtC0HS3YU/+V/uMKRBKVxZx8ASBCwOZREptVlx7uooKVz9699GfPSLgHoJV6xAwOJIQhYrS9WlBU8NLsPwO7USrliRGSyONN32Xr3JRHiTYQk1zl0dx/A7tRGuqIEKFnNRyWIpqaL0UbTqw6pV+NO/NZfFkoQraiJgMTchi4X8c/X4aXTCXBZLEa6okYDFQoQs5tLgUPsi3v2H6vH3AccTrqiZgMXChCyOlFYx3IxsvP9WxC++FzFpuVVJjwhXNEDAYilCFg+Uhtr/MdKy2qzYl8WhhCsaImCxNCGLu6RwldYxZFopShWs1DK0yoHbhCsaJGCxklnIuhw2vo/bXhxUrnrQhtMyZEq4omECFitzrQ5NXIPTJC3D0dtaOxFfF65okoBFbcpvx2uxFt8IxqXDdQyrcspwfKoPvavFQbhycTONErCoVfmduFS9qp4PxiGTdQyr+NXbBy1D1azhK4t4/QvX4kJACwQsaleFrJeqV9aLwbANIFzdksJVqma938KdiXTm5aeuV+9N0BIBi0aU342L1dMrwTANKFzd6b3rBy1DA/CDI1zROgGLxpTfjudiLV6tfrkRDMfPqsc/xWAZgB+QInbLSbzwhRvxWkDLBCwaZVfWwKS7/XZiFAzA99zBGoY0zL4V0AEBi8YJWQMxonB1i2pWT9lxRQbWAhpWfLl6k/s4no0yvhX00wjDVXLisYjf++uIJ74U9EURb1Th6lnhiq6pYNEqJwx7aKAD7YtSzeoFw+xkQ8CidYbfe0S4uo/ZrAwZZidDAhadMJfVA8LVoVIV62ffjvjAP5/uGWYnUwIWnZndYXip+qXrdXIjXM0lLSZNFS1tw2649oacCVh0zlxWZt6uHj8P5mQLfGfMW5E1AYsslH8XZ6OMy6Fl2J296vHj6qEasxR3GrakiN1JGV//g+txNSBjAhbZmM1lpeH3c0G7PqweqQLjipiVGYJvzqwl+E0rGOgDAYvsaBm27D+qx80QrmqkbdgILUF6RcAiS1qGLUkLRNO9gvtBAwzB16CInaol+E0tQfpGwCJbs5bhS+GUYTOcFGzNrWqWoLWgg63s33RKkD4SsMheVc26UFWzUstwM1hdGmb/l3BSsGXahgtIg+yTePkPbkzXuEAvCVj0ggH4mhhm75wlpUczyM5QCFj0SvnduFg9vRIsLjVZdsK8VSbMZ91D1YqBEbDoHdfsLOGfq8dPgwwJWqpWDJOARW/NqllpNsul0YdJLcG0guHXQcYmVcv2vesjHIRXtWLABCx6bVrNmlQtwzKeC+6mJdg7YxqEV7Vi6AQsBsFJwzukU4L/GlqCPTbooKVqxUgIWAyGvVlxcI/gTjglOBBDC1plxLfWT8RL9loxBgIWgzPaLfAG2QdrAEFraxLxgm3sjImAxWDNhuCfj6EHrXSX4E4YZB+B3gUt7UBGTMBi0AbdNkyzVv8WrrsZoT4ELe1Axk7AYhQGtwnerBWRZ9BKpwP3o6paaQcycgIWo9L704ZOCPIAKWi9dyPiVzsd7tEqYmdSxjcFKzggYDFKvQxaP4uDdqC9Vhxi8mEVst5ueTN8mrMq41tVsHopgNsELEZr2jbcq4JWMQ1a+UoflO/MnmFOjV/BMwtWJ07EJXNWcD8Bi9HLdhA+XXOTgtUvApb2wTsHYau2OS3BCuYiYMFMNkHr1unANGelHUhNbg3E//qdFapaRby2th4vCFZwPAEL7tFp0EoVK8GKhi3cPjwIVi+7NxDmJ2DBIVoNWqkNmAbYrV2gRUe2D7UCYSUCFhzjjqD1taj71KFgRQZSJSu1DqdVrX8XrKAOAhbMaRq0JnGulvUOghX52a1e39/aeV2wgjoIWLCEpfZopeH1X8bBjJVgRS6KuFpVaL9VvBBvBFAbAQtWUH6nqmgVVdg6ak7LqUBydBCsXq6C1dUAaidgQQ0eOKeVTmilRktqBwpW5GHaBqyeL1XBShsQGiRgQc2m7cMfVxWtXw7kYmn6T7UKWidgQUPKV6pK1lpDpw/heKpV0CEBC1pQha1zVdi6ELldx8PQ7N4xtH41gM4IWNCiKmhtVE/PxXoVtEotRGpyEKr+pvrVa6pVkAcBCzoybSFGFbKELZYhVEHWBCzIgLDFXA5C1ZtxEKp2AsiWgAWZEba4i0oV9JKABRmbzWylAfnnwmnEsUiD6m/MKlVvCFXQTwIW9EgVuM7GQXXrL1W3BuST1t9Vp/9gGAQs6KlZdevstLpVxBcFrl7Zqh5vxmR6/9+WKhUMj4AFAyFwZSu1/Laqfx8/qALV1TioUglUMHACFgzYdMFpCl3r8bXqA35z+muatjNr+f0gDipVKlQwQgIWjMjtKpfQVZc7w9ROqE4BMwIWcGt4Pt2deHbWXtwMwetOO7M239tVm29alUq/J0wBhxGwgEPNgtet2a7N6h3j87PwtTn7/aHYjU9mpVKI2omDilQKUruCFLAoAQtYyqzduBkxe16b/bqIx6d/XE5//9Zf05Wd6X8WtwNT3BGgdme/pxIF1E7AAloxC2R3PuKeXx9YOyKQTWaVprvtzJ5v/znXyAAAAAAAAAAAAAAAAAAAAAAAAAAAAAAAAAAAAAAAAAAAAAAAAAAAAAAAAAAAAAAAAAAAAAAAAJCR/w+4WK4xfGFFmgAAAABJRU5ErkJggg==;fontColor=#999999;labelPosition=right;align=left;spacingLeft=20;" vertex="1" parent="mu3TLzRvKkOABFL3PFfV-77">
          <mxGeometry x="11.379999999999999" y="12.5" width="35" height="35" as="geometry" />
        </mxCell>
        <mxCell id="mu3TLzRvKkOABFL3PFfV-79" value="" style="strokeColor=#dddddd;shadow=1;strokeWidth=1;rounded=1;absoluteArcSize=1;arcSize=2;recursiveResize=0;" vertex="1" parent="mu3TLzRvKkOABFL3PFfV-56">
          <mxGeometry x="320" y="150" width="180" height="60" as="geometry" />
        </mxCell>
        <mxCell id="mu3TLzRvKkOABFL3PFfV-80" value="Firebase&#xa;Authentication" style="shape=image;verticalLabelPosition=middle;labelBackgroundColor=default;verticalAlign=middle;aspect=fixed;imageAspect=0;image=data:image/png,iVBORw0KGgoAAAANSUhEUgAAAlgAAAJYCAYAAAC+ZpjcAAAACXBIWXMAAAsTAAALEwEAmpwYAAAAAXNSR0IArs4c6QAAAARnQU1BAACxjwv8YQUAAC8MSURBVHgB7d3Nk113eSfw53TLNnHicXsUYHAyoRUTJ1WWCjlsQhGCtMgqUxWTVXaIv8DyX2B7OSuLv8D2bnZyqmZWWUgGUswmoSlJkxqD6PYkwYEAbpdD8Ev3PXN+t69kvXX3fTkvv3PO51N1ubJsQ2Hfvvd7n+f5Pb8IAAAAAAAAAAAAAAAAAAAAAAAAAAAAAAAAAAAAAAAAAAAAAAAAAAAAAAAAAAAAAAAAAIBFbZ+JV358Oq4EQAaKAOix7bOxUe7F5TLi3PQ3irj01LV4IQA6tBYAPVWFq83Jfnz/drhKyri4fTpeDIAOqWABvVSFqHOTIi5XgWrjQX9+rYwLp27E6wHQAQEL6J0qXD0/ibh0zF+2u1/G+advxFYAtEyLEOiVNMw+R7hKNtbX4nJqIwZAy1SwgF64b5h9XkXsrK3Hs6e2YjcAWqKCBWTvgcPs8yqrv3cvXg2AFglYQNaqcHW2CldXUlCK5T13s2otBkBLtAiBbB13UnBhZbzw1I255rcAViJgAVma86Tgwqqy/flT1+NqADRIixDIzs3T8WIT4Sqp/nudLAQaJ2ABWbl5sIX9pWjORprpErKAJglYQDZunpme9nspmnZwsvByADTEDBbQuaV3XK2qiNeeuhbfDICaqWABnUrhqqomXWk9XCVlXHAxNNAEFSygM7MFoqvuuFqZi6GBuglYQCdyCVczLoYGaqVFCLQus3CVuBgaqJUKFtCqDMPVJ1wMDdREBQtoTdbhKnExNFATAQtoRfbh6hPPOVkIrEqLEGhcj8LVJ1wMDaxAwAIa1ctwNeNiaGBZAhbQmD6Hq5ndtRPTofedAFiAGSygEQMIV8mti6E3AmABAhZQu4GEqwPV/4fSxdDAggQsoFaDClcz6Z7Em2filQCYk4AF1GaI4eq2Mi5a3wDMy5A7UItBh6s7uBgamIeABawsDYFP9qpwFXE2hs/F0MCxtAiBlY0oXCUuhgaOJWABK7l5Znp331jC1YGDOwsvW98AHEbAApa2nU7WlXEhxunsZN/JQuDBBCxgKTdPx4uTMi7GmFXh0slC4EEMuQMLu3kQKl4KppwsBO4lYAEL2X4mvjEp4rXgLvtlPOtkIXCLgAXMbftsnJ3sxfeD+xWxs7Ye510MDSRmsIC5zBaJupPvMOXBolUnC4FEwAKONZYt7StzMTQwI2ABx0o7n4Sr+bgYGkgELOBI2wdhYVyLRFdVxsWbz4x8hQWMnCF34FDWMaym+gZ7/tT1uBrA6AhYwANtn47nJxGXglXsrp2IZ50shPERsID7WMdQo4P1DSlk7QYwGmawgLtYx1AzJwthlAQs4C7WMdTPyUIYHwELuG16YlC4akYZF10MDeNhBguYcmKwHWURX//CtXgjgEETsIB0YvDcJKrWIG3Y3S/jvIuhYdi0CGHkpkPtRbwatGVjfS0up3/uAQyWgAUjZ6i9A+li6L1pyHIxNAyUgAUjZqi9U2ercOtkIQyUgAUjNd3UXrovr1NlXHCyEIbJkDuM0GyZ6PerD3gtqgysVUHr1I14PYDBELBgZNLczyxcbQa5cLIQBkaLEEZmOvcjXOXGyUIYGAELRiTNXaW5nyA/ThbCoAhYMBLTuauIS0HOnCyEgRCwYARmc1c2tfeBk4UwCAIWjMF+9YFt7qo3qkrjS9vPxDcC6C2nCGHgfnQmLhSlq3D6aL+MZ50shH4SsGDAZvuuXIXTV0XsrK3H+VNbsRNAr2gRwoCVe1XlSrjqr/IgIDtZCP0jYMFA3TwdL5YR54J+O1jfoMULPaNFCAM0bQ3uxXYwGNW34ZdOXY+XA+gFFSwYICsZhiedLLz5jMu5oS8ELBiY1Bo0dzVQRbyyfVrbF/pAixAGpGoNnq1ag98Phmx37UQ862Qh5E0FCwZitq39cjB0G04WQv4ELBgK29rHo/r3XO4J05AzLUIYgDSXMwmD7aNTxKWnrsULAWRHwIKem7UGv696NVJlvPDUjbgUQFa0CKHnJnvxvHA1Yk4WQpZUsKDHLBRlxslCyIwKFvSYhaLMOFkImRGwoKcsFOUuThZCVrQIoYe0BjmUk4WQBRUs6KGqUvFqwIOUcdGdhdA9FSzomR+diQtFKWBxtOrb8/lT1+NqAJ0QsKBHpq3BNNhu9orjOVkIHdIihB6ZuA6H+TlZCB0SsKAnUvWqClcXAublZCF0RsCCnrDzimWUEedunolXAmiVgAU9kAbbtQZZmpOF0DpD7pA5g+3UxclCaI8KFmTOYDt1mURcns7yAY1TwYKM2dhO7YrYWVufrm/YDaAxKliQsSpcGU6mXk4WQisELMjUdLA94rmAmjlZCM0TsCBTVf/+xYCmOFkIjRKwIEPWMtCKIl7ZPh3nAqidIXfIjLUMtMydhdAAFSzIzX48L1zRIncWQgMELMjItHpVmouhZU4WQu0ELMjIdKkodMDJQqiXGSzIhKWiZKGMF566EZcCWIkKFmRC9YosFPHKW8/E2QBWooIFGfjh6ThXfdu5EpCDg+t0zjtZCMtTwYIMWCpKVsqDVSFOFsLyBCzoWFoqWgWscwE5Kaczga8GsBQBCzqmekXGnts+7fUJyxCwoEOuxCF3k4iXtp+JbwSwEEPu0KGbZ2JbwKIHdvfLOP/0jdgKYC4qWNAR1St6ZGN9LS6nXW0BzEXAgo6YvaJXDobeLztZCPMRsKADqlf01NnJvut0YB4CFnRA9YreKuOCk4VwPAELWpa2tqte0WdOFsLxBCxomeoVQzAp4pI7C+FwAha0KFWvbG1nIJwshCMIWNCitUJbhQGZnSwM4D4CFrRk+k2/jAsBw3L25hknC+FeAha0ZLJv9oqBKuPizWfiYgC3uSoHWpCqV1UrZTtgwKpv7OdPXY+rAahgQRtUrxiDSRh6h1sELGjY7GqRcwHDt1F9mbjiOh0QsKBx+/vxnMWijEb1Wi+dLAQBC5pmsShjU1YVWycLGTsBCxrkUmdGy8lCRk7AgiaVFosyYkW84jodxsqaBmiI1QwQ6VNmZ209zp/aip2AEVHBgoZYzQBx+zodJwsZGwELGuBaHLjL2eoLh6F3RkXAggbs79t7BXepvnBsn1bVZTzMYEEDbp6JbacH4X5rVdA6dSNeDxg4AQtq9sPTca4qDV8J4EF2107Es4beGTotQqjZWmE1AxzBdTqMgoAFNTLcDnNwnQ4jIGBBjQy3w3xcp8PQCVhQI/cOwgJcp8OAGXKHmhhuh+VUPzfnT12PqwEDooIFNTHcDsuZFPHqdH4RBkTAgrqU8VwAi3OdDgMkYEENfnRmenLQhwMsz3U6DIqABXUotQdhZa7TYUAMucOK0uxI1d7YDqAWrtNhCFSwYEV2X0G9JkVcMvRO3wlYsCK7r6B2rtOh9wQsWEH1AXA2nYAKoF6u06HnBCxYQfUt+/kAGuE6HfpMwILVnAugOa7ToaecIoQluRoHWrO7X8b5p2/EVkBPqGDBklyNA63ZWF+bbnrfDOgJAQuWdy6AdrhOh54RsGAJqT3o9CC0Ll2nYy0KvSBgwRK0B6Ejht7pCQELlnMugG4U8cr2aT+D5E3AggVpD0L3JmHonbwJWLCg6ofmuQC6tmHonZwJWLCoIv4ygBykoXeb3smSgAULcPcgZKaMC9unnSwkPwIWLGDyscFayM0k4iVD7+RGwIIFlNqDkCVD7+TGXYQwp/TmPdmL7QDyVMTO2no8e2ordgM6poIFc9rf14KArB1cp/NqQAYELJhTVe7VHoT8PWfonRxoEcKcbp6Od6snO3egB8oivv6Fa/FGQEdUsGAOPzw4oSRcQU8UZbxq6J0uCVgwB9vboXc2JvtxxaZ3uiJgwXy+FkC/GHqnQwIWHGPWZjgbQB8ZeqcTAhYcY39fuII+S5vef3RGm592CVhwDOsZoP8MvdM2AQuOdy6AvjP0TqsELDjC9Btv6VsvDEIaet+PVwJaIGDBEVyPAwNTxgVD77RBwIIjmL+C4UlD79unfXmiWQIWHM0JQhigKmRdNvROkwQsOET15nvW/BUM1sZkbxqyDL3TCAELDmH/FQze2cm+eSyaIWDBIQrX48DwlXHx5jNxMaBmAhYcplTBglEo4pW3nvHzTr0ELHgA9w/CuKyvGXqnXgIWPID5KxiZMjbLvXg1oCYCFjxAUdqRA2NTRpy7ecamd+ohYMEDVG+0XwxgfMq4uP1MfCNgRUUA97l5OmUsYKR2107Es6e2YidgSSpYcI8fukIDxm5jsh9XLCFlFQIW3GPNegagjM0qZJnHYmkCFtxrzfwVEClkXbCElGUJWHAvFSzgFktIWZIhd7hDmrmY7MW7AXBLETtr69Oh992AOalgwR329nxTBe5xsIT0csACBCy4gwF34EHSEtLt0/FiwJwELLiTAXfgEJOIl7atcWFOAhbcoSxd9gocblLEqy6FZh4CFtyhCN9OgSO4FJo5CVgwU30rNX8FHMul0MxDwIKZ/X1lf2BO6VJo81gcQcCCmcIJQmAB5rE4ioAFtxROEAILMI/FEQQsuMUJQmBB03ks9xXyAK7KgZmbp9N7JcDiqmrF+VPX42rAjAoWhBOEwGpm81gbATMCFoQThMCKytic7FvdwCcELAgnCIEalHHBPBa3CFiQOEEI1KGIF61uIBGwIKZ3EJqdAOqwYXUDiYAFMT1Oq0UI1MLqBhJrGhi9dPJnshfvBkCN9st49ukbsRWMkgoWo7e3p3oF1G+90CocMwGL0SsK81dAI87ePGN1w1gJWIyeFQ1AY8q4uH06zgWjI2AxemXhSDXQHFvex0nAgjI+HwBNOdjy/mIwKgIWo1eEb5ZAw6pW4VvPGEcYEwEL7MACWuBU4bgIWIyauQigRWdvno6XglEQsBg1O7CAlj3vrsJxELAYNTuwgJa5q3AkBCxGrZj4Jgm0y12F4yBgMW4qWEAXinjRDOiwCViMmiWjQEc2Jvuu0RkyAYtxs2QU6EoZF1yjM1wCFgB0ZGI31mAJWIxaoUUIdKmMTbuxhknAYtxKAQvonN1YA3QiYA7l92Y//Huz53J6+uWTEzBr1a/LQ07ElLFzxx/tRlE9Dv6e3enjU7FbPDv7vRalEzyTvQDoWnovSgPvXw8GowhGbRqcUmhKlZzULlubDn1vzCo7B6GpvVUGOxHToJVC2E5M4u1pGCtjKwWx4ivVc43SN8bqTW07ADJQtZTOn7oeV4NBUMEagfL7VUD69zg7DU0n4ovT53J6Rcxm7MdBzL4Vtct7/uZ2I/jm7V+Vd/xvFwd/XH53+pzC19Y0gJXxg1XC114VLPXIgVxMYlrFejYYBBWsgZlWpD6Oc/cFqaG7FbzWqkeqfFXBq/jq0d8Ef3g6zlUB60oA5KKMF566EZeC3hOweux2ZWotvlb9UJ6bhimbye91dRq69uLNeKgKXV/+ZB7sR2fiQlE6Ig1kZXftRJw6tdX+XCr1ErB6ZBqo3p9Wp75WVWnOVb91NljUzrTSFfE3//Lf44sf/th9YEB2Xn7qutUNfSdgZa78ThWkblWowsbfWv0kYu+tiF+/E/GrtyM+qJ4nHwZA52ZVrJ2gtwSsjE3nqfanM0KbQf2qgBXv3P1bKWT9aucgcO29HwCdqD6cr/7+9Tgf9JaAlbHy7+LVdFdV0Ix/qh4/O/xPp4CVgtb7P4z46OcB0CprG/pNwMrUrHplR1OTdqrHL+b7S4UtoG2qWP0mYGVK9aoFNyOWOaeTwtZ717URgeapYvWXgJWhKlylpaDfD5r1VvVYMSClma333zp4ANSuiJ2nrsWpoHcErAyV350Otp8LmlVDwLolVbLSacR3/0FVC6hXWcQ3v3AtXgt6RcDKTFW9uhCWX7bj/1SPX0ftVLWAWlVVrLX1eNby0X5xFVtuyngxaMd+NOJTn4v49Ncifu+vI574UsSJxwJgeeX0YnpLkXtGBSsjqlctu1Y9PopWpGqW9iGwAlfo9IwKVk5UrwbrsacPKlqpsvXwbwfAojZUsfpFBSsTqlcd+PvoTJrT+mVV0frgJwEwL1WsHlHByoXq1aikOa0n/6J6/Lfq108GwDxUsXpEBSsDqlcd6bCCda9U0frZm2a0gGOpYvWEClYOVK9GL1W0bs1oOXUIHEEVqydUsDqmetWhjCpY93LqEDiCKlYPqGB1rYxvBNwjnTpMM1qPnwmAe21MPnZXbe5UsDpUfifOVf8GrgTtS0tGt6IXUhUrVbNshgduc0dh9lSwurSmetWZhra4NyHNZKXZLPNZwG1lbP7oTDwXZEsFqyPl92Kz+pDfDrqRNrhfi15K1ax3M54fA9pRfYBf/f3rcT7IkgpWVyZODrKcJ/744MShahaMWxlxbvt0nAuypILVAdWrDPS4gnWn964fVLMmLd2pCORFFStfKlhdmPjGQT0ePx3xu39lGzyMlSpWvgSsLlgs2r2HYzBSqzCtdDj55eoHekD/v4D57Idh9xwJWC2bLhaNqkUINbtVzTKbBeNStQm/sX02NoKsCFhts1iUBqVwlQbgn/hSAOPh+pwMGXJvkeH2zAx81cGHv4j46d+6bgdGYvep6/FEkA0VrDZZzUCLHjl5MJuVrt0BBm/DsHteBKw2lV78tOvWFngtQxi+MnyJz4mA1RLD7Rlaj9FIy0l/xwA8DNp0ZcMzcTbIgoDVFsPt+RlRwEputQwfPhnAQE0KKxtyYci9BYbbM5U2uY90A7r7DGGwdtdOxKlTW7EbdEoFqw2Oz5KZ1DJMi0mBwdnY3zfvmwMBqw1F/GWQn0di1NJiUnNZMDxrZTwfdE7Aalj5nek3ic2ADN2ayxKyYDimw+5/5HOnawJW09YMt2drZEPuh7l1l6HhdxiOyYnpyXU6JGA1rXSiI1sC1m0pZKV7DC0lhcHQJuyYgNWg2e4rF3DSG5aSwmDY7N4xAatZhttz9nDwAOmEoZAFA2D/YqfswWpIeaWqXD0U7wb5+kn1eCc4hF1Z0Ht2YnVIBaspD5u9yt7I1zQcJ1WyUssQ6K20E8tnUUcErOZoD9J7aehdyIL+WtMm7IwWYQO0B3siFc1vBnN4/62If3szgP7RJuyIClYT1p3c6AVD7nNTyYLe2ph8bCdWFwSsJqxrD/bCiWABQhb0U+G6tk4IWE2wXLQfLBpdmJAF/TO9OuesnYxtE7BqNrt70Au5DwSspQhZ0D9OE7ZPwKqfF3GfmMNaSgpZJ78cQE84Tdg+Aatuet39ooq1tMdP2/gOfVG1Cc9qE7ZLwKpR+b3YrJ42g/6wbHQlrtWB3tiIvTgbtEbAqtPEeobeUcFaWQpZqWUIZE6bsFUCVr20B/vGDFYt0tD7p54MIGOTwoxwmwSsOpUqWL2jRVib//LnESceCyBfG9unfU61RcCqifUMPaVFWJu1qhr45F8IWZCzSQhYbRGw6nMu6B8twlqlcPXZPw8gU0WELXYtEbDqUnjR9pLrcmr3yEk7siBXtrq3R8Cqz7mgf1SwGpF2ZD1+JoAM2ereDgGrBrP5K/pKyGrEyT9xshBytD7RcWmDgFWPc0F/PRo0xMlCyM9kzWdWGwSsOpi/6jcnCRuTThYaeofMlLG5/UduHWmagFUP1w/0mRZhowy9Q34m6+awmiZgrcj+qwGwbLRxaejddTqQj+rD/4tBowSsVRWqV733G0ELUhXLPBbkwRxW8wSsVZm/6j8VrFaYx4KMmMNqnIC1qtILtPfWw6B7S8xjQT72H1LFapKAtYLyynT2SotwCAy6tybNY9mPBRkofX41ScBaxQkvzsGwC6tVn/mzg5Yh0B33EjZLwFqFAffh8GHfqjTs/sSXAujWWfcSNkfAWoUB9+Ew6N46rULIwJ5CQVMErFUYcB8Oqxo6oVUI3ZqYw2qMgLUkA+4Do4LVCa1C6JaFo80RsJZlwH1Y0poGlZROaBVCdywcbY6AtSwD7sPjJGFntAqhI2nhqEH3RghYyzJ/NTw+4DujVQgdMujeCAFrWYW+9eCoYHUqtQofPhlAywy6N0PAWp4X5NC4iLhzrtGB9hl0b4aAtYTZCUI966FJLUJ3EnbqNz5X5dynA2jRxExxIwSsZThBOFzmsDqXqlgG3qFVm0HtBKxllKpXg2UOq3MpXD1+JoD2bGz/kZBVNwFrGcqpw2WjexbSwPsJM3HQmv2HfK7VTcBaRiHpD5YKVhZSFcvAO7SnmPhcq5uAtZzPB8MkYGXjNz9vwzu0pVQ4qJ2AtZzNYJhcmZOVJ/44gDZYnl07AWs5m8Fwmf3JRlrboIoFzSvW7MKqm4C1oPJ7wtXgGXTPiioWtEAFq3YC1qL2vAgHTwUrK6pY0A6rGuolYC3KDqzhezR2bXTPiyoWtOCEgFUnAWtRdmCNwYbThHlRxYLm7TtJWCsBa3EqWGNgDis7qljQrMIcVq0ErEWt2YE1CipY2VHFgmatlT7f6iRgLcoM1jj4t5wlVSxozn71IxbURsBanI/eMbBwNEuqWNCcolDBqpOAtbjNYBysa8iSKhY0pFBAqJOAtTgvwLEw6J4lVSxoiCH3WglYCyivCFejYhohW7+pkQGN2D7rc64uAtYiPuWFNyppBsvC0Sw99nT15mVGDur3gc+5ughYi3BNzvh4q8lSClePnwmgbuve9eoiYMFRzGFl6/HTAdTNoHttBKxF2IE1PuawspWqWIbdoV6uy6mPgLUYAWtsHg77sDJmZQOQKwELjmMfVrbSygbD7lAf9xHWR8BahNLpOAlYWTPsDuRIwILjaAxnzbA71Kf0jlcbAQuOk3ZhqWJly7A71Ge9jMeDWghYMA/rGrJmszuQGwFrEWawxkvRPGs2uwO5EbBgHqlF6NqcbKVw9fBvB0A2BCyY13+K3SBbdmLB6kqdmtoIWDCvxzUKc/bISW1CIB8CFsxLvMpaCle/uRkAWRCwYF7WNWTv0c0AyIKABYv4rSBjrs4BciFgwSJOGnTPmdOEQC4ELFjEI7ERKiRZs3QUyIGABYsy7J61tHQUoGsCFixKwMqaNiEsryhjJ6iFgLUILzwSW92zl4bdAbokYMEyTgYZe9QcFtAxAQuWoU2YNVvdga4JWIsoHNFnRpswa+awYDmTIt4OaiFgLWIiYHEHbcKsWdcAdEnAgmVpE2btYQEY6JCAtRgVLD6hTZg11+bA4srCafm6CFiLMIPFvT4TZMwcFtAVAWsRawIW93gsyNgj2oSwkHX7HmsjYC1CwOJej4WQlbFPWTgKdETAWsQHAhYP8FtBpmx0hwXtqWDVRcBaQHFewOIBPhtkKg25n1BhhPl9yudcXQSsxe0E3CmdJPQhni1VLJjfqS0Bqy4C1uK8+LifYeps2YcFc7KioVYC1uIELO6Xlo7aiZUlAQvmVPp8q5OAtTj3NHG/FK58kGfJqgaYT6GAUCsBa1ESPodxdU6W0qC7je5wvMIOrFoJWIvSo+YwadD9UQE8R596MoBjTAodmjoJWIua+ADlCI+rY+XoIac84Xg6NLUSsBa1HlsBh0k7sQy7Z+eEZbBwrHJNh6ZOAtaiXJfDUezEypJlo3C89YmAVScBa0HFl70AOcZngsw88p8DOM5DPt/qJGAtZyfgMC6Azk6qYDlJCEfatcW9XgLWMgpzWBzj8SAza48EcLidoFYC1jLKeC/gKL8dht0zY6M7HK4srWiom4C1HBUsjmaze3asaoAj2PFYOwFrGU5aMA8bsbJiVQMczhb3+glYy3hIBYs5GHbPyroZLDjUmtni2glYS7Cqgbl9LsiEChYc4YSAVTcBa3k7AcdJFSzrAbIgYMGhrGhogIC1LOVU5vVpb1w5sKYBHqxwcKsRAtayJo60MqdPx4aVDd2zaBQebBLxg6B2AtaySomfOaVw5fqcLLiTEO7nBGEzBKxlPRRXA+b12bB4FMiSE4TNELCWNDtJaLaG+aRwZS9W51Sw4AGcIGyEgLWanYB5fUYg75o5LLiPE4QNEbBWYzCQ+T1a1bBUUDq1LmDBXZwgbI6AtRovTBZj8SiQkTLizaARAtYqCoPuLMj1OZ0ygwV3Kw24N0bAWsVHZrBYgioWkIn1dQGrKQLWCorz08FAL04Wo4oF5KCInVNbCgVNEbBWVepfswRVLKBj5cRBrSYJWKuy0Z1lqGJ14iH/zOG2IswRN0nAWpWN7ixLFQvokA3uzRKwVmSjO0tTxQI6dOq6AkGTBKw6WNfAslSxgA5oDzZPwKqDQXeWpYoFdGDiJpLGCVh1UMFiFapYQMvWI94IGiVg1aD4ynRQ0BwWy1HFas3+hwEkJwy4N03AqosqFqtQxWrF5KOA0UvzV6e2FAWaJmDVxRwWq1DFAlpi/qodAlZd1vWzWdHv+kYJNM/8VTsErJrYh8XKHo2NOBk0SIsQ7L9qi4BVr78JWMWTMf16STMmhtwZOfuv2iNg1WnihcuKHq4enwmARpSlQkBbBKw67etrU4PPhipWQz7+94BRW3vI51RbBKwaFeenM1hXA1aRwtWTAVCvInZObU3nhWmBgFU/5VdWl9qEDwc123s/YMyuBq0RsOpmXQN12QxqZsidMVsr4/WgNQJWzWbrGnYCVmX5aO2saWDEdq1naJeA1QSnNKjLZlAT4YpRK3RX2iZgNcMLmXpY21Ab81eMWWk+uHUCVgOKr07LsLa6Uw/LR2uhgsWYra9rD7ZNwGqKYULqYm1DLfbswGKk0nLRU1u+9LdNwGqONiH1SW1CA+8r+ViLkLFa83nUBQGrIdqE1O5zwQrMYDFW69YHdULAapI2IXVKFSwD70tzTQ5jpD3YHQGrWb41UC8D70sz5M4oaQ92RsBq0KxNuBNQlxSuPu/b6DI++nnA2Ox+4Vq8FnRCwGqaNiF1eyI2DLwv5qNfBIyP5aKdErCadsK3BxqwGVqFC9AeZIzcPdgtAaths7sJrwbUyYb3hXyogsXYFLHj7sFuCVjtcEUB9UsD748Gc7BklLEp3YnbOQGrDR9P24QGk6nf7wZzUMFibNZPxKWgUwJWC4rzVbjSC6cJdmPNxQlCxqSIuHpqywn2rglY7XGag2akVuHDwSHSCUJD7ozJpPCFPgcCVktmO7G2AuqWThNuBoewwZ1RKWLH7qs8CFhtMnRIU7QKD2UHFiNzNciCgNWmvenQoWF3mqFV+EC/fidgNNbW4+UgCwJWiwy70yitwgcy4M5YGG7Pi4DVPsPuNEer8C577xtwZzwmRXwryIaA1bLZsPvVgKb817CAdObDXwaMw8Fwuy/wGRGwulDqkdOwz4e7CisfmL9iJMrwuZIbAasDsyqWYXeakypYT8bo2eDOSOyur+uM5EbA6kqpV07D0izWYzFaafbqg58EDF8Rbxhuz4+A1RUrG2jDZoy2VWj/FWNhNUOeBKyOzFY2qGLRrLQXazNG6VdvBwxfEa+pXuVJwOqSKhZt2IhRrm4wf8UYqF7lS8Dq0LSKFa7PoQUj2/Ju/ooxsFg0bwJW19bjpYCmpTmsP4zRzGO5HocxKKxmyJqA1bHiy9W3j8JyOFqQKlgjWd3wHzsBgzatXl23miFnAlYOJobdaUmaxToZg6eCxdC5Fid/AlYGXJ9Dq9JVOgOex0rrGdIdhDBYrsXpBQErF67PoS0Dn8dSvWLoXIvTDwJWJlSxaNWA57Hsv2LQDqpXrwXZE7ByUsQLAW35TAxuP1ZqDVrPwJCtlfHNoBcErIwUX4mt6un1gLakeaxHYzC0BxkyJwf7RcDKjb1YtO2pGMzQ+/s/DBisvVKXo08ErMxM92K5o5A2DeS+Qu1BBq2I156+Me1y0BMCVo72plUsdxTSnsfioF3YY9qDDJk7B/tHwMrQ9I5CVSza1vOhd+1BBquqXrlzsH8ErFztxaVQxaJtaXVDD4fetQcZMtWrfhKwMjWtYlnbQNvS8tEeDr1rDzJgL6te9VMRZK38blypns4FtOk/qsdb1WM/euGfL0d89POAYSli56lrcSroJRWs3LlChy6kNmFPht7T3YPCFUPkSpx+E7AyN71Cp3CpJx04WT0+F9l773rA8LgSp/cErD5Ym85iGXinfWno/WRkzfwVQ7S2HueDXhOwesDyUTqV8XU67791cIIQBsVahkEQsPriYG3DTkDbMj5ZaPcVg1O1Bq1lGAYBqydmy0fdok43Urj6wzgIW5mw+4ohKq1lGAwBq0cMvNOpFLKejmxC1rv/EDAsBtsHRcDqGwPvdCmT9Q2pepXmr2BIDLYPi4DVM9OBd7tR6FIG6xucHGSAtAYHxib3nrLhnc6l+aeOgs7/+x9ODzIgNrYPkgpWX61PB961CulO2pH1mWid1QwMzcQBpkESsHrKbiyykOaxWl5EaridISkjvvUH1+NqMDgCVo8VX42XqqetgC61uIj0V2+rXjEgVWtw/cT0fZwBErD6rlBapmNpbUNa39BCyHLvIEOSWoOntox6DJWA1XPFV6YVrBcCutTCtvcP3rFYlOHQGhw+AWsAij+dXqNzNaBLt7a9NxSyfmn2iqHQGhwFAWsonCokBw2FLNUrhiQtFNUaHD4BayAsICUbDYQs1SsGxELRkbBodGDKv4vLVXP/uYCufVQ9/u/seQWpevWT/xnQfxaKjooK1tB8NG0V7gR0raZK1s/eDOi/InbdNTguAtbAFOervr6twORixZBlaztDUUa8oDU4LgLWABVfjau2vJONFUKWre0MQVrJ8IVr8VowKgLWQFUh62JY3UAulghZqlcMgpUMoyVgDZnVDeRkgZCVgpXqFb03m7uykmGcBKwBm10I/fWAXMwZstKVOKpX9N1kYiXDmAlYAzebx7Ifi3wcE7JSsHLnIH03vQrnxvSWDUbKHqyRKL8bV6qncwG5OGRP1r+9eTB/Bb1l3xWhgjUeH09bhTsBuXhAJSsFK+GKXqvClX1XJALWSEz3Yx380Bu2JB+3QtajB39osJ2+q8LV181dkQhYIzIdei/ihYCcpJD1dMR71jLQf2mofSsgBKzRKb4Srxl6Jzt7EY9tVoWszYBeSkPtT12374pPGHIfqfLbVdBai28E5OBa3B52/8X/rqpZ1wL6ZKsKV88G3EEFa6z2p5velbLp3s/irpOEJ/8k4okvBfRDGmo/Yd8g91PBGrHye7FZBa20vmEzoAsfVo9/jBT475MG3t/9+4B8HWxqf9ZQOw+igjVis6H39M3LyUK68XY8MFwlT/xxxKe/FpCt2TU4OwEPIGCNXPGVqk04md5ZCO1KrcFjTg0+9nTE7/xVxInHArIyKeMFJwY5ioBFFH8Wb1RP1jfQntQa/Kf5/tJHTkY8+RdCFll52TU4HEfAYqr40+rNwvoG2rLgtvYUrlLIevhkQKesY2Behty5S/mdKmgV8XxAU96pHj+JpVnjQGeKeOOpa04MMh8VLO5SfDUuxiReD2hCmrlaIVwl1jjQka21dfOqzE/A4n52ZNGENHe1E7VIJwxPfrl6A3s4oHkHu67SiUEnrpmbFiEPVF6JjXhouiPrbEAdbkbtC0HS3YU/+V/uMKRBKVxZx8ASBCwOZREptVlx7uooKVz9699GfPSLgHoJV6xAwOJIQhYrS9WlBU8NLsPwO7USrliRGSyONN32Xr3JRHiTYQk1zl0dx/A7tRGuqIEKFnNRyWIpqaL0UbTqw6pV+NO/NZfFkoQraiJgMTchi4X8c/X4aXTCXBZLEa6okYDFQoQs5tLgUPsi3v2H6vH3AccTrqiZgMXChCyOlFYx3IxsvP9WxC++FzFpuVVJjwhXNEDAYilCFg+Uhtr/MdKy2qzYl8WhhCsaImCxNCGLu6RwldYxZFopShWs1DK0yoHbhCsaJGCxklnIuhw2vo/bXhxUrnrQhtMyZEq4omECFitzrQ5NXIPTJC3D0dtaOxFfF65okoBFbcpvx2uxFt8IxqXDdQyrcspwfKoPvavFQbhycTONErCoVfmduFS9qp4PxiGTdQyr+NXbBy1D1azhK4t4/QvX4kJACwQsaleFrJeqV9aLwbANIFzdksJVqma938KdiXTm5aeuV+9N0BIBi0aU342L1dMrwTANKFzd6b3rBy1DA/CDI1zROgGLxpTfjudiLV6tfrkRDMfPqsc/xWAZgB+QInbLSbzwhRvxWkDLBCwaZVfWwKS7/XZiFAzA99zBGoY0zL4V0AEBi8YJWQMxonB1i2pWT9lxRQbWAhpWfLl6k/s4no0yvhX00wjDVXLisYjf++uIJ74U9EURb1Th6lnhiq6pYNEqJwx7aKAD7YtSzeoFw+xkQ8CidYbfe0S4uo/ZrAwZZidDAhadMJfVA8LVoVIV62ffjvjAP5/uGWYnUwIWnZndYXip+qXrdXIjXM0lLSZNFS1tw2649oacCVh0zlxWZt6uHj8P5mQLfGfMW5E1AYsslH8XZ6OMy6Fl2J296vHj6qEasxR3GrakiN1JGV//g+txNSBjAhbZmM1lpeH3c0G7PqweqQLjipiVGYJvzqwl+E0rGOgDAYvsaBm27D+qx80QrmqkbdgILUF6RcAiS1qGLUkLRNO9gvtBAwzB16CInaol+E0tQfpGwCJbs5bhS+GUYTOcFGzNrWqWoLWgg63s33RKkD4SsMheVc26UFWzUstwM1hdGmb/l3BSsGXahgtIg+yTePkPbkzXuEAvCVj0ggH4mhhm75wlpUczyM5QCFj0SvnduFg9vRIsLjVZdsK8VSbMZ91D1YqBEbDoHdfsLOGfq8dPgwwJWqpWDJOARW/NqllpNsul0YdJLcG0guHXQcYmVcv2vesjHIRXtWLABCx6bVrNmlQtwzKeC+6mJdg7YxqEV7Vi6AQsBsFJwzukU4L/GlqCPTbooKVqxUgIWAyGvVlxcI/gTjglOBBDC1plxLfWT8RL9loxBgIWgzPaLfAG2QdrAEFraxLxgm3sjImAxWDNhuCfj6EHrXSX4E4YZB+B3gUt7UBGTMBi0AbdNkyzVv8WrrsZoT4ELe1Axk7AYhQGtwnerBWRZ9BKpwP3o6paaQcycgIWo9L704ZOCPIAKWi9dyPiVzsd7tEqYmdSxjcFKzggYDFKvQxaP4uDdqC9Vhxi8mEVst5ueTN8mrMq41tVsHopgNsELEZr2jbcq4JWMQ1a+UoflO/MnmFOjV/BMwtWJ07EJXNWcD8Bi9HLdhA+XXOTgtUvApb2wTsHYau2OS3BCuYiYMFMNkHr1unANGelHUhNbg3E//qdFapaRby2th4vCFZwPAEL7tFp0EoVK8GKhi3cPjwIVi+7NxDmJ2DBIVoNWqkNmAbYrV2gRUe2D7UCYSUCFhzjjqD1taj71KFgRQZSJSu1DqdVrX8XrKAOAhbMaRq0JnGulvUOghX52a1e39/aeV2wgjoIWLCEpfZopeH1X8bBjJVgRS6KuFpVaL9VvBBvBFAbAQtWUH6nqmgVVdg6ak7LqUBydBCsXq6C1dUAaidgQQ0eOKeVTmilRktqBwpW5GHaBqyeL1XBShsQGiRgQc2m7cMfVxWtXw7kYmn6T7UKWidgQUPKV6pK1lpDpw/heKpV0CEBC1pQha1zVdi6ELldx8PQ7N4xtH41gM4IWNCiKmhtVE/PxXoVtEotRGpyEKr+pvrVa6pVkAcBCzoybSFGFbKELZYhVEHWBCzIgLDFXA5C1ZtxEKp2AsiWgAWZEba4i0oV9JKABRmbzWylAfnnwmnEsUiD6m/MKlVvCFXQTwIW9EgVuM7GQXXrL1W3BuST1t9Vp/9gGAQs6KlZdevstLpVxBcFrl7Zqh5vxmR6/9+WKhUMj4AFAyFwZSu1/Laqfx8/qALV1TioUglUMHACFgzYdMFpCl3r8bXqA35z+muatjNr+f0gDipVKlQwQgIWjMjtKpfQVZc7w9ROqE4BMwIWcGt4Pt2deHbWXtwMwetOO7M239tVm29alUq/J0wBhxGwgEPNgtet2a7N6h3j87PwtTn7/aHYjU9mpVKI2omDilQKUruCFLAoAQtYyqzduBkxe16b/bqIx6d/XE5//9Zf05Wd6X8WtwNT3BGgdme/pxIF1E7AAloxC2R3PuKeXx9YOyKQTWaVprvtzJ5v/znXyAAAAAAAAAAAAAAAAAAAAAAAAAAAAAAAAAAAAAAAAAAAAAAAAAAAAAAAAAAAAAAAAAAAAAAAAJCR/w+4WK4xfGFFmgAAAABJRU5ErkJggg==;fontColor=#999999;labelPosition=right;align=left;spacingLeft=20;" vertex="1" parent="mu3TLzRvKkOABFL3PFfV-79">
          <mxGeometry x="11.379999999999999" y="12.5" width="35" height="35" as="geometry" />
        </mxCell>
        <mxCell id="mu3TLzRvKkOABFL3PFfV-81" value="" style="strokeColor=#dddddd;shadow=1;strokeWidth=1;rounded=1;absoluteArcSize=1;arcSize=2;recursiveResize=0;" vertex="1" parent="mu3TLzRvKkOABFL3PFfV-56">
          <mxGeometry x="320" y="230" width="180" height="60" as="geometry" />
        </mxCell>
        <mxCell id="mu3TLzRvKkOABFL3PFfV-82" value="Cloud Firestore" style="shape=image;verticalLabelPosition=middle;labelBackgroundColor=default;verticalAlign=middle;aspect=fixed;imageAspect=0;image=data:image/png,iVBORw0KGgoAAAANSUhEUgAAAlgAAAJYCAYAAAC+ZpjcAAAACXBIWXMAAAsTAAALEwEAmpwYAAAAAXNSR0IArs4c6QAAAARnQU1BAACxjwv8YQUAAC8MSURBVHgB7d3Nk113eSfw53TLNnHicXsUYHAyoRUTJ1WWCjlsQhGCtMgqUxWTVXaIv8DyX2B7OSuLv8D2bnZyqmZWWUgGUswmoSlJkxqD6PYkwYEAbpdD8Ev3PXN+t69kvXX3fTkvv3PO51N1ubJsQ2Hfvvd7n+f5Pb8IAAAAAAAAAAAAAAAAAAAAAAAAAAAAAAAAAAAAAAAAAAAAAAAAAAAAAAAAAAAAAAAAAIBFbZ+JV358Oq4EQAaKAOix7bOxUe7F5TLi3PQ3irj01LV4IQA6tBYAPVWFq83Jfnz/drhKyri4fTpeDIAOqWABvVSFqHOTIi5XgWrjQX9+rYwLp27E6wHQAQEL6J0qXD0/ibh0zF+2u1/G+advxFYAtEyLEOiVNMw+R7hKNtbX4nJqIwZAy1SwgF64b5h9XkXsrK3Hs6e2YjcAWqKCBWTvgcPs8yqrv3cvXg2AFglYQNaqcHW2CldXUlCK5T13s2otBkBLtAiBbB13UnBhZbzw1I255rcAViJgAVma86Tgwqqy/flT1+NqADRIixDIzs3T8WIT4Sqp/nudLAQaJ2ABWbl5sIX9pWjORprpErKAJglYQDZunpme9nspmnZwsvByADTEDBbQuaV3XK2qiNeeuhbfDICaqWABnUrhqqomXWk9XCVlXHAxNNAEFSygM7MFoqvuuFqZi6GBuglYQCdyCVczLoYGaqVFCLQus3CVuBgaqJUKFtCqDMPVJ1wMDdREBQtoTdbhKnExNFATAQtoRfbh6hPPOVkIrEqLEGhcj8LVJ1wMDaxAwAIa1ctwNeNiaGBZAhbQmD6Hq5ndtRPTofedAFiAGSygEQMIV8mti6E3AmABAhZQu4GEqwPV/4fSxdDAggQsoFaDClcz6Z7Em2filQCYk4AF1GaI4eq2Mi5a3wDMy5A7UItBh6s7uBgamIeABawsDYFP9qpwFXE2hs/F0MCxtAiBlY0oXCUuhgaOJWABK7l5Znp331jC1YGDOwsvW98AHEbAApa2nU7WlXEhxunsZN/JQuDBBCxgKTdPx4uTMi7GmFXh0slC4EEMuQMLu3kQKl4KppwsBO4lYAEL2X4mvjEp4rXgLvtlPOtkIXCLgAXMbftsnJ3sxfeD+xWxs7Ye510MDSRmsIC5zBaJupPvMOXBolUnC4FEwAKONZYt7StzMTQwI2ABx0o7n4Sr+bgYGkgELOBI2wdhYVyLRFdVxsWbz4x8hQWMnCF34FDWMaym+gZ7/tT1uBrA6AhYwANtn47nJxGXglXsrp2IZ50shPERsID7WMdQo4P1DSlk7QYwGmawgLtYx1AzJwthlAQs4C7WMdTPyUIYHwELuG16YlC4akYZF10MDeNhBguYcmKwHWURX//CtXgjgEETsIB0YvDcJKrWIG3Y3S/jvIuhYdi0CGHkpkPtRbwatGVjfS0up3/uAQyWgAUjZ6i9A+li6L1pyHIxNAyUgAUjZqi9U2ercOtkIQyUgAUjNd3UXrovr1NlXHCyEIbJkDuM0GyZ6PerD3gtqgysVUHr1I14PYDBELBgZNLczyxcbQa5cLIQBkaLEEZmOvcjXOXGyUIYGAELRiTNXaW5nyA/ThbCoAhYMBLTuauIS0HOnCyEgRCwYARmc1c2tfeBk4UwCAIWjMF+9YFt7qo3qkrjS9vPxDcC6C2nCGHgfnQmLhSlq3D6aL+MZ50shH4SsGDAZvuuXIXTV0XsrK3H+VNbsRNAr2gRwoCVe1XlSrjqr/IgIDtZCP0jYMFA3TwdL5YR54J+O1jfoMULPaNFCAM0bQ3uxXYwGNW34ZdOXY+XA+gFFSwYICsZhiedLLz5jMu5oS8ELBiY1Bo0dzVQRbyyfVrbF/pAixAGpGoNnq1ag98Phmx37UQ862Qh5E0FCwZitq39cjB0G04WQv4ELBgK29rHo/r3XO4J05AzLUIYgDSXMwmD7aNTxKWnrsULAWRHwIKem7UGv696NVJlvPDUjbgUQFa0CKHnJnvxvHA1Yk4WQpZUsKDHLBRlxslCyIwKFvSYhaLMOFkImRGwoKcsFOUuThZCVrQIoYe0BjmUk4WQBRUs6KGqUvFqwIOUcdGdhdA9FSzomR+diQtFKWBxtOrb8/lT1+NqAJ0QsKBHpq3BNNhu9orjOVkIHdIihB6ZuA6H+TlZCB0SsKAnUvWqClcXAublZCF0RsCCnrDzimWUEedunolXAmiVgAU9kAbbtQZZmpOF0DpD7pA5g+3UxclCaI8KFmTOYDt1mURcns7yAY1TwYKM2dhO7YrYWVufrm/YDaAxKliQsSpcGU6mXk4WQisELMjUdLA94rmAmjlZCM0TsCBTVf/+xYCmOFkIjRKwIEPWMtCKIl7ZPh3nAqidIXfIjLUMtMydhdAAFSzIzX48L1zRIncWQgMELMjItHpVmouhZU4WQu0ELMjIdKkodMDJQqiXGSzIhKWiZKGMF566EZcCWIkKFmRC9YosFPHKW8/E2QBWooIFGfjh6ThXfdu5EpCDg+t0zjtZCMtTwYIMWCpKVsqDVSFOFsLyBCzoWFoqWgWscwE5Kaczga8GsBQBCzqmekXGnts+7fUJyxCwoEOuxCF3k4iXtp+JbwSwEEPu0KGbZ2JbwKIHdvfLOP/0jdgKYC4qWNAR1St6ZGN9LS6nXW0BzEXAgo6YvaJXDobeLztZCPMRsKADqlf01NnJvut0YB4CFnRA9YreKuOCk4VwPAELWpa2tqte0WdOFsLxBCxomeoVQzAp4pI7C+FwAha0KFWvbG1nIJwshCMIWNCitUJbhQGZnSwM4D4CFrRk+k2/jAsBw3L25hknC+FeAha0ZLJv9oqBKuPizWfiYgC3uSoHWpCqV1UrZTtgwKpv7OdPXY+rAahgQRtUrxiDSRh6h1sELGjY7GqRcwHDt1F9mbjiOh0QsKBx+/vxnMWijEb1Wi+dLAQBC5pmsShjU1YVWycLGTsBCxrkUmdGy8lCRk7AgiaVFosyYkW84jodxsqaBmiI1QwQ6VNmZ209zp/aip2AEVHBgoZYzQBx+zodJwsZGwELGuBaHLjL2eoLh6F3RkXAggbs79t7BXepvnBsn1bVZTzMYEEDbp6JbacH4X5rVdA6dSNeDxg4AQtq9sPTca4qDV8J4EF2107Es4beGTotQqjZWmE1AxzBdTqMgoAFNTLcDnNwnQ4jIGBBjQy3w3xcp8PQCVhQI/cOwgJcp8OAGXKHmhhuh+VUPzfnT12PqwEDooIFNTHcDsuZFPHqdH4RBkTAgrqU8VwAi3OdDgMkYEENfnRmenLQhwMsz3U6DIqABXUotQdhZa7TYUAMucOK0uxI1d7YDqAWrtNhCFSwYEV2X0G9JkVcMvRO3wlYsCK7r6B2rtOh9wQsWEH1AXA2nYAKoF6u06HnBCxYQfUt+/kAGuE6HfpMwILVnAugOa7ToaecIoQluRoHWrO7X8b5p2/EVkBPqGDBklyNA63ZWF+bbnrfDOgJAQuWdy6AdrhOh54RsGAJqT3o9CC0Ll2nYy0KvSBgwRK0B6Ejht7pCQELlnMugG4U8cr2aT+D5E3AggVpD0L3JmHonbwJWLCg6ofmuQC6tmHonZwJWLCoIv4ygBykoXeb3smSgAULcPcgZKaMC9unnSwkPwIWLGDyscFayM0k4iVD7+RGwIIFlNqDkCVD7+TGXYQwp/TmPdmL7QDyVMTO2no8e2ordgM6poIFc9rf14KArB1cp/NqQAYELJhTVe7VHoT8PWfonRxoEcKcbp6Od6snO3egB8oivv6Fa/FGQEdUsGAOPzw4oSRcQU8UZbxq6J0uCVgwB9vboXc2JvtxxaZ3uiJgwXy+FkC/GHqnQwIWHGPWZjgbQB8ZeqcTAhYcY39fuII+S5vef3RGm592CVhwDOsZoP8MvdM2AQuOdy6AvjP0TqsELDjC9Btv6VsvDEIaet+PVwJaIGDBEVyPAwNTxgVD77RBwIIjmL+C4UlD79unfXmiWQIWHM0JQhigKmRdNvROkwQsOET15nvW/BUM1sZkbxqyDL3TCAELDmH/FQze2cm+eSyaIWDBIQrX48DwlXHx5jNxMaBmAhYcplTBglEo4pW3nvHzTr0ELHgA9w/CuKyvGXqnXgIWPID5KxiZMjbLvXg1oCYCFjxAUdqRA2NTRpy7ecamd+ohYMEDVG+0XwxgfMq4uP1MfCNgRUUA97l5OmUsYKR2107Es6e2YidgSSpYcI8fukIDxm5jsh9XLCFlFQIW3GPNegagjM0qZJnHYmkCFtxrzfwVEClkXbCElGUJWHAvFSzgFktIWZIhd7hDmrmY7MW7AXBLETtr69Oh992AOalgwR329nxTBe5xsIT0csACBCy4gwF34EHSEtLt0/FiwJwELLiTAXfgEJOIl7atcWFOAhbcoSxd9gocblLEqy6FZh4CFtyhCN9OgSO4FJo5CVgwU30rNX8FHMul0MxDwIKZ/X1lf2BO6VJo81gcQcCCmcIJQmAB5rE4ioAFtxROEAILMI/FEQQsuMUJQmBB03ks9xXyAK7KgZmbp9N7JcDiqmrF+VPX42rAjAoWhBOEwGpm81gbATMCFoQThMCKytic7FvdwCcELAgnCIEalHHBPBa3CFiQOEEI1KGIF61uIBGwIKZ3EJqdAOqwYXUDiYAFMT1Oq0UI1MLqBhJrGhi9dPJnshfvBkCN9st49ukbsRWMkgoWo7e3p3oF1G+90CocMwGL0SsK81dAI87ePGN1w1gJWIyeFQ1AY8q4uH06zgWjI2AxemXhSDXQHFvex0nAgjI+HwBNOdjy/mIwKgIWo1eEb5ZAw6pW4VvPGEcYEwEL7MACWuBU4bgIWIyauQigRWdvno6XglEQsBg1O7CAlj3vrsJxELAYNTuwgJa5q3AkBCxGrZj4Jgm0y12F4yBgMW4qWEAXinjRDOiwCViMmiWjQEc2Jvuu0RkyAYtxs2QU6EoZF1yjM1wCFgB0ZGI31mAJWIxaoUUIdKmMTbuxhknAYtxKAQvonN1YA3QiYA7l92Y//Huz53J6+uWTEzBr1a/LQ07ElLFzxx/tRlE9Dv6e3enjU7FbPDv7vRalEzyTvQDoWnovSgPvXw8GowhGbRqcUmhKlZzULlubDn1vzCo7B6GpvVUGOxHToJVC2E5M4u1pGCtjKwWx4ivVc43SN8bqTW07ADJQtZTOn7oeV4NBUMEagfL7VUD69zg7DU0n4ovT53J6Rcxm7MdBzL4Vtct7/uZ2I/jm7V+Vd/xvFwd/XH53+pzC19Y0gJXxg1XC114VLPXIgVxMYlrFejYYBBWsgZlWpD6Oc/cFqaG7FbzWqkeqfFXBq/jq0d8Ef3g6zlUB60oA5KKMF566EZeC3hOweux2ZWotvlb9UJ6bhimbye91dRq69uLNeKgKXV/+ZB7sR2fiQlE6Ig1kZXftRJw6tdX+XCr1ErB6ZBqo3p9Wp75WVWnOVb91NljUzrTSFfE3//Lf44sf/th9YEB2Xn7qutUNfSdgZa78ThWkblWowsbfWv0kYu+tiF+/E/GrtyM+qJ4nHwZA52ZVrJ2gtwSsjE3nqfanM0KbQf2qgBXv3P1bKWT9aucgcO29HwCdqD6cr/7+9Tgf9JaAlbHy7+LVdFdV0Ix/qh4/O/xPp4CVgtb7P4z46OcB0CprG/pNwMrUrHplR1OTdqrHL+b7S4UtoG2qWP0mYGVK9aoFNyOWOaeTwtZ717URgeapYvWXgJWhKlylpaDfD5r1VvVYMSClma333zp4ANSuiJ2nrsWpoHcErAyV350Otp8LmlVDwLolVbLSacR3/0FVC6hXWcQ3v3AtXgt6RcDKTFW9uhCWX7bj/1SPX0ftVLWAWlVVrLX1eNby0X5xFVtuyngxaMd+NOJTn4v49Ncifu+vI574UsSJxwJgeeX0YnpLkXtGBSsjqlctu1Y9PopWpGqW9iGwAlfo9IwKVk5UrwbrsacPKlqpsvXwbwfAojZUsfpFBSsTqlcd+PvoTJrT+mVV0frgJwEwL1WsHlHByoXq1aikOa0n/6J6/Lfq108GwDxUsXpEBSsDqlcd6bCCda9U0frZm2a0gGOpYvWEClYOVK9GL1W0bs1oOXUIHEEVqydUsDqmetWhjCpY93LqEDiCKlYPqGB1rYxvBNwjnTpMM1qPnwmAe21MPnZXbe5UsDpUfifOVf8GrgTtS0tGt6IXUhUrVbNshgduc0dh9lSwurSmetWZhra4NyHNZKXZLPNZwG1lbP7oTDwXZEsFqyPl92Kz+pDfDrqRNrhfi15K1ax3M54fA9pRfYBf/f3rcT7IkgpWVyZODrKcJ/744MShahaMWxlxbvt0nAuypILVAdWrDPS4gnWn964fVLMmLd2pCORFFStfKlhdmPjGQT0ePx3xu39lGzyMlSpWvgSsLlgs2r2HYzBSqzCtdDj55eoHekD/v4D57Idh9xwJWC2bLhaNqkUINbtVzTKbBeNStQm/sX02NoKsCFhts1iUBqVwlQbgn/hSAOPh+pwMGXJvkeH2zAx81cGHv4j46d+6bgdGYvep6/FEkA0VrDZZzUCLHjl5MJuVrt0BBm/DsHteBKw2lV78tOvWFngtQxi+MnyJz4mA1RLD7Rlaj9FIy0l/xwA8DNp0ZcMzcTbIgoDVFsPt+RlRwEputQwfPhnAQE0KKxtyYci9BYbbM5U2uY90A7r7DGGwdtdOxKlTW7EbdEoFqw2Oz5KZ1DJMi0mBwdnY3zfvmwMBqw1F/GWQn0di1NJiUnNZMDxrZTwfdE7Aalj5nek3ic2ADN2ayxKyYDimw+5/5HOnawJW09YMt2drZEPuh7l1l6HhdxiOyYnpyXU6JGA1rXSiI1sC1m0pZKV7DC0lhcHQJuyYgNWg2e4rF3DSG5aSwmDY7N4xAatZhttz9nDwAOmEoZAFA2D/YqfswWpIeaWqXD0U7wb5+kn1eCc4hF1Z0Ht2YnVIBaspD5u9yt7I1zQcJ1WyUssQ6K20E8tnUUcErOZoD9J7aehdyIL+WtMm7IwWYQO0B3siFc1vBnN4/62If3szgP7RJuyIClYT1p3c6AVD7nNTyYLe2ph8bCdWFwSsJqxrD/bCiWABQhb0U+G6tk4IWE2wXLQfLBpdmJAF/TO9OuesnYxtE7BqNrt70Au5DwSspQhZ0D9OE7ZPwKqfF3GfmMNaSgpZJ78cQE84Tdg+Aatuet39ooq1tMdP2/gOfVG1Cc9qE7ZLwKpR+b3YrJ42g/6wbHQlrtWB3tiIvTgbtEbAqtPEeobeUcFaWQpZqWUIZE6bsFUCVr20B/vGDFYt0tD7p54MIGOTwoxwmwSsOpUqWL2jRVib//LnESceCyBfG9unfU61RcCqifUMPaVFWJu1qhr45F8IWZCzSQhYbRGw6nMu6B8twlqlcPXZPw8gU0WELXYtEbDqUnjR9pLrcmr3yEk7siBXtrq3R8Cqz7mgf1SwGpF2ZD1+JoAM2ereDgGrBrP5K/pKyGrEyT9xshBytD7RcWmDgFWPc0F/PRo0xMlCyM9kzWdWGwSsOpi/6jcnCRuTThYaeofMlLG5/UduHWmagFUP1w/0mRZhowy9Q34m6+awmiZgrcj+qwGwbLRxaejddTqQj+rD/4tBowSsVRWqV733G0ELUhXLPBbkwRxW8wSsVZm/6j8VrFaYx4KMmMNqnIC1qtILtPfWw6B7S8xjQT72H1LFapKAtYLyynT2SotwCAy6tybNY9mPBRkofX41ScBaxQkvzsGwC6tVn/mzg5Yh0B33EjZLwFqFAffh8GHfqjTs/sSXAujWWfcSNkfAWoUB9+Ew6N46rULIwJ5CQVMErFUYcB8Oqxo6oVUI3ZqYw2qMgLUkA+4Do4LVCa1C6JaFo80RsJZlwH1Y0poGlZROaBVCdywcbY6AtSwD7sPjJGFntAqhI2nhqEH3RghYyzJ/NTw+4DujVQgdMujeCAFrWYW+9eCoYHUqtQofPhlAywy6N0PAWp4X5NC4iLhzrtGB9hl0b4aAtYTZCUI966FJLUJ3EnbqNz5X5dynA2jRxExxIwSsZThBOFzmsDqXqlgG3qFVm0HtBKxllKpXg2UOq3MpXD1+JoD2bGz/kZBVNwFrGcqpw2WjexbSwPsJM3HQmv2HfK7VTcBaRiHpD5YKVhZSFcvAO7SnmPhcq5uAtZzPB8MkYGXjNz9vwzu0pVQ4qJ2AtZzNYJhcmZOVJ/44gDZYnl07AWs5m8Fwmf3JRlrboIoFzSvW7MKqm4C1oPJ7wtXgGXTPiioWtEAFq3YC1qL2vAgHTwUrK6pY0A6rGuolYC3KDqzhezR2bXTPiyoWtOCEgFUnAWtRdmCNwYbThHlRxYLm7TtJWCsBa3EqWGNgDis7qljQrMIcVq0ErEWt2YE1CipY2VHFgmatlT7f6iRgLcoM1jj4t5wlVSxozn71IxbURsBanI/eMbBwNEuqWNCcolDBqpOAtbjNYBysa8iSKhY0pFBAqJOAtTgvwLEw6J4lVSxoiCH3WglYCyivCFejYhohW7+pkQGN2D7rc64uAtYiPuWFNyppBsvC0Sw99nT15mVGDur3gc+5ughYi3BNzvh4q8lSClePnwmgbuve9eoiYMFRzGFl6/HTAdTNoHttBKxF2IE1PuawspWqWIbdoV6uy6mPgLUYAWtsHg77sDJmZQOQKwELjmMfVrbSygbD7lAf9xHWR8BahNLpOAlYWTPsDuRIwILjaAxnzbA71Kf0jlcbAQuOk3ZhqWJly7A71Ge9jMeDWghYMA/rGrJmszuQGwFrEWawxkvRPGs2uwO5EbBgHqlF6NqcbKVw9fBvB0A2BCyY13+K3SBbdmLB6kqdmtoIWDCvxzUKc/bISW1CIB8CFsxLvMpaCle/uRkAWRCwYF7WNWTv0c0AyIKABYv4rSBjrs4BciFgwSJOGnTPmdOEQC4ELFjEI7ERKiRZs3QUyIGABYsy7J61tHQUoGsCFixKwMqaNiEsryhjJ6iFgLUILzwSW92zl4bdAbokYMEyTgYZe9QcFtAxAQuWoU2YNVvdga4JWIsoHNFnRpswa+awYDmTIt4OaiFgLWIiYHEHbcKsWdcAdEnAgmVpE2btYQEY6JCAtRgVLD6hTZg11+bA4srCafm6CFiLMIPFvT4TZMwcFtAVAWsRawIW93gsyNgj2oSwkHX7HmsjYC1CwOJej4WQlbFPWTgKdETAWsQHAhYP8FtBpmx0hwXtqWDVRcBaQHFewOIBPhtkKg25n1BhhPl9yudcXQSsxe0E3CmdJPQhni1VLJjfqS0Bqy4C1uK8+LifYeps2YcFc7KioVYC1uIELO6Xlo7aiZUlAQvmVPp8q5OAtTj3NHG/FK58kGfJqgaYT6GAUCsBa1ESPodxdU6W0qC7je5wvMIOrFoJWIvSo+YwadD9UQE8R596MoBjTAodmjoJWIua+ADlCI+rY+XoIac84Xg6NLUSsBa1HlsBh0k7sQy7Z+eEZbBwrHJNh6ZOAtaiXJfDUezEypJlo3C89YmAVScBa0HFl70AOcZngsw88p8DOM5DPt/qJGAtZyfgMC6Azk6qYDlJCEfatcW9XgLWMgpzWBzj8SAza48EcLidoFYC1jLKeC/gKL8dht0zY6M7HK4srWiom4C1HBUsjmaze3asaoAj2PFYOwFrGU5aMA8bsbJiVQMczhb3+glYy3hIBYs5GHbPyroZLDjUmtni2glYS7Cqgbl9LsiEChYc4YSAVTcBa3k7AcdJFSzrAbIgYMGhrGhogIC1LOVU5vVpb1w5sKYBHqxwcKsRAtayJo60MqdPx4aVDd2zaBQebBLxg6B2AtaySomfOaVw5fqcLLiTEO7nBGEzBKxlPRRXA+b12bB4FMiSE4TNELCWNDtJaLaG+aRwZS9W51Sw4AGcIGyEgLWanYB5fUYg75o5LLiPE4QNEbBWYzCQ+T1a1bBUUDq1LmDBXZwgbI6AtRovTBZj8SiQkTLizaARAtYqCoPuLMj1OZ0ygwV3Kw24N0bAWsVHZrBYgioWkIn1dQGrKQLWCorz08FAL04Wo4oF5KCInVNbCgVNEbBWVepfswRVLKBj5cRBrSYJWKuy0Z1lqGJ14iH/zOG2IswRN0nAWpWN7ixLFQvokA3uzRKwVmSjO0tTxQI6dOq6AkGTBKw6WNfAslSxgA5oDzZPwKqDQXeWpYoFdGDiJpLGCVh1UMFiFapYQMvWI94IGiVg1aD4ynRQ0BwWy1HFas3+hwEkJwy4N03AqosqFqtQxWrF5KOA0UvzV6e2FAWaJmDVxRwWq1DFAlpi/qodAlZd1vWzWdHv+kYJNM/8VTsErJrYh8XKHo2NOBk0SIsQ7L9qi4BVr78JWMWTMf16STMmhtwZOfuv2iNg1WnihcuKHq4enwmARpSlQkBbBKw67etrU4PPhipWQz7+94BRW3vI51RbBKwaFeenM1hXA1aRwtWTAVCvInZObU3nhWmBgFU/5VdWl9qEDwc123s/YMyuBq0RsOpmXQN12QxqZsidMVsr4/WgNQJWzWbrGnYCVmX5aO2saWDEdq1naJeA1QSnNKjLZlAT4YpRK3RX2iZgNcMLmXpY21Ab81eMWWk+uHUCVgOKr07LsLa6Uw/LR2uhgsWYra9rD7ZNwGqKYULqYm1DLfbswGKk0nLRU1u+9LdNwGqONiH1SW1CA+8r+ViLkLFa83nUBQGrIdqE1O5zwQrMYDFW69YHdULAapI2IXVKFSwD70tzTQ5jpD3YHQGrWb41UC8D70sz5M4oaQ92RsBq0KxNuBNQlxSuPu/b6DI++nnA2Ox+4Vq8FnRCwGqaNiF1eyI2DLwv5qNfBIyP5aKdErCadsK3BxqwGVqFC9AeZIzcPdgtAaths7sJrwbUyYb3hXyogsXYFLHj7sFuCVjtcEUB9UsD748Gc7BklLEp3YnbOQGrDR9P24QGk6nf7wZzUMFibNZPxKWgUwJWC4rzVbjSC6cJdmPNxQlCxqSIuHpqywn2rglY7XGag2akVuHDwSHSCUJD7ozJpPCFPgcCVktmO7G2AuqWThNuBoewwZ1RKWLH7qs8CFhtMnRIU7QKD2UHFiNzNciCgNWmvenQoWF3mqFV+EC/fidgNNbW4+UgCwJWiwy70yitwgcy4M5YGG7Pi4DVPsPuNEer8C577xtwZzwmRXwryIaA1bLZsPvVgKb817CAdObDXwaMw8Fwuy/wGRGwulDqkdOwz4e7CisfmL9iJMrwuZIbAasDsyqWYXeakypYT8bo2eDOSOyur+uM5EbA6kqpV07D0izWYzFaafbqg58EDF8Rbxhuz4+A1RUrG2jDZoy2VWj/FWNhNUOeBKyOzFY2qGLRrLQXazNG6VdvBwxfEa+pXuVJwOqSKhZt2IhRrm4wf8UYqF7lS8Dq0LSKFa7PoQUj2/Ju/ooxsFg0bwJW19bjpYCmpTmsP4zRzGO5HocxKKxmyJqA1bHiy9W3j8JyOFqQKlgjWd3wHzsBgzatXl23miFnAlYOJobdaUmaxToZg6eCxdC5Fid/AlYGXJ9Dq9JVOgOex0rrGdIdhDBYrsXpBQErF67PoS0Dn8dSvWLoXIvTDwJWJlSxaNWA57Hsv2LQDqpXrwXZE7ByUsQLAW35TAxuP1ZqDVrPwJCtlfHNoBcErIwUX4mt6un1gLakeaxHYzC0BxkyJwf7RcDKjb1YtO2pGMzQ+/s/DBisvVKXo08ErMxM92K5o5A2DeS+Qu1BBq2I156+Me1y0BMCVo72plUsdxTSnsfioF3YY9qDDJk7B/tHwMrQ9I5CVSza1vOhd+1BBquqXrlzsH8ErFztxaVQxaJtaXVDD4fetQcZMtWrfhKwMjWtYlnbQNvS8tEeDr1rDzJgL6te9VMRZK38blypns4FtOk/qsdb1WM/euGfL0d89POAYSli56lrcSroJRWs3LlChy6kNmFPht7T3YPCFUPkSpx+E7AyN71Cp3CpJx04WT0+F9l773rA8LgSp/cErD5Ym85iGXinfWno/WRkzfwVQ7S2HueDXhOwesDyUTqV8XU67791cIIQBsVahkEQsPriYG3DTkDbMj5ZaPcVg1O1Bq1lGAYBqydmy0fdok43Urj6wzgIW5mw+4ohKq1lGAwBq0cMvNOpFLKejmxC1rv/EDAsBtsHRcDqGwPvdCmT9Q2pepXmr2BIDLYPi4DVM9OBd7tR6FIG6xucHGSAtAYHxib3nrLhnc6l+aeOgs7/+x9ODzIgNrYPkgpWX61PB961CulO2pH1mWid1QwMzcQBpkESsHrKbiyykOaxWl5EaridISkjvvUH1+NqMDgCVo8VX42XqqetgC61uIj0V2+rXjEgVWtw/cT0fZwBErD6rlBapmNpbUNa39BCyHLvIEOSWoOntox6DJWA1XPFV6YVrBcCutTCtvcP3rFYlOHQGhw+AWsAij+dXqNzNaBLt7a9NxSyfmn2iqHQGhwFAWsonCokBw2FLNUrhiQtFNUaHD4BayAsICUbDYQs1SsGxELRkbBodGDKv4vLVXP/uYCufVQ9/u/seQWpevWT/xnQfxaKjooK1tB8NG0V7gR0raZK1s/eDOi/InbdNTguAtbAFOervr6twORixZBlaztDUUa8oDU4LgLWABVfjau2vJONFUKWre0MQVrJ8IVr8VowKgLWQFUh62JY3UAulghZqlcMgpUMoyVgDZnVDeRkgZCVgpXqFb03m7uykmGcBKwBm10I/fWAXMwZstKVOKpX9N1kYiXDmAlYAzebx7Ifi3wcE7JSsHLnIH03vQrnxvSWDUbKHqyRKL8bV6qncwG5OGRP1r+9eTB/Bb1l3xWhgjUeH09bhTsBuXhAJSsFK+GKXqvClX1XJALWSEz3Yx380Bu2JB+3QtajB39osJ2+q8LV181dkQhYIzIdei/ihYCcpJD1dMR71jLQf2mofSsgBKzRKb4Srxl6Jzt7EY9tVoWszYBeSkPtT12374pPGHIfqfLbVdBai28E5OBa3B52/8X/rqpZ1wL6ZKsKV88G3EEFa6z2p5velbLp3s/irpOEJ/8k4okvBfRDGmo/Yd8g91PBGrHye7FZBa20vmEzoAsfVo9/jBT475MG3t/9+4B8HWxqf9ZQOw+igjVis6H39M3LyUK68XY8MFwlT/xxxKe/FpCt2TU4OwEPIGCNXPGVqk04md5ZCO1KrcFjTg0+9nTE7/xVxInHArIyKeMFJwY5ioBFFH8Wb1RP1jfQntQa/Kf5/tJHTkY8+RdCFll52TU4HEfAYqr40+rNwvoG2rLgtvYUrlLIevhkQKesY2Behty5S/mdKmgV8XxAU96pHj+JpVnjQGeKeOOpa04MMh8VLO5SfDUuxiReD2hCmrlaIVwl1jjQka21dfOqzE/A4n52ZNGENHe1E7VIJwxPfrl6A3s4oHkHu67SiUEnrpmbFiEPVF6JjXhouiPrbEAdbkbtC0HS3YU/+V/uMKRBKVxZx8ASBCwOZREptVlx7uooKVz9699GfPSLgHoJV6xAwOJIQhYrS9WlBU8NLsPwO7USrliRGSyONN32Xr3JRHiTYQk1zl0dx/A7tRGuqIEKFnNRyWIpqaL0UbTqw6pV+NO/NZfFkoQraiJgMTchi4X8c/X4aXTCXBZLEa6okYDFQoQs5tLgUPsi3v2H6vH3AccTrqiZgMXChCyOlFYx3IxsvP9WxC++FzFpuVVJjwhXNEDAYilCFg+Uhtr/MdKy2qzYl8WhhCsaImCxNCGLu6RwldYxZFopShWs1DK0yoHbhCsaJGCxklnIuhw2vo/bXhxUrnrQhtMyZEq4omECFitzrQ5NXIPTJC3D0dtaOxFfF65okoBFbcpvx2uxFt8IxqXDdQyrcspwfKoPvavFQbhycTONErCoVfmduFS9qp4PxiGTdQyr+NXbBy1D1azhK4t4/QvX4kJACwQsaleFrJeqV9aLwbANIFzdksJVqma938KdiXTm5aeuV+9N0BIBi0aU342L1dMrwTANKFzd6b3rBy1DA/CDI1zROgGLxpTfjudiLV6tfrkRDMfPqsc/xWAZgB+QInbLSbzwhRvxWkDLBCwaZVfWwKS7/XZiFAzA99zBGoY0zL4V0AEBi8YJWQMxonB1i2pWT9lxRQbWAhpWfLl6k/s4no0yvhX00wjDVXLisYjf++uIJ74U9EURb1Th6lnhiq6pYNEqJwx7aKAD7YtSzeoFw+xkQ8CidYbfe0S4uo/ZrAwZZidDAhadMJfVA8LVoVIV62ffjvjAP5/uGWYnUwIWnZndYXip+qXrdXIjXM0lLSZNFS1tw2649oacCVh0zlxWZt6uHj8P5mQLfGfMW5E1AYsslH8XZ6OMy6Fl2J296vHj6qEasxR3GrakiN1JGV//g+txNSBjAhbZmM1lpeH3c0G7PqweqQLjipiVGYJvzqwl+E0rGOgDAYvsaBm27D+qx80QrmqkbdgILUF6RcAiS1qGLUkLRNO9gvtBAwzB16CInaol+E0tQfpGwCJbs5bhS+GUYTOcFGzNrWqWoLWgg63s33RKkD4SsMheVc26UFWzUstwM1hdGmb/l3BSsGXahgtIg+yTePkPbkzXuEAvCVj0ggH4mhhm75wlpUczyM5QCFj0SvnduFg9vRIsLjVZdsK8VSbMZ91D1YqBEbDoHdfsLOGfq8dPgwwJWqpWDJOARW/NqllpNsul0YdJLcG0guHXQcYmVcv2vesjHIRXtWLABCx6bVrNmlQtwzKeC+6mJdg7YxqEV7Vi6AQsBsFJwzukU4L/GlqCPTbooKVqxUgIWAyGvVlxcI/gTjglOBBDC1plxLfWT8RL9loxBgIWgzPaLfAG2QdrAEFraxLxgm3sjImAxWDNhuCfj6EHrXSX4E4YZB+B3gUt7UBGTMBi0AbdNkyzVv8WrrsZoT4ELe1Axk7AYhQGtwnerBWRZ9BKpwP3o6paaQcycgIWo9L704ZOCPIAKWi9dyPiVzsd7tEqYmdSxjcFKzggYDFKvQxaP4uDdqC9Vhxi8mEVst5ueTN8mrMq41tVsHopgNsELEZr2jbcq4JWMQ1a+UoflO/MnmFOjV/BMwtWJ07EJXNWcD8Bi9HLdhA+XXOTgtUvApb2wTsHYau2OS3BCuYiYMFMNkHr1unANGelHUhNbg3E//qdFapaRby2th4vCFZwPAEL7tFp0EoVK8GKhi3cPjwIVi+7NxDmJ2DBIVoNWqkNmAbYrV2gRUe2D7UCYSUCFhzjjqD1taj71KFgRQZSJSu1DqdVrX8XrKAOAhbMaRq0JnGulvUOghX52a1e39/aeV2wgjoIWLCEpfZopeH1X8bBjJVgRS6KuFpVaL9VvBBvBFAbAQtWUH6nqmgVVdg6ak7LqUBydBCsXq6C1dUAaidgQQ0eOKeVTmilRktqBwpW5GHaBqyeL1XBShsQGiRgQc2m7cMfVxWtXw7kYmn6T7UKWidgQUPKV6pK1lpDpw/heKpV0CEBC1pQha1zVdi6ELldx8PQ7N4xtH41gM4IWNCiKmhtVE/PxXoVtEotRGpyEKr+pvrVa6pVkAcBCzoybSFGFbKELZYhVEHWBCzIgLDFXA5C1ZtxEKp2AsiWgAWZEba4i0oV9JKABRmbzWylAfnnwmnEsUiD6m/MKlVvCFXQTwIW9EgVuM7GQXXrL1W3BuST1t9Vp/9gGAQs6KlZdevstLpVxBcFrl7Zqh5vxmR6/9+WKhUMj4AFAyFwZSu1/Laqfx8/qALV1TioUglUMHACFgzYdMFpCl3r8bXqA35z+muatjNr+f0gDipVKlQwQgIWjMjtKpfQVZc7w9ROqE4BMwIWcGt4Pt2deHbWXtwMwetOO7M239tVm29alUq/J0wBhxGwgEPNgtet2a7N6h3j87PwtTn7/aHYjU9mpVKI2omDilQKUruCFLAoAQtYyqzduBkxe16b/bqIx6d/XE5//9Zf05Wd6X8WtwNT3BGgdme/pxIF1E7AAloxC2R3PuKeXx9YOyKQTWaVprvtzJ5v/znXyAAAAAAAAAAAAAAAAAAAAAAAAAAAAAAAAAAAAAAAAAAAAAAAAAAAAAAAAAAAAAAAAAAAAAAAAJCR/w+4WK4xfGFFmgAAAABJRU5ErkJggg==;fontColor=#999999;labelPosition=right;align=left;spacingLeft=20;" vertex="1" parent="mu3TLzRvKkOABFL3PFfV-81">
          <mxGeometry x="11.379999999999999" y="12.5" width="35" height="35" as="geometry" />
        </mxCell>
        <mxCell id="mu3TLzRvKkOABFL3PFfV-83" value="" style="strokeColor=#dddddd;shadow=1;strokeWidth=1;rounded=1;absoluteArcSize=1;arcSize=2;recursiveResize=0;" vertex="1" parent="mu3TLzRvKkOABFL3PFfV-56">
          <mxGeometry x="320" y="310" width="180" height="60" as="geometry" />
        </mxCell>
        <mxCell id="mu3TLzRvKkOABFL3PFfV-84" value="Cloud Storage&#xa;for Firebase" style="shape=image;verticalLabelPosition=middle;labelBackgroundColor=default;verticalAlign=middle;aspect=fixed;imageAspect=0;image=data:image/png,iVBORw0KGgoAAAANSUhEUgAAAlgAAAJYCAYAAAC+ZpjcAAAACXBIWXMAAAsTAAALEwEAmpwYAAAAAXNSR0IArs4c6QAAAARnQU1BAACxjwv8YQUAAC8MSURBVHgB7d3Nk113eSfw53TLNnHicXsUYHAyoRUTJ1WWCjlsQhGCtMgqUxWTVXaIv8DyX2B7OSuLv8D2bnZyqmZWWUgGUswmoSlJkxqD6PYkwYEAbpdD8Ev3PXN+t69kvXX3fTkvv3PO51N1ubJsQ2Hfvvd7n+f5Pb8IAAAAAAAAAAAAAAAAAAAAAAAAAAAAAAAAAAAAAAAAAAAAAAAAAAAAAAAAAAAAAAAAAIBFbZ+JV358Oq4EQAaKAOix7bOxUe7F5TLi3PQ3irj01LV4IQA6tBYAPVWFq83Jfnz/drhKyri4fTpeDIAOqWABvVSFqHOTIi5XgWrjQX9+rYwLp27E6wHQAQEL6J0qXD0/ibh0zF+2u1/G+advxFYAtEyLEOiVNMw+R7hKNtbX4nJqIwZAy1SwgF64b5h9XkXsrK3Hs6e2YjcAWqKCBWTvgcPs8yqrv3cvXg2AFglYQNaqcHW2CldXUlCK5T13s2otBkBLtAiBbB13UnBhZbzw1I255rcAViJgAVma86Tgwqqy/flT1+NqADRIixDIzs3T8WIT4Sqp/nudLAQaJ2ABWbl5sIX9pWjORprpErKAJglYQDZunpme9nspmnZwsvByADTEDBbQuaV3XK2qiNeeuhbfDICaqWABnUrhqqomXWk9XCVlXHAxNNAEFSygM7MFoqvuuFqZi6GBuglYQCdyCVczLoYGaqVFCLQus3CVuBgaqJUKFtCqDMPVJ1wMDdREBQtoTdbhKnExNFATAQtoRfbh6hPPOVkIrEqLEGhcj8LVJ1wMDaxAwAIa1ctwNeNiaGBZAhbQmD6Hq5ndtRPTofedAFiAGSygEQMIV8mti6E3AmABAhZQu4GEqwPV/4fSxdDAggQsoFaDClcz6Z7Em2filQCYk4AF1GaI4eq2Mi5a3wDMy5A7UItBh6s7uBgamIeABawsDYFP9qpwFXE2hs/F0MCxtAiBlY0oXCUuhgaOJWABK7l5Znp331jC1YGDOwsvW98AHEbAApa2nU7WlXEhxunsZN/JQuDBBCxgKTdPx4uTMi7GmFXh0slC4EEMuQMLu3kQKl4KppwsBO4lYAEL2X4mvjEp4rXgLvtlPOtkIXCLgAXMbftsnJ3sxfeD+xWxs7Ye510MDSRmsIC5zBaJupPvMOXBolUnC4FEwAKONZYt7StzMTQwI2ABx0o7n4Sr+bgYGkgELOBI2wdhYVyLRFdVxsWbz4x8hQWMnCF34FDWMaym+gZ7/tT1uBrA6AhYwANtn47nJxGXglXsrp2IZ50shPERsID7WMdQo4P1DSlk7QYwGmawgLtYx1AzJwthlAQs4C7WMdTPyUIYHwELuG16YlC4akYZF10MDeNhBguYcmKwHWURX//CtXgjgEETsIB0YvDcJKrWIG3Y3S/jvIuhYdi0CGHkpkPtRbwatGVjfS0up3/uAQyWgAUjZ6i9A+li6L1pyHIxNAyUgAUjZqi9U2ercOtkIQyUgAUjNd3UXrovr1NlXHCyEIbJkDuM0GyZ6PerD3gtqgysVUHr1I14PYDBELBgZNLczyxcbQa5cLIQBkaLEEZmOvcjXOXGyUIYGAELRiTNXaW5nyA/ThbCoAhYMBLTuauIS0HOnCyEgRCwYARmc1c2tfeBk4UwCAIWjMF+9YFt7qo3qkrjS9vPxDcC6C2nCGHgfnQmLhSlq3D6aL+MZ50shH4SsGDAZvuuXIXTV0XsrK3H+VNbsRNAr2gRwoCVe1XlSrjqr/IgIDtZCP0jYMFA3TwdL5YR54J+O1jfoMULPaNFCAM0bQ3uxXYwGNW34ZdOXY+XA+gFFSwYICsZhiedLLz5jMu5oS8ELBiY1Bo0dzVQRbyyfVrbF/pAixAGpGoNnq1ag98Phmx37UQ862Qh5E0FCwZitq39cjB0G04WQv4ELBgK29rHo/r3XO4J05AzLUIYgDSXMwmD7aNTxKWnrsULAWRHwIKem7UGv696NVJlvPDUjbgUQFa0CKHnJnvxvHA1Yk4WQpZUsKDHLBRlxslCyIwKFvSYhaLMOFkImRGwoKcsFOUuThZCVrQIoYe0BjmUk4WQBRUs6KGqUvFqwIOUcdGdhdA9FSzomR+diQtFKWBxtOrb8/lT1+NqAJ0QsKBHpq3BNNhu9orjOVkIHdIihB6ZuA6H+TlZCB0SsKAnUvWqClcXAublZCF0RsCCnrDzimWUEedunolXAmiVgAU9kAbbtQZZmpOF0DpD7pA5g+3UxclCaI8KFmTOYDt1mURcns7yAY1TwYKM2dhO7YrYWVufrm/YDaAxKliQsSpcGU6mXk4WQisELMjUdLA94rmAmjlZCM0TsCBTVf/+xYCmOFkIjRKwIEPWMtCKIl7ZPh3nAqidIXfIjLUMtMydhdAAFSzIzX48L1zRIncWQgMELMjItHpVmouhZU4WQu0ELMjIdKkodMDJQqiXGSzIhKWiZKGMF566EZcCWIkKFmRC9YosFPHKW8/E2QBWooIFGfjh6ThXfdu5EpCDg+t0zjtZCMtTwYIMWCpKVsqDVSFOFsLyBCzoWFoqWgWscwE5Kaczga8GsBQBCzqmekXGnts+7fUJyxCwoEOuxCF3k4iXtp+JbwSwEEPu0KGbZ2JbwKIHdvfLOP/0jdgKYC4qWNAR1St6ZGN9LS6nXW0BzEXAgo6YvaJXDobeLztZCPMRsKADqlf01NnJvut0YB4CFnRA9YreKuOCk4VwPAELWpa2tqte0WdOFsLxBCxomeoVQzAp4pI7C+FwAha0KFWvbG1nIJwshCMIWNCitUJbhQGZnSwM4D4CFrRk+k2/jAsBw3L25hknC+FeAha0ZLJv9oqBKuPizWfiYgC3uSoHWpCqV1UrZTtgwKpv7OdPXY+rAahgQRtUrxiDSRh6h1sELGjY7GqRcwHDt1F9mbjiOh0QsKBx+/vxnMWijEb1Wi+dLAQBC5pmsShjU1YVWycLGTsBCxrkUmdGy8lCRk7AgiaVFosyYkW84jodxsqaBmiI1QwQ6VNmZ209zp/aip2AEVHBgoZYzQBx+zodJwsZGwELGuBaHLjL2eoLh6F3RkXAggbs79t7BXepvnBsn1bVZTzMYEEDbp6JbacH4X5rVdA6dSNeDxg4AQtq9sPTca4qDV8J4EF2107Es4beGTotQqjZWmE1AxzBdTqMgoAFNTLcDnNwnQ4jIGBBjQy3w3xcp8PQCVhQI/cOwgJcp8OAGXKHmhhuh+VUPzfnT12PqwEDooIFNTHcDsuZFPHqdH4RBkTAgrqU8VwAi3OdDgMkYEENfnRmenLQhwMsz3U6DIqABXUotQdhZa7TYUAMucOK0uxI1d7YDqAWrtNhCFSwYEV2X0G9JkVcMvRO3wlYsCK7r6B2rtOh9wQsWEH1AXA2nYAKoF6u06HnBCxYQfUt+/kAGuE6HfpMwILVnAugOa7ToaecIoQluRoHWrO7X8b5p2/EVkBPqGDBklyNA63ZWF+bbnrfDOgJAQuWdy6AdrhOh54RsGAJqT3o9CC0Ll2nYy0KvSBgwRK0B6Ejht7pCQELlnMugG4U8cr2aT+D5E3AggVpD0L3JmHonbwJWLCg6ofmuQC6tmHonZwJWLCoIv4ygBykoXeb3smSgAULcPcgZKaMC9unnSwkPwIWLGDyscFayM0k4iVD7+RGwIIFlNqDkCVD7+TGXYQwp/TmPdmL7QDyVMTO2no8e2ordgM6poIFc9rf14KArB1cp/NqQAYELJhTVe7VHoT8PWfonRxoEcKcbp6Od6snO3egB8oivv6Fa/FGQEdUsGAOPzw4oSRcQU8UZbxq6J0uCVgwB9vboXc2JvtxxaZ3uiJgwXy+FkC/GHqnQwIWHGPWZjgbQB8ZeqcTAhYcY39fuII+S5vef3RGm592CVhwDOsZoP8MvdM2AQuOdy6AvjP0TqsELDjC9Btv6VsvDEIaet+PVwJaIGDBEVyPAwNTxgVD77RBwIIjmL+C4UlD79unfXmiWQIWHM0JQhigKmRdNvROkwQsOET15nvW/BUM1sZkbxqyDL3TCAELDmH/FQze2cm+eSyaIWDBIQrX48DwlXHx5jNxMaBmAhYcplTBglEo4pW3nvHzTr0ELHgA9w/CuKyvGXqnXgIWPID5KxiZMjbLvXg1oCYCFjxAUdqRA2NTRpy7ecamd+ohYMEDVG+0XwxgfMq4uP1MfCNgRUUA97l5OmUsYKR2107Es6e2YidgSSpYcI8fukIDxm5jsh9XLCFlFQIW3GPNegagjM0qZJnHYmkCFtxrzfwVEClkXbCElGUJWHAvFSzgFktIWZIhd7hDmrmY7MW7AXBLETtr69Oh992AOalgwR329nxTBe5xsIT0csACBCy4gwF34EHSEtLt0/FiwJwELLiTAXfgEJOIl7atcWFOAhbcoSxd9gocblLEqy6FZh4CFtyhCN9OgSO4FJo5CVgwU30rNX8FHMul0MxDwIKZ/X1lf2BO6VJo81gcQcCCmcIJQmAB5rE4ioAFtxROEAILMI/FEQQsuMUJQmBB03ks9xXyAK7KgZmbp9N7JcDiqmrF+VPX42rAjAoWhBOEwGpm81gbATMCFoQThMCKytic7FvdwCcELAgnCIEalHHBPBa3CFiQOEEI1KGIF61uIBGwIKZ3EJqdAOqwYXUDiYAFMT1Oq0UI1MLqBhJrGhi9dPJnshfvBkCN9st49ukbsRWMkgoWo7e3p3oF1G+90CocMwGL0SsK81dAI87ePGN1w1gJWIyeFQ1AY8q4uH06zgWjI2AxemXhSDXQHFvex0nAgjI+HwBNOdjy/mIwKgIWo1eEb5ZAw6pW4VvPGEcYEwEL7MACWuBU4bgIWIyauQigRWdvno6XglEQsBg1O7CAlj3vrsJxELAYNTuwgJa5q3AkBCxGrZj4Jgm0y12F4yBgMW4qWEAXinjRDOiwCViMmiWjQEc2Jvuu0RkyAYtxs2QU6EoZF1yjM1wCFgB0ZGI31mAJWIxaoUUIdKmMTbuxhknAYtxKAQvonN1YA3QiYA7l92Y//Huz53J6+uWTEzBr1a/LQ07ElLFzxx/tRlE9Dv6e3enjU7FbPDv7vRalEzyTvQDoWnovSgPvXw8GowhGbRqcUmhKlZzULlubDn1vzCo7B6GpvVUGOxHToJVC2E5M4u1pGCtjKwWx4ivVc43SN8bqTW07ADJQtZTOn7oeV4NBUMEagfL7VUD69zg7DU0n4ovT53J6Rcxm7MdBzL4Vtct7/uZ2I/jm7V+Vd/xvFwd/XH53+pzC19Y0gJXxg1XC114VLPXIgVxMYlrFejYYBBWsgZlWpD6Oc/cFqaG7FbzWqkeqfFXBq/jq0d8Ef3g6zlUB60oA5KKMF566EZeC3hOweux2ZWotvlb9UJ6bhimbye91dRq69uLNeKgKXV/+ZB7sR2fiQlE6Ig1kZXftRJw6tdX+XCr1ErB6ZBqo3p9Wp75WVWnOVb91NljUzrTSFfE3//Lf44sf/th9YEB2Xn7qutUNfSdgZa78ThWkblWowsbfWv0kYu+tiF+/E/GrtyM+qJ4nHwZA52ZVrJ2gtwSsjE3nqfanM0KbQf2qgBXv3P1bKWT9aucgcO29HwCdqD6cr/7+9Tgf9JaAlbHy7+LVdFdV0Ix/qh4/O/xPp4CVgtb7P4z46OcB0CprG/pNwMrUrHplR1OTdqrHL+b7S4UtoG2qWP0mYGVK9aoFNyOWOaeTwtZ717URgeapYvWXgJWhKlylpaDfD5r1VvVYMSClma333zp4ANSuiJ2nrsWpoHcErAyV350Otp8LmlVDwLolVbLSacR3/0FVC6hXWcQ3v3AtXgt6RcDKTFW9uhCWX7bj/1SPX0ftVLWAWlVVrLX1eNby0X5xFVtuyngxaMd+NOJTn4v49Ncifu+vI574UsSJxwJgeeX0YnpLkXtGBSsjqlctu1Y9PopWpGqW9iGwAlfo9IwKVk5UrwbrsacPKlqpsvXwbwfAojZUsfpFBSsTqlcd+PvoTJrT+mVV0frgJwEwL1WsHlHByoXq1aikOa0n/6J6/Lfq108GwDxUsXpEBSsDqlcd6bCCda9U0frZm2a0gGOpYvWEClYOVK9GL1W0bs1oOXUIHEEVqydUsDqmetWhjCpY93LqEDiCKlYPqGB1rYxvBNwjnTpMM1qPnwmAe21MPnZXbe5UsDpUfifOVf8GrgTtS0tGt6IXUhUrVbNshgduc0dh9lSwurSmetWZhra4NyHNZKXZLPNZwG1lbP7oTDwXZEsFqyPl92Kz+pDfDrqRNrhfi15K1ax3M54fA9pRfYBf/f3rcT7IkgpWVyZODrKcJ/744MShahaMWxlxbvt0nAuypILVAdWrDPS4gnWn964fVLMmLd2pCORFFStfKlhdmPjGQT0ePx3xu39lGzyMlSpWvgSsLlgs2r2HYzBSqzCtdDj55eoHekD/v4D57Idh9xwJWC2bLhaNqkUINbtVzTKbBeNStQm/sX02NoKsCFhts1iUBqVwlQbgn/hSAOPh+pwMGXJvkeH2zAx81cGHv4j46d+6bgdGYvep6/FEkA0VrDZZzUCLHjl5MJuVrt0BBm/DsHteBKw2lV78tOvWFngtQxi+MnyJz4mA1RLD7Rlaj9FIy0l/xwA8DNp0ZcMzcTbIgoDVFsPt+RlRwEputQwfPhnAQE0KKxtyYci9BYbbM5U2uY90A7r7DGGwdtdOxKlTW7EbdEoFqw2Oz5KZ1DJMi0mBwdnY3zfvmwMBqw1F/GWQn0di1NJiUnNZMDxrZTwfdE7Aalj5nek3ic2ADN2ayxKyYDimw+5/5HOnawJW09YMt2drZEPuh7l1l6HhdxiOyYnpyXU6JGA1rXSiI1sC1m0pZKV7DC0lhcHQJuyYgNWg2e4rF3DSG5aSwmDY7N4xAatZhttz9nDwAOmEoZAFA2D/YqfswWpIeaWqXD0U7wb5+kn1eCc4hF1Z0Ht2YnVIBaspD5u9yt7I1zQcJ1WyUssQ6K20E8tnUUcErOZoD9J7aehdyIL+WtMm7IwWYQO0B3siFc1vBnN4/62If3szgP7RJuyIClYT1p3c6AVD7nNTyYLe2ph8bCdWFwSsJqxrD/bCiWABQhb0U+G6tk4IWE2wXLQfLBpdmJAF/TO9OuesnYxtE7BqNrt70Au5DwSspQhZ0D9OE7ZPwKqfF3GfmMNaSgpZJ78cQE84Tdg+Aatuet39ooq1tMdP2/gOfVG1Cc9qE7ZLwKpR+b3YrJ42g/6wbHQlrtWB3tiIvTgbtEbAqtPEeobeUcFaWQpZqWUIZE6bsFUCVr20B/vGDFYt0tD7p54MIGOTwoxwmwSsOpUqWL2jRVib//LnESceCyBfG9unfU61RcCqifUMPaVFWJu1qhr45F8IWZCzSQhYbRGw6nMu6B8twlqlcPXZPw8gU0WELXYtEbDqUnjR9pLrcmr3yEk7siBXtrq3R8Cqz7mgf1SwGpF2ZD1+JoAM2ereDgGrBrP5K/pKyGrEyT9xshBytD7RcWmDgFWPc0F/PRo0xMlCyM9kzWdWGwSsOpi/6jcnCRuTThYaeofMlLG5/UduHWmagFUP1w/0mRZhowy9Q34m6+awmiZgrcj+qwGwbLRxaejddTqQj+rD/4tBowSsVRWqV733G0ELUhXLPBbkwRxW8wSsVZm/6j8VrFaYx4KMmMNqnIC1qtILtPfWw6B7S8xjQT72H1LFapKAtYLyynT2SotwCAy6tybNY9mPBRkofX41ScBaxQkvzsGwC6tVn/mzg5Yh0B33EjZLwFqFAffh8GHfqjTs/sSXAujWWfcSNkfAWoUB9+Ew6N46rULIwJ5CQVMErFUYcB8Oqxo6oVUI3ZqYw2qMgLUkA+4Do4LVCa1C6JaFo80RsJZlwH1Y0poGlZROaBVCdywcbY6AtSwD7sPjJGFntAqhI2nhqEH3RghYyzJ/NTw+4DujVQgdMujeCAFrWYW+9eCoYHUqtQofPhlAywy6N0PAWp4X5NC4iLhzrtGB9hl0b4aAtYTZCUI966FJLUJ3EnbqNz5X5dynA2jRxExxIwSsZThBOFzmsDqXqlgG3qFVm0HtBKxllKpXg2UOq3MpXD1+JoD2bGz/kZBVNwFrGcqpw2WjexbSwPsJM3HQmv2HfK7VTcBaRiHpD5YKVhZSFcvAO7SnmPhcq5uAtZzPB8MkYGXjNz9vwzu0pVQ4qJ2AtZzNYJhcmZOVJ/44gDZYnl07AWs5m8Fwmf3JRlrboIoFzSvW7MKqm4C1oPJ7wtXgGXTPiioWtEAFq3YC1qL2vAgHTwUrK6pY0A6rGuolYC3KDqzhezR2bXTPiyoWtOCEgFUnAWtRdmCNwYbThHlRxYLm7TtJWCsBa3EqWGNgDis7qljQrMIcVq0ErEWt2YE1CipY2VHFgmatlT7f6iRgLcoM1jj4t5wlVSxozn71IxbURsBanI/eMbBwNEuqWNCcolDBqpOAtbjNYBysa8iSKhY0pFBAqJOAtTgvwLEw6J4lVSxoiCH3WglYCyivCFejYhohW7+pkQGN2D7rc64uAtYiPuWFNyppBsvC0Sw99nT15mVGDur3gc+5ughYi3BNzvh4q8lSClePnwmgbuve9eoiYMFRzGFl6/HTAdTNoHttBKxF2IE1PuawspWqWIbdoV6uy6mPgLUYAWtsHg77sDJmZQOQKwELjmMfVrbSygbD7lAf9xHWR8BahNLpOAlYWTPsDuRIwILjaAxnzbA71Kf0jlcbAQuOk3ZhqWJly7A71Ge9jMeDWghYMA/rGrJmszuQGwFrEWawxkvRPGs2uwO5EbBgHqlF6NqcbKVw9fBvB0A2BCyY13+K3SBbdmLB6kqdmtoIWDCvxzUKc/bISW1CIB8CFsxLvMpaCle/uRkAWRCwYF7WNWTv0c0AyIKABYv4rSBjrs4BciFgwSJOGnTPmdOEQC4ELFjEI7ERKiRZs3QUyIGABYsy7J61tHQUoGsCFixKwMqaNiEsryhjJ6iFgLUILzwSW92zl4bdAbokYMEyTgYZe9QcFtAxAQuWoU2YNVvdga4JWIsoHNFnRpswa+awYDmTIt4OaiFgLWIiYHEHbcKsWdcAdEnAgmVpE2btYQEY6JCAtRgVLD6hTZg11+bA4srCafm6CFiLMIPFvT4TZMwcFtAVAWsRawIW93gsyNgj2oSwkHX7HmsjYC1CwOJej4WQlbFPWTgKdETAWsQHAhYP8FtBpmx0hwXtqWDVRcBaQHFewOIBPhtkKg25n1BhhPl9yudcXQSsxe0E3CmdJPQhni1VLJjfqS0Bqy4C1uK8+LifYeps2YcFc7KioVYC1uIELO6Xlo7aiZUlAQvmVPp8q5OAtTj3NHG/FK58kGfJqgaYT6GAUCsBa1ESPodxdU6W0qC7je5wvMIOrFoJWIvSo+YwadD9UQE8R596MoBjTAodmjoJWIua+ADlCI+rY+XoIac84Xg6NLUSsBa1HlsBh0k7sQy7Z+eEZbBwrHJNh6ZOAtaiXJfDUezEypJlo3C89YmAVScBa0HFl70AOcZngsw88p8DOM5DPt/qJGAtZyfgMC6Azk6qYDlJCEfatcW9XgLWMgpzWBzj8SAza48EcLidoFYC1jLKeC/gKL8dht0zY6M7HK4srWiom4C1HBUsjmaze3asaoAj2PFYOwFrGU5aMA8bsbJiVQMczhb3+glYy3hIBYs5GHbPyroZLDjUmtni2glYS7Cqgbl9LsiEChYc4YSAVTcBa3k7AcdJFSzrAbIgYMGhrGhogIC1LOVU5vVpb1w5sKYBHqxwcKsRAtayJo60MqdPx4aVDd2zaBQebBLxg6B2AtaySomfOaVw5fqcLLiTEO7nBGEzBKxlPRRXA+b12bB4FMiSE4TNELCWNDtJaLaG+aRwZS9W51Sw4AGcIGyEgLWanYB5fUYg75o5LLiPE4QNEbBWYzCQ+T1a1bBUUDq1LmDBXZwgbI6AtRovTBZj8SiQkTLizaARAtYqCoPuLMj1OZ0ygwV3Kw24N0bAWsVHZrBYgioWkIn1dQGrKQLWCorz08FAL04Wo4oF5KCInVNbCgVNEbBWVepfswRVLKBj5cRBrSYJWKuy0Z1lqGJ14iH/zOG2IswRN0nAWpWN7ixLFQvokA3uzRKwVmSjO0tTxQI6dOq6AkGTBKw6WNfAslSxgA5oDzZPwKqDQXeWpYoFdGDiJpLGCVh1UMFiFapYQMvWI94IGiVg1aD4ynRQ0BwWy1HFas3+hwEkJwy4N03AqosqFqtQxWrF5KOA0UvzV6e2FAWaJmDVxRwWq1DFAlpi/qodAlZd1vWzWdHv+kYJNM/8VTsErJrYh8XKHo2NOBk0SIsQ7L9qi4BVr78JWMWTMf16STMmhtwZOfuv2iNg1WnihcuKHq4enwmARpSlQkBbBKw67etrU4PPhipWQz7+94BRW3vI51RbBKwaFeenM1hXA1aRwtWTAVCvInZObU3nhWmBgFU/5VdWl9qEDwc123s/YMyuBq0RsOpmXQN12QxqZsidMVsr4/WgNQJWzWbrGnYCVmX5aO2saWDEdq1naJeA1QSnNKjLZlAT4YpRK3RX2iZgNcMLmXpY21Ab81eMWWk+uHUCVgOKr07LsLa6Uw/LR2uhgsWYra9rD7ZNwGqKYULqYm1DLfbswGKk0nLRU1u+9LdNwGqONiH1SW1CA+8r+ViLkLFa83nUBQGrIdqE1O5zwQrMYDFW69YHdULAapI2IXVKFSwD70tzTQ5jpD3YHQGrWb41UC8D70sz5M4oaQ92RsBq0KxNuBNQlxSuPu/b6DI++nnA2Ox+4Vq8FnRCwGqaNiF1eyI2DLwv5qNfBIyP5aKdErCadsK3BxqwGVqFC9AeZIzcPdgtAaths7sJrwbUyYb3hXyogsXYFLHj7sFuCVjtcEUB9UsD748Gc7BklLEp3YnbOQGrDR9P24QGk6nf7wZzUMFibNZPxKWgUwJWC4rzVbjSC6cJdmPNxQlCxqSIuHpqywn2rglY7XGag2akVuHDwSHSCUJD7ozJpPCFPgcCVktmO7G2AuqWThNuBoewwZ1RKWLH7qs8CFhtMnRIU7QKD2UHFiNzNciCgNWmvenQoWF3mqFV+EC/fidgNNbW4+UgCwJWiwy70yitwgcy4M5YGG7Pi4DVPsPuNEer8C577xtwZzwmRXwryIaA1bLZsPvVgKb817CAdObDXwaMw8Fwuy/wGRGwulDqkdOwz4e7CisfmL9iJMrwuZIbAasDsyqWYXeakypYT8bo2eDOSOyur+uM5EbA6kqpV07D0izWYzFaafbqg58EDF8Rbxhuz4+A1RUrG2jDZoy2VWj/FWNhNUOeBKyOzFY2qGLRrLQXazNG6VdvBwxfEa+pXuVJwOqSKhZt2IhRrm4wf8UYqF7lS8Dq0LSKFa7PoQUj2/Ju/ooxsFg0bwJW19bjpYCmpTmsP4zRzGO5HocxKKxmyJqA1bHiy9W3j8JyOFqQKlgjWd3wHzsBgzatXl23miFnAlYOJobdaUmaxToZg6eCxdC5Fid/AlYGXJ9Dq9JVOgOex0rrGdIdhDBYrsXpBQErF67PoS0Dn8dSvWLoXIvTDwJWJlSxaNWA57Hsv2LQDqpXrwXZE7ByUsQLAW35TAxuP1ZqDVrPwJCtlfHNoBcErIwUX4mt6un1gLakeaxHYzC0BxkyJwf7RcDKjb1YtO2pGMzQ+/s/DBisvVKXo08ErMxM92K5o5A2DeS+Qu1BBq2I156+Me1y0BMCVo72plUsdxTSnsfioF3YY9qDDJk7B/tHwMrQ9I5CVSza1vOhd+1BBquqXrlzsH8ErFztxaVQxaJtaXVDD4fetQcZMtWrfhKwMjWtYlnbQNvS8tEeDr1rDzJgL6te9VMRZK38blypns4FtOk/qsdb1WM/euGfL0d89POAYSli56lrcSroJRWs3LlChy6kNmFPht7T3YPCFUPkSpx+E7AyN71Cp3CpJx04WT0+F9l773rA8LgSp/cErD5Ym85iGXinfWno/WRkzfwVQ7S2HueDXhOwesDyUTqV8XU67791cIIQBsVahkEQsPriYG3DTkDbMj5ZaPcVg1O1Bq1lGAYBqydmy0fdok43Urj6wzgIW5mw+4ohKq1lGAwBq0cMvNOpFLKejmxC1rv/EDAsBtsHRcDqGwPvdCmT9Q2pepXmr2BIDLYPi4DVM9OBd7tR6FIG6xucHGSAtAYHxib3nrLhnc6l+aeOgs7/+x9ODzIgNrYPkgpWX61PB961CulO2pH1mWid1QwMzcQBpkESsHrKbiyykOaxWl5EaridISkjvvUH1+NqMDgCVo8VX42XqqetgC61uIj0V2+rXjEgVWtw/cT0fZwBErD6rlBapmNpbUNa39BCyHLvIEOSWoOntox6DJWA1XPFV6YVrBcCutTCtvcP3rFYlOHQGhw+AWsAij+dXqNzNaBLt7a9NxSyfmn2iqHQGhwFAWsonCokBw2FLNUrhiQtFNUaHD4BayAsICUbDYQs1SsGxELRkbBodGDKv4vLVXP/uYCufVQ9/u/seQWpevWT/xnQfxaKjooK1tB8NG0V7gR0raZK1s/eDOi/InbdNTguAtbAFOervr6twORixZBlaztDUUa8oDU4LgLWABVfjau2vJONFUKWre0MQVrJ8IVr8VowKgLWQFUh62JY3UAulghZqlcMgpUMoyVgDZnVDeRkgZCVgpXqFb03m7uykmGcBKwBm10I/fWAXMwZstKVOKpX9N1kYiXDmAlYAzebx7Ifi3wcE7JSsHLnIH03vQrnxvSWDUbKHqyRKL8bV6qncwG5OGRP1r+9eTB/Bb1l3xWhgjUeH09bhTsBuXhAJSsFK+GKXqvClX1XJALWSEz3Yx380Bu2JB+3QtajB39osJ2+q8LV181dkQhYIzIdei/ihYCcpJD1dMR71jLQf2mofSsgBKzRKb4Srxl6Jzt7EY9tVoWszYBeSkPtT12374pPGHIfqfLbVdBai28E5OBa3B52/8X/rqpZ1wL6ZKsKV88G3EEFa6z2p5velbLp3s/irpOEJ/8k4okvBfRDGmo/Yd8g91PBGrHye7FZBa20vmEzoAsfVo9/jBT475MG3t/9+4B8HWxqf9ZQOw+igjVis6H39M3LyUK68XY8MFwlT/xxxKe/FpCt2TU4OwEPIGCNXPGVqk04md5ZCO1KrcFjTg0+9nTE7/xVxInHArIyKeMFJwY5ioBFFH8Wb1RP1jfQntQa/Kf5/tJHTkY8+RdCFll52TU4HEfAYqr40+rNwvoG2rLgtvYUrlLIevhkQKesY2Behty5S/mdKmgV8XxAU96pHj+JpVnjQGeKeOOpa04MMh8VLO5SfDUuxiReD2hCmrlaIVwl1jjQka21dfOqzE/A4n52ZNGENHe1E7VIJwxPfrl6A3s4oHkHu67SiUEnrpmbFiEPVF6JjXhouiPrbEAdbkbtC0HS3YU/+V/uMKRBKVxZx8ASBCwOZREptVlx7uooKVz9699GfPSLgHoJV6xAwOJIQhYrS9WlBU8NLsPwO7USrliRGSyONN32Xr3JRHiTYQk1zl0dx/A7tRGuqIEKFnNRyWIpqaL0UbTqw6pV+NO/NZfFkoQraiJgMTchi4X8c/X4aXTCXBZLEa6okYDFQoQs5tLgUPsi3v2H6vH3AccTrqiZgMXChCyOlFYx3IxsvP9WxC++FzFpuVVJjwhXNEDAYilCFg+Uhtr/MdKy2qzYl8WhhCsaImCxNCGLu6RwldYxZFopShWs1DK0yoHbhCsaJGCxklnIuhw2vo/bXhxUrnrQhtMyZEq4omECFitzrQ5NXIPTJC3D0dtaOxFfF65okoBFbcpvx2uxFt8IxqXDdQyrcspwfKoPvavFQbhycTONErCoVfmduFS9qp4PxiGTdQyr+NXbBy1D1azhK4t4/QvX4kJACwQsaleFrJeqV9aLwbANIFzdksJVqma938KdiXTm5aeuV+9N0BIBi0aU342L1dMrwTANKFzd6b3rBy1DA/CDI1zROgGLxpTfjudiLV6tfrkRDMfPqsc/xWAZgB+QInbLSbzwhRvxWkDLBCwaZVfWwKS7/XZiFAzA99zBGoY0zL4V0AEBi8YJWQMxonB1i2pWT9lxRQbWAhpWfLl6k/s4no0yvhX00wjDVXLisYjf++uIJ74U9EURb1Th6lnhiq6pYNEqJwx7aKAD7YtSzeoFw+xkQ8CidYbfe0S4uo/ZrAwZZidDAhadMJfVA8LVoVIV62ffjvjAP5/uGWYnUwIWnZndYXip+qXrdXIjXM0lLSZNFS1tw2649oacCVh0zlxWZt6uHj8P5mQLfGfMW5E1AYsslH8XZ6OMy6Fl2J296vHj6qEasxR3GrakiN1JGV//g+txNSBjAhbZmM1lpeH3c0G7PqweqQLjipiVGYJvzqwl+E0rGOgDAYvsaBm27D+qx80QrmqkbdgILUF6RcAiS1qGLUkLRNO9gvtBAwzB16CInaol+E0tQfpGwCJbs5bhS+GUYTOcFGzNrWqWoLWgg63s33RKkD4SsMheVc26UFWzUstwM1hdGmb/l3BSsGXahgtIg+yTePkPbkzXuEAvCVj0ggH4mhhm75wlpUczyM5QCFj0SvnduFg9vRIsLjVZdsK8VSbMZ91D1YqBEbDoHdfsLOGfq8dPgwwJWqpWDJOARW/NqllpNsul0YdJLcG0guHXQcYmVcv2vesjHIRXtWLABCx6bVrNmlQtwzKeC+6mJdg7YxqEV7Vi6AQsBsFJwzukU4L/GlqCPTbooKVqxUgIWAyGvVlxcI/gTjglOBBDC1plxLfWT8RL9loxBgIWgzPaLfAG2QdrAEFraxLxgm3sjImAxWDNhuCfj6EHrXSX4E4YZB+B3gUt7UBGTMBi0AbdNkyzVv8WrrsZoT4ELe1Axk7AYhQGtwnerBWRZ9BKpwP3o6paaQcycgIWo9L704ZOCPIAKWi9dyPiVzsd7tEqYmdSxjcFKzggYDFKvQxaP4uDdqC9Vhxi8mEVst5ueTN8mrMq41tVsHopgNsELEZr2jbcq4JWMQ1a+UoflO/MnmFOjV/BMwtWJ07EJXNWcD8Bi9HLdhA+XXOTgtUvApb2wTsHYau2OS3BCuYiYMFMNkHr1unANGelHUhNbg3E//qdFapaRby2th4vCFZwPAEL7tFp0EoVK8GKhi3cPjwIVi+7NxDmJ2DBIVoNWqkNmAbYrV2gRUe2D7UCYSUCFhzjjqD1taj71KFgRQZSJSu1DqdVrX8XrKAOAhbMaRq0JnGulvUOghX52a1e39/aeV2wgjoIWLCEpfZopeH1X8bBjJVgRS6KuFpVaL9VvBBvBFAbAQtWUH6nqmgVVdg6ak7LqUBydBCsXq6C1dUAaidgQQ0eOKeVTmilRktqBwpW5GHaBqyeL1XBShsQGiRgQc2m7cMfVxWtXw7kYmn6T7UKWidgQUPKV6pK1lpDpw/heKpV0CEBC1pQha1zVdi6ELldx8PQ7N4xtH41gM4IWNCiKmhtVE/PxXoVtEotRGpyEKr+pvrVa6pVkAcBCzoybSFGFbKELZYhVEHWBCzIgLDFXA5C1ZtxEKp2AsiWgAWZEba4i0oV9JKABRmbzWylAfnnwmnEsUiD6m/MKlVvCFXQTwIW9EgVuM7GQXXrL1W3BuST1t9Vp/9gGAQs6KlZdevstLpVxBcFrl7Zqh5vxmR6/9+WKhUMj4AFAyFwZSu1/Laqfx8/qALV1TioUglUMHACFgzYdMFpCl3r8bXqA35z+muatjNr+f0gDipVKlQwQgIWjMjtKpfQVZc7w9ROqE4BMwIWcGt4Pt2deHbWXtwMwetOO7M239tVm29alUq/J0wBhxGwgEPNgtet2a7N6h3j87PwtTn7/aHYjU9mpVKI2omDilQKUruCFLAoAQtYyqzduBkxe16b/bqIx6d/XE5//9Zf05Wd6X8WtwNT3BGgdme/pxIF1E7AAloxC2R3PuKeXx9YOyKQTWaVprvtzJ5v/znXyAAAAAAAAAAAAAAAAAAAAAAAAAAAAAAAAAAAAAAAAAAAAAAAAAAAAAAAAAAAAAAAAAAAAAAAAJCR/w+4WK4xfGFFmgAAAABJRU5ErkJggg==;fontColor=#999999;labelPosition=right;align=left;spacingLeft=20;" vertex="1" parent="mu3TLzRvKkOABFL3PFfV-83">
          <mxGeometry x="11.379999999999999" y="12.5" width="35" height="35" as="geometry" />
        </mxCell>
        <mxCell id="mu3TLzRvKkOABFL3PFfV-94" value="" style="rounded=0;whiteSpace=wrap;html=1;fillColor=none;strokeWidth=4;strokeColor=#006600;opacity=50;" vertex="1" parent="mu3TLzRvKkOABFL3PFfV-56">
          <mxGeometry x="16" y="92.5" width="234" height="347.5" as="geometry" />
        </mxCell>
        <mxCell id="mu3TLzRvKkOABFL3PFfV-96" value="" style="endArrow=none;html=1;rounded=0;exitX=0.5;exitY=1;exitDx=0;exitDy=0;entryX=0.5;entryY=0;entryDx=0;entryDy=0;dashed=1;" edge="1" parent="mu3TLzRvKkOABFL3PFfV-50" source="mu3TLzRvKkOABFL3PFfV-56" target="mu3TLzRvKkOABFL3PFfV-56">
          <mxGeometry width="50" height="50" relative="1" as="geometry">
            <mxPoint x="260" y="96.5" as="sourcePoint" />
            <mxPoint x="310" y="46.5" as="targetPoint" />
          </mxGeometry>
        </mxCell>
        <mxCell id="mu3TLzRvKkOABFL3PFfV-45" value="" style="strokeColor=#dddddd;shadow=1;strokeWidth=1;rounded=1;absoluteArcSize=1;arcSize=2;" vertex="1" parent="mu3TLzRvKkOABFL3PFfV-50">
          <mxGeometry x="600" y="160" width="170" height="60" as="geometry" />
        </mxCell>
        <mxCell id="mu3TLzRvKkOABFL3PFfV-46" value="Service Account" style="editableCssRules=.*;html=1;fontColor=#999999;shape=image;verticalLabelPosition=middle;verticalAlign=middle;labelPosition=right;align=left;spacingLeft=20;part=1;points=[];imageAspect=0;image=data:image/svg+xml,PHN2ZyB4bWxucz0iaHR0cDovL3d3dy53My5vcmcvMjAwMC9zdmciIHhtbG5zOnY9Imh0dHBzOi8vdmVjdGEuaW8vbmFubyIgd2lkdGg9IjE2LjQyMDAwMDA3NjI5Mzk0NSIgaGVpZ2h0PSIyMC4wNDk5OTkyMzcwNjA1NDciIGZpbGwtcnVsZT0iZXZlbm9kZCIgdmlld0JveD0iMCAwIDE2LjQyMDAwMDA3NjI5Mzk0NSAyMC4wNDk5OTkyMzcwNjA1NDciPiYjeGE7CTxzdHlsZSB0eXBlPSJ0ZXh0L2NzcyI+JiN4YTsJLnN0MHtmaWxsOiM0Mjg1ZjQ7fSYjeGE7CS5zdDF7ZmlsbDojNjY5ZGY2O30mI3hhOwk8L3N0eWxlPiYjeGE7CTxwYXRoIGNsYXNzPSJzdDEiIGQ9Ik04LjIxIDBMMCAzLjQydjUuNjNjMCA1LjA2IDMuNSA5LjggOC4yMSAxMSA0LjcxLTEuMTUgOC4yMS01Ljg5IDguMjEtMTAuOTVWMy40MnptMCAzLjc5YTIuNjMgMi42MyAwIDAgMSAxLjAwNSA1LjA2QTIuNjMgMi42MyAwIDAgMSA2LjM1IDQuNTZhMi42MyAyLjYzIDAgMCAxIDEuODYtLjc3em00LjExIDExLjE1YTguNjQgOC42NCAwIDAgMS00LjExIDIuOTMgOC42NCA4LjY0IDAgMCAxLTQuMTEtMi45M3YtMi4yNWMwLTEuNjcgMi43NC0yLjUyIDQuMTEtMi41MnM0LjExLjg1IDQuMTEgMi41MnoiLz4mI3hhOwk8cGF0aCBjbGFzcz0ic3QwIiBkPSJNOC4yMSAwdjMuNzlhMi42MyAyLjYzIDAgMSAxIDAgNS4yNnYxLjEyYzEuMzcgMCA0LjExLjg1IDQuMTEgMi41MnYyLjI1YTguNjQgOC42NCAwIDAgMS00LjExIDIuOTNWMjBjNC43MS0xLjE1IDguMjEtNS44OSA4LjIxLTEwLjk1VjMuNDJ6Ii8+JiN4YTs8L3N2Zz4=;" vertex="1" parent="mu3TLzRvKkOABFL3PFfV-45">
          <mxGeometry width="24" height="30" relative="1" as="geometry">
            <mxPoint x="18" y="15" as="offset" />
          </mxGeometry>
        </mxCell>
        <mxCell id="mu3TLzRvKkOABFL3PFfV-48" value="" style="strokeColor=#dddddd;shadow=1;strokeWidth=1;rounded=1;absoluteArcSize=1;arcSize=2;" vertex="1" parent="mu3TLzRvKkOABFL3PFfV-50">
          <mxGeometry x="600" y="400" width="170" height="60" as="geometry" />
        </mxCell>
        <mxCell id="mu3TLzRvKkOABFL3PFfV-47" value="Cloud&lt;div&gt;Tasks&lt;/div&gt;" style="editableCssRules=.*;html=1;shape=image;verticalLabelPosition=middle;labelBackgroundColor=#ffffff;verticalAlign=middle;aspect=fixed;imageAspect=0;image=data:image/svg+xml,PHN2ZyB4bWxucz0iaHR0cDovL3d3dy53My5vcmcvMjAwMC9zdmciIHhtbG5zOnY9Imh0dHBzOi8vdmVjdGEuaW8vbmFubyIgd2lkdGg9IjM3Ni4zNDk5ODYzODk2NDkzNiIgaGVpZ2h0PSIzMDcuNjg0MDE3OTkzMzY5MjUiIHZpZXdCb3g9IjAgMCA5OS41NzU5OTYzOTg5MjU3OCA4MS40MDgwMDQ3NjA3NDIxOSI+JiN4YTs8c3R5bGUgdHlwZT0idGV4dC9jc3MiPiYjeGE7CS5zdDB7ZmlsbDojNjY5ZGY2O30mI3hhOwkuc3Qxe2ZpbGw6IzQyODVmNDt9JiN4YTs8L3N0eWxlPiYjeGE7CTxwYXRoIGNsYXNzPSJzdDAiIGQ9Ik0wIDB2NDAuODc1aDEwVjB6bTIyLjM5NCAwdjQwLjg3NWgxMFYwem0yMi4zOTQgMHY0MC44NzVoMTBWMHptMjIuMzk0IDB2NDAuODc1aDEwVjB6bTIyLjM5NCAwdjQwLjg3NWgxMFYweiIvPiYjeGE7CTxwYXRoIGNsYXNzPSJzdDEiIGQ9Ik04OS41NzYgNDAuODc1djQwLjUzM2gxMFY0MC44NzV6bS0yMi4zOTQgMHY0MC41MzNoMTBWNDAuODc1em0tMjIuMzk0IDB2NDAuNTMzaDEwVjQwLjg3NXptLTIyLjM5NCAwdjQwLjUzM2gxMFY0MC44NzV6TTAgNDAuODc1djQwLjUzM2gxMFY0MC44NzV6Ii8+JiN4YTs8L3N2Zz4=;spacingLeft=20;fontColor=#999999;align=left;labelPosition=right;" vertex="1" parent="mu3TLzRvKkOABFL3PFfV-48">
          <mxGeometry x="22.23076923076923" y="18.25" width="29.38" height="23.5" as="geometry" />
        </mxCell>
        <mxCell id="mu3TLzRvKkOABFL3PFfV-43" value="" style="strokeColor=#dddddd;shadow=1;strokeWidth=1;rounded=1;absoluteArcSize=1;arcSize=2;" vertex="1" parent="mu3TLzRvKkOABFL3PFfV-50">
          <mxGeometry x="600" y="320" width="170" height="60" as="geometry" />
        </mxCell>
        <mxCell id="mu3TLzRvKkOABFL3PFfV-44" value="Cloud&#xa;IAM" style="editableCssRules=.*;html=1;fontColor=#999999;shape=image;verticalLabelPosition=middle;verticalAlign=middle;labelPosition=right;align=left;spacingLeft=20;part=1;points=[];imageAspect=0;image=data:image/svg+xml,PHN2ZyB4bWxucz0iaHR0cDovL3d3dy53My5vcmcvMjAwMC9zdmciIHhtbG5zOnY9Imh0dHBzOi8vdmVjdGEuaW8vbmFubyIgd2lkdGg9IjE2LjQyMDAwMDA3NjI5Mzk0NSIgaGVpZ2h0PSIyMC4wNDk5OTkyMzcwNjA1NDciIGZpbGwtcnVsZT0iZXZlbm9kZCIgdmlld0JveD0iMCAwIDE2LjQyMDAwMDA3NjI5Mzk0NSAyMC4wNDk5OTkyMzcwNjA1NDciPiYjeGE7CTxzdHlsZSB0eXBlPSJ0ZXh0L2NzcyI+JiN4YTsJLnN0MHtmaWxsOiM0Mjg1ZjQ7fSYjeGE7CS5zdDF7ZmlsbDojNjY5ZGY2O30mI3hhOwk8L3N0eWxlPiYjeGE7CTxwYXRoIGNsYXNzPSJzdDEiIGQ9Ik04LjIxIDBMMCAzLjQydjUuNjNjMCA1LjA2IDMuNSA5LjggOC4yMSAxMSA0LjcxLTEuMTUgOC4yMS01Ljg5IDguMjEtMTAuOTVWMy40MnptMCAzLjc5YTIuNjMgMi42MyAwIDAgMSAxLjAwNSA1LjA2QTIuNjMgMi42MyAwIDAgMSA2LjM1IDQuNTZhMi42MyAyLjYzIDAgMCAxIDEuODYtLjc3em00LjExIDExLjE1YTguNjQgOC42NCAwIDAgMS00LjExIDIuOTMgOC42NCA4LjY0IDAgMCAxLTQuMTEtMi45M3YtMi4yNWMwLTEuNjcgMi43NC0yLjUyIDQuMTEtMi41MnM0LjExLjg1IDQuMTEgMi41MnoiLz4mI3hhOwk8cGF0aCBjbGFzcz0ic3QwIiBkPSJNOC4yMSAwdjMuNzlhMi42MyAyLjYzIDAgMSAxIDAgNS4yNnYxLjEyYzEuMzcgMCA0LjExLjg1IDQuMTEgMi41MnYyLjI1YTguNjQgOC42NCAwIDAgMS00LjExIDIuOTNWMjBjNC43MS0xLjE1IDguMjEtNS44OSA4LjIxLTEwLjk1VjMuNDJ6Ii8+JiN4YTs8L3N2Zz4=;" vertex="1" parent="mu3TLzRvKkOABFL3PFfV-43">
          <mxGeometry width="24" height="30" relative="1" as="geometry">
            <mxPoint x="18" y="15" as="offset" />
          </mxGeometry>
        </mxCell>
        <mxCell id="mu3TLzRvKkOABFL3PFfV-41" value="" style="strokeColor=#dddddd;shadow=1;strokeWidth=1;rounded=1;absoluteArcSize=1;arcSize=2;" vertex="1" parent="mu3TLzRvKkOABFL3PFfV-50">
          <mxGeometry x="600" y="240" width="170" height="60" as="geometry" />
        </mxCell>
        <mxCell id="mu3TLzRvKkOABFL3PFfV-42" value="Cloud&#xa;Functions" style="editableCssRules=.*;html=1;fontColor=#999999;shape=image;verticalLabelPosition=middle;verticalAlign=middle;labelPosition=right;align=left;spacingLeft=20;part=1;points=[];imageAspect=0;image=data:image/svg+xml,PHN2ZyB4bWxucz0iaHR0cDovL3d3dy53My5vcmcvMjAwMC9zdmciIHhtbG5zOnY9Imh0dHBzOi8vdmVjdGEuaW8vbmFubyIgd2lkdGg9IjIwIiBoZWlnaHQ9IjE5Ljk4OTk5OTc3MTExODE2NCIgdmlld0JveD0iMCAwIDIwIDE5Ljk4OTk5OTc3MTExODE2NCI+JiN4YTsJPHN0eWxlIHR5cGU9InRleHQvY3NzIj4mI3hhOwkuc3Qwe2ZpbGw6IzQyODVmNDt9JiN4YTsJLnN0MXtmaWxsOiM2NjlkZjY7fSYjeGE7CS5zdDJ7ZmlsbDojYWVjYmZhO30mI3hhOwk8L3N0eWxlPiYjeGE7CTxwYXRoIGNsYXNzPSJzdDEiIGQ9Ik0zIDMuOTlMMCA2LjQydjcuMTNsMyAyLjQ0eiIvPiYjeGE7CTxwYXRoIGNsYXNzPSJzdDAiIGQ9Ik0zIDMuOTlsLTMgNCAzLTJ6bS0zIDhsMyA0di0yeiIvPiYjeGE7CTxwYXRoIGNsYXNzPSJzdDIiIGQ9Ik0wIDE1Ljk5bDQgNCAyLTItNi02em0uMDEtOEw1Ljk5IDJsLTItMkwwIDMuOTl6Ii8+JiN4YTsJPHBhdGggY2xhc3M9InN0MSIgZD0iTTE3IDE2bDMtMi40MlY2LjQ0TDE3IDR6Ii8+JiN4YTsJPHBhdGggY2xhc3M9InN0MCIgZD0iTTE3IDE2bDMtNC0zIDJ6bTMtOGwtMy00djJ6Ii8+JiN4YTsJPGcgY2xhc3M9InN0MiI+JiN4YTsJCTxwYXRoIGQ9Ik0yMCA0bC00LTQtMiAyIDYgNnptLS4wMSA4bC01Ljk4IDUuOTkgMiAyTDIwIDE2eiIvPiYjeGE7CQk8Y2lyY2xlIGN4PSI2IiBjeT0iOS45OSIgcj0iMSIvPiYjeGE7CQk8Y2lyY2xlIGN4PSIxMCIgY3k9IjkuOTkiIHI9IjEiLz4mI3hhOwkJPGNpcmNsZSBjeD0iMTMuOTkiIGN5PSI5Ljk5IiByPSIxIi8+JiN4YTsJPC9nPiYjeGE7PC9zdmc+;" vertex="1" parent="mu3TLzRvKkOABFL3PFfV-41">
          <mxGeometry width="30" height="24" relative="1" as="geometry">
            <mxPoint x="15" y="18" as="offset" />
          </mxGeometry>
        </mxCell>
        <mxCell id="mu3TLzRvKkOABFL3PFfV-95" value="" style="rounded=0;whiteSpace=wrap;html=1;fillColor=none;strokeWidth=4;strokeColor=#000066;opacity=50;" vertex="1" parent="mu3TLzRvKkOABFL3PFfV-50">
          <mxGeometry x="310" y="140" width="490" height="350" as="geometry" />
        </mxCell>
        <mxCell id="mu3TLzRvKkOABFL3PFfV-89" value="" style="verticalLabelPosition=bottom;html=1;verticalAlign=top;align=center;strokeColor=none;fillColor=#00CC00;shape=mxgraph.azure.user;" vertex="1" parent="1">
          <mxGeometry x="143.12" y="537.5" width="47.5" height="55" as="geometry" />
        </mxCell>
        <mxCell id="mu3TLzRvKkOABFL3PFfV-90" value="手動で管理" style="text;html=1;align=center;verticalAlign=middle;whiteSpace=wrap;rounded=0;fontSize=14;" vertex="1" parent="1">
          <mxGeometry x="123.75" y="592.5" width="86.25" height="30" as="geometry" />
        </mxCell>
        <mxCell id="mu3TLzRvKkOABFL3PFfV-91" value="&amp;nbsp;Terraformで管理" style="text;html=1;align=center;verticalAlign=middle;whiteSpace=wrap;rounded=0;fontSize=14;" vertex="1" parent="1">
          <mxGeometry x="485" y="592.5" width="120" height="30" as="geometry" />
        </mxCell>
        <mxCell id="mu3TLzRvKkOABFL3PFfV-93" value="" style="shape=image;verticalLabelPosition=bottom;labelBackgroundColor=default;verticalAlign=top;aspect=fixed;imageAspect=0;image=data:image/png,iVBORw0KGgoAAAANSUhEUgAABnkAAAGxCAYAAACug9NnAAAACXBIWXMAAEJvAABCbwFRKOG9AAAgAElEQVR4nOzd3XHb1vo+7Bv/2efKW4G0K7BSgZlBAdauwEwFUc45Y3qG51EqsFxBlAIwpivYcgWhK/hFFeA9ALSjOP7QB8kFgNc1o4m3t008gkUQWPda66natg0AAAAAAADj8v9KFwAAAAAAAMDDCXkAAAAAAABGSMgDAAAAAAAwQkIeAAAAAACAERLyAAAAAAAAjJCQBwAAAAAAYISEPAAAAAAAACMk5AEAAAAAABghIQ8AAAAAAMAICXkAAAAAAABGSMgDAAAAAAAwQkIeAAAAAACAERLyAAAAAAAAjJCQBwAAAAAAYISEPAAAAAAAACMk5AEAAAAAABghIQ8AAAAAAMAICXkAAAAAAABGSMgDAAAAAAAwQkIeAAAAAACAERLyAAAAAAAAjJCQBwAAAAAAYISEPAAAAAAAACMk5AEAAAAAABghIQ8AAAAAAMAICXkAAAAAAABGSMgDAAAAAAAwQkIeAAAAAACAERLyAAAAAAAAjJCQBwAAAAAAYISEPAAAAAAAACMk5AEAAAAAABghIQ8AAAAAAMAICXkAAAAAAABGSMgDAAAAAAAwQkIeAAAAAACAERLyAAAAAAAAjJCQBwAAAAAAYISEPAAAAAAAACMk5AEAAAAAABghIQ8AAAAAAMAICXkAAAAAAABGSMgDAAAAAAAwQkIeAAAAAACAERLyFLaom9mibr4rXQcAAAAAADAuQp7yZkk2i7pZFq4DAAAAAAAYESHPMBwlebWom82ibmaliwEAAAAAAIZPyDMsx0neLepmvaibk9LFAAAAAAAAwyXkGabnSf5Y1M2Ffj0AAAAAAMDnCHmG7ad0/XrmpQsBAAAAAACGRcgzfEdJ3izq5lq/HgAAAAAA4JaQZzyepevXc6lfDwAAAAAAIOQZn5dJrhd1s9SvBwAAAAAADpeQZ5yOkrxKF/aclS4GAAAAAADYPyHPuB0n+W1RN+tF3ZyWLgYAAAAAANgfIc80PE/y30XdXNjCDQAAAAAADoOQZ1p+SrJZ1M156UIAAAAAAIDdEvJMz1GSXxZ1s1nUzax0MQAAAAAAwG4IeabrOMm7Rd1cLermpHQxAAAAAADAdgl5pu9Fkj8WdbPUrwcAAAAAAKZDyHM4XiW5XtTNvHQhAAAAAADA0wl5DstxkjeLulnr1wMAAAAAAOMm5DlMz9P167m0hRsAAAAAAIyTkOewvUyyWdTNsnQhAAAAAADAwwh5OEryalE3G1u4AQAAAADAeAh5uHWcbgu39aJuTkoXAwAAAAAAfJ2Qh089T/LHom4u9OsBAAAAAIDhEvLwJT+l69czL10IAAAAAADwT0IevuYoyZtF3Vzr1wMAAAAAAMMi5OE+nqXr13OpXw8AAAAAAAyDkIeHeJnkelE3S/16AAAAAACgLCEPD3WU5FW6sOesdDEAAAAAAHCohDw81nGS3xZ1s17UzWnpYgAAAAAA4NAIeXiq50n+u6ibC1u4AQAAAADA/gh52JafkmwWdXNeuhAAAAAAADgEQh626SjJL4u62SzqZla6GAAAAAAAmDIhD7twnOTdom6uFnVzUroYAAAAAACYIiEPu/QiyR+Lulnq1wMAAAAAANsl5GEfXiW5XtTNvHQhAAAAAAAwFUIe9uU4yZtF3az16wEAAAAAgKcT8rBvz9P167m0hRsAAAAAADyekIdSXibZLOpmWboQAAAAAAAYIyEPJR0lebWom40t3AAAAAAA4GGEPAzBcbot3NaLujkpXQwAAAAAAIyBkIcheZ7kj0XdXOjXAwAAAAAAXyfkYYh+StevZ166EAAAAAAAGCohD0N1lOTNom6u9esBAAAAAIB/EvIwdM/S9eu51K8HAAAAAAD+IuRhLF4muV7UzVK/HgAAAAAAEPIwLkdJXqULe85KFwMAAAAAACUJeRij4yS/Lepmvaib09LFAAAAAABACUIexux5kv8u6ubCFm4AAAAAABwaIQ9T8FOSzaJuzksXAgAAAAAA+yLkYSqOkvyyqJvNom5mpYsBAAAAAIBdE/IwNcdJ3i3q5mpRNyeliwEAAAAAgF0R8jBVL5L8saibpX49AAAAAABMkZCHqXuV5HpRN/PShQAAAAAAwDYJeTgEx0neLOpmrV8PAAAAAABTIeThkDxP169nWboQAAAAAAB4KiEPh2hWugAAAAAAAHgqIQ8AAAAAAMAICXkAAAAAAABGSMgDAAAAAAAwQkIeAAAAAACAERLywFcs6uZsUTffla4DSlvUzXeLujkrXQcAAAAA8BchD3zdeZLrRd3MSxcCpfThznW69wMAAAAAMBD/Kl0AjMBxkjd90HO+aurrwvXAXizq5jTJRZLn/W9tylUDAAAAAHxKyAP39zzJfxd18zZd2PNn6YJgF/otCpdJfipcCgAAAADwFbZrg4d7mWSzqBtbVzE5/c/1JgIeAAAAABg8K3ngcY6S/NIPiM9XTb0uXA88yaJuZkku021PCAAAAACMgJAHnuY4ybtF3bxPF/ZsCtcDD7Kom5N0fXdeFC4FAAAAAHggIQ9sx/Mkfyzq5nWSC/16GLq+7855klelawEAAAAAHkdPHtiuV+n69cxLFwJf0v98XkfAAwAAAACjZiUPbN9Rkjf9QPpSvx6Gou+7s0y38gwAAAAAGDkhD+zO83T9et6mC3s2hevhQPVbs10keVm6FgAAAABge2zXBrv3Msn1om6WpQvh8PQ/d5sIeAAAAABgcqzkgf04SvKq38LtfNXUV4XrYeL6rdkukxyXrQQAAAAA2BUhD+zXcZLfFnXzPsncFm5s26JuTtKFO/ruAAAAAMDECXmgjOdJ/ljUza/p+vX8Wbogxq3vu7NM8lPhUgAAAACAPdGTB8r6KclmUTfnpQthvPptADcR8AAAAADAQbGSB8o7SvLLnX4967LlMBZ9352LJM8KlwIAAAAAFCDkgeF4luTdom5+Txf2bArXw0D1fXeWSV6WrQQAAAAAKEnIA8PzIslsUTcXSS706+FW33fnvP86KlwOAAAAAFCYnjwwTEdJXiW57rdx48At6uYsyXW6nwsBDwAAAABgJQ8M3HGSN3f69VwXroc9W9TNabq+O89L1wIAAAAADIuQB8bheZL/LurmbbqwxxZuE9dvzbZM8lPhUgAAAACAgbJdG4zLyySbRd2cly6E3en/fTcR8AAAAAAAX2ElD4zPUZJf+iBgvmrqdeF62JJF3cySXKbbpg8AAAAA4KuEPDBex0neLermfbqwZ1O4Hh5pUTcn6fruvChcCgAAAAAwIkIeGL/nSf5Y1M3rJBf69YxH33fnPMmr0rUAAAAAAOOjJw9Mx6t0/XrmpQvh2/p/p+sIeAAAAACAR7KSB6blKMmbPkBY6tczPH3fnWW6FVgAAAAAAI8m5IFpep6uX8/bdGHPpnA9B6/fmu0iycvStQAAAI9TVdVpku+SnPRft2YFyrl12bbtZcHjAwAFCXlg2l4mOVvUzcWqqZelizlUi7pZpuu9c1S4FAAA4J76QGfWf50keVawnK9Zly4AAChHyAPTd5TkVb+F2/mqqa8K13Mw+q3ZLpMcl60EAAD4lqqqvkty1n/NYpIWADACQh44HMdJflvUzfskc1u47c6ibk7ShTv67gAAwMBVVXWSrm/mWQQ7AMDICHng8DxP8seibn5N16/nz9IFTUXfd2eZ5KfCpQAAAN/QhzuXMTkLABix/1e6AKCYn5JsFnVzXrqQKei3w9tEwMMAVFU1q6qq9eXrnl+z0j+zALBPVVV9V1XVRZI/IuABAEbOSh44bEdJfrnTr2ddtpzx6fvuXGS4TVgBAIBeVVWnSa6ibyYAMBFCHiDpAop3i7r5PV3Ysylcz+D1fXeWSV6WrQQAALiPqqrmSd6UrgMAYJuEPMBdL5LMFnVzkeRCv55/6vvunPdfmrICAMAICHgAgKnSkwf41FGSV0mu+23c6C3q5izJdbrzI+ABAIAREPAAAFNmJQ/wJcdJ3tzp13NduJ5iFnVzmq7vjqasAAAwIn0PHgEPADBZQh7gW54n+e+ibt6mC3sOZgu3fmu2ZZKfCpcCAAA8UFVV3yVZl64DAGCXbNcG3NfLJJtF3ZyXLmQf+u9zEwEPAACM1UVsswwATJyVPMBDHCX5pQ9A5qumXheuZ+sWdTNLcpluuzoAAGCEqqqapZuoBgAwaUIe4DGOk7xb1M37dGHPpnA9T7aom5N0M/1eFC4FAAB4umXpAgAA9kHIAzzF8yR/LOrmdZKLMfbr6fvunCd5VboWAADg6fpVPM9L1wEAsA968gDb8Cpdv5556UIeoq/3OgIeAACYknnpAgAA9sVKHmBbjpK86YOT5ZD79fR9d5Yxuw8AACalqqrvohcPAHBAhDzAtj1P16/nbbqwZ1O4nv/pt2a7iIc+AACYqrPSBQAA7JPt2oBdeZnkelE3y9KFJElfxyYCHgAAmDIhDwBwUKzkKW90jerhAY6SvOq3cDtfNfXVvgvot2a7THK872MDAAB7NytdAADAPlnJU9iqqS+S/JjkY+laYIeOk/y2qJv1om5O9nHARd2cLOpmneRdBDwAADB5VVWdpptoBgBwMIQ8A7Bq6sskp0leFy4Fdu15kj8WdXPR98fZukXdfLeom4skf/THAwAADsNp6QIAAPZNyDMQq6b+c9XUyyT/TvJ74XJg135KslnUzfk2X7TfFm7Tvz4AAHBYhDwAwMER8gzMqqk3q6Y+S/JDkg+l64EdOkryy6Jurvu+OY+2qJvZom6uk7yJ7RkAAOBQCXkAgIPzr9IF8Hmrpl4nOe1XOixj4Jrpepbk3aJufk9yvmrqzX3/Yt/fZ5nk5U4qAwAAxmQnW0I/wYck6yR/9v/dlc0OXxsAGDghz8CtmvpiUTeX6QaybUHFlL1IMlvUzXzV1Fff+sOLujlLchkBKAAA0HlWuoDe70nO27bdlC4EAJg+27WNQN+v5zzJ90nel64Hdugo999i4TQCHgAAYFh+bNv2TMADAOyLkGdEVk19vWrqWZL/JPlYuBwAAAAYhKqqTkrXkOTXtm0vSxcBABwWIc8IrZr6atXUJ0leJ7kpXA4AAACUdlL4+DfptlkHANgrIc+IrZp6mW7LqreFSwEAAIBDdtW27Z+liwAADo+QZ+RWTb1ZNfU8yQ9JPpStBgAAAA7SVekCAIDD9K/SBbAdq6ZeJzld1M08yUU0pAc4ZJt0W3pOzTzJceEapnheN6ULAIAJWJcuAAA4TEKeiVk19eWibq6SnCd5VboeAPavbdtNJrgnfFVVsxQOedq2XZY8PgAwTLZqAwBKsV3bBK2a+s++X8+/k7wvXA4AAABMma3TAYBihDwT1vfrmaXr1/OxcDkAAAAwRVbxAADFCHkOwKqp16umPknXR+CmcDkAAAAAAMAWCHkOSL+F20mSt2UrAQAAAAAAnkrIc2D6fj3zJN9Hvx4AAAAAABgtIc+BWjX1dd+v58fo1wMAAAAAAKMj5Dlwq6a+THKarl8PAAAAAAAwEkIebrdwWyb5d5LfC5cDAAAAAADcg5CH/1k19WbV1GdJfkjyoXQ9AAAAAADAlwl5+IdVU69XTX2a5OckN6XrAQAAAAAA/knIwxetmvoiyUmSXwuXAgAAAAAAfELIw1f1/XrOk3yf5H3pegAAAAAAgI6Qh3tZNfX1qqlnSf6T5GPhcgAAAAAA4OAJeXiQVVNfrZr6JMnr6NcDAAAAAADF/Kt0AYzTqqmXi7q5TLJM8rJsNQDAFFVV9V2S03Q9Ak/635494CWuk/zZf10n+bNt2+vtVQgcuqqqZv0vb/97e926r3X/303/dd227Z9Prwymo6qqk3T3Aafp3mPJ4+4Hku49534AduzOffzt+/Ykf93Pf83tfXtyYO/XO9e6Wf9bd695X3Kw54u/E/LwaKum3iSZ92HPRZJnRQsCAEarf6g5TfdQc/tAePTEl33+meMk3daz1/3XOgZVgW+4M1g1y1/XqOMtvPSXrlPvc+c61bbtZgvHgsHrg9PTO1/bGGe4+z571R8ncT8AW9Pfy5/lr8/Jp3xGvuj/e/f9evu5uE73uTj692pVVbf3Fbdfj332+er5atv26gllMhJCHp5s1dTrJKeLupmnC3ueOiADAByAqqrO8tfD4DYGS+/ruP96kb8ehj6ke2i8att2vcdagIHqB5tvr1H7ntD2PHcGpquq+pj+GpWJDG5B8r9Bztv32T9Czx372v2AgVH4hj7Ymfdfu76Xv/1c/Kk/9u/pPhOvxvSZ2J+z83TXvV2es/+drz70+T3dubrc4TEpSMjD1qya+nJRN1fpLlavStcDAAxPVVXzdA81L77xR/ftWf/1U1VVN/nrofEgBniqqmr3fcy2batdvv4nKy/ubqF1koc9VL9u23b5yBqmeF5P8tdWIk85rz8MMVC9Ez6fZViT147TbZP9Mvnf4NblWK9RJd4bO/a8wPc0yPfQffQB6jz7n+RxHwd9P5D879/n3b6Pu6fPr9sVYif5a+uwh64ef9R7r9R57T36XuZz+u9lmf0Hs3e96L8uqqq6SrIc8qrXAZyzF0leVFV1keQyycWQzxcPJ+Rhq1ZN/WeS2349lyl7wQcABqB/qF5meIOmX3KUfjC1H+C5jAehUSi4Omyy+rBslgmf1z3PRN6W28Gam3S7KVy6RjFke5y9vk2f3g9cpbsf0O9iBPrPr9vPrrHcgw7aAIKKz7n7Pn2bgYU9AzxnR+lWQ/00xPPF4/2/0gUwTaum3qyaepbkh3T73AIAB6aqqllVVeskf6R7+Brjw/Xtg9AfVVWt+xCBAamq6qSqqsuqqv5M8lu6n7WxDCAOVlVVp1VVXSbZZKLn9fZnJ9016lXG+f0dpav9j/59cFK2HPi7/l7gKt377KeM832W/DWQ/N+qqq77lckM0J2fuf9L8ibjvQcdjP7z8irdSqShhBWf8zLd5+GyD/mKqarqu/4eY8jn7GWS66qqlqUL4emEPOzUqqnXq6Y+SfI6yU3hcgCAPegfrq8z7Ieax3ie5LeqqjYGd8rrQ4h1xh0iDs6dcPa/meh5/STceVm4nG26HdwS9lBcVVXzqqo26e4FhrZF61M9S/Kmvx84Lz2YTOeT+8+p/cwV09/zXmdc5/RVuvDi9Jt/cgf6SWGbjOMe4yjJqz68LnK+2A4hD3uxaupluv1O35atBADYlTuDw++y/ybl+3ScvwZ3rOzZs35m5EW6EGJKIWJR/XkdwyzdR7vzszO1cOdTg5nJzOHp7wU26VZQjHXVzn0dJ/klickfBfXB/TrTv//cqzsrUd5knBM+jtOtvDvf50H7+4zfMr5z9izJ2rVsvIQ87M2qqf9cNfU8yfdJ3petBgDYlpFsR7ALx+lW9qzNfNuPfl/zTbotf9iSOzNOxzRL90HufI+H9LNzO5N5VroQpu/O6sp3mX6486mj/DX5Y1a6mEPSD+Bf57DuP3eunyCwzjQmRPzSP6fs1J3JMmO+z7i9ll2WLoSHE/Kwd6umvu779fwY/XoAYNT6h+tNpvEQ+FjP080UXJYuZMr6n7V3Gd/MyEEb8YzTe7kz6DLZ7/EbjpO86/+dYeusrvyb2/fblS0Td+vOBKNfcpjX9p25E/BMaVXUy10GF3fO2VQmy+z0fLEbQh6KWTX1ZZLTdP16AIAR6R+u1/FwfZf9rHfkzkAOW3JngGzMM06/6s7Kr6kMujzFT/316aR0IUxH/x67zoSvI4/0It0qur1uEzVy954APLFVJoMy0YDn1k6CiwmfM0HPyAh5KKrfwm2Z5N9Jfi9cDgBwD3e2PTr0Gbuf8yxW9WxV/4BpIGf71pnwee3fg1Z+/d2z2L6NLbizeucQt2a7r6N020St9ca6l819/tCEB9SLO5Bzu4vgYp3pnjNBz4gIeRiEVVNvVk19luSHJB9K1wMAfN7Ut3baolcGdp5OwLMb/Xmd6oDE7ff3qnQdA3WUbjupeelCGKd+teo6Vu/c1/MkevVswYGEELuyucefucphnNuX21plN/X7qd7Wzhe7JeRhUFZNvV419WmSn5PclK4HAOhMpJnovj1PN2ve9m2P0A9CC3i2rA9qJ3le++vUdSb6/W3ZG0EPD9Wv5F1n+oOa23YbrhoofZqL+Nl7rM3X/s/+3uCQVuj/8tT78/79fCj3G78IqodPyMMgrZr6IslJkl8LlwIAB2+CzUT36TjJWtDzMP35elO6jhH6ak+DfoB2kkGtGd6PIujh3voBTSt5n+YXWx89zoENqO/VlO8NvuHqsSvu+/vUQ+sVeWmHgmET8jBYfb+e8yTfJ3lfuh4AOET9Q8wmBk6f4ihdn5556ULGoH+AvCpdx0htvvR/9Of1cm+V7JGA50kEPXxTH0wc2oDmrrysquraYOn9HeiA+l5M+d7gHo6TPHh13QGfs+N0q+kYKCEPg7dq6utVU8+S/CffmJ0IAGzPnX33zdrdDoOpf/laD8ZlNPLehctM9718GQHPU7zpZ3LDP+iNthPP0q3yFfT8ZfOV/+9yTzVMVtu26y/8X5eZ7r3BfbyqqurkgX/nPId7z/HStm3DJeRhNFZNfbVq6pMkr6NfDwDslIBnZwQ9nT8/95v9z90hbhmyU/0A/iS3W+wHoCf5ve3ZpW0l+ZSAZ6cEPX+3+dxv9tu0HeqA+k71g/U+Px8QIvaB0KtdFTISVvMMlJCH0Vk19TLJaZK3hUsBgEnqH2DWEfDsiqDnyzw4Ps36C78/yfPav48MQG/HUey3zx0Cnr0Q9HxFf16WpeuYgC+tnp7kvcEjPH/A6pTLHdYxFs88xwyTkIdRWjX1ZtXU8yQ/5OvbfQAAD3CnH4qAZ7cuDnzW/PrT3+gfsJ/vvZKJ6x/EJ7f9Xf/+MUC1Xc/inBIBz54JejrXn/m987gf3YZ/rJ7u7w2skPrLN3vzuE/9m2XpAvgnIQ+jtmrq9aqpT5P8GFu4AcA2rOOhbx+O0g3qnBSuY0iWpQuYgM8Nki33XcSeXMbg3y681J/nsAl4iniWL6/EPBR/CyL60OubA+/cy/ozv7fccw1D9+Ie9+TL3ZcxGsfuFYZHyMMkrJr6MslJun49AMAj9AM7Ap79OUpydaCzd/8WRpgduTWfDpLNM81VPMu4Vu2SbdsOlC0Qi3rW34cdqk8nKVjFsz0HcW+wBV8MFd2nfpYQdmCEPEzGqqn/7Pv1/DvJ+8LlAMCoGNgp5lC3R/p06xAPitvxuUGySdH0eC+OYsbywekHMd+UruPAvayqanLX7fto29Z9we58em+wLFHECMy/8v8t91TDmDy3I8GwCHmYnL5fzyxdv56PhcsBgMHT26K4l4fWwLRt2/Xtr/sHxBelapmSu4Nk/YDtFFe7XJYu4As+JPk1yc/pnkO+b9u2uvuVbjLaD+m2mv41w56Y9pPBm8PR/1tfFS6Dzi8PaAI/FX/rs9zfE1nFsz3/C3n6ny2reD7v6HNbkPXPSVbxfN68dAH85V+lC4BdWTX1OsnJom6WsdQXAL7mMuP5nLxJ97C66b8+9V2S0/6/Yxrgvqiqat227aZ0IXvwaR/FeYkiJujTwGBeoohdGuB2Ke/TXT+vPjML/R/69/fm7u/126Kdpfv3GtL3lnThvz33D8NlxnMfcAiuqqo6uc91ZSI2n/zveYEapurjJz9H81KFjMRZ/hl4W1X2ZfNY5TQYQh4mb9XUy0XdXKR7SLENDQDcMYLeFh/TNYy9SrJ+6IBHP/vuNN1D2yzDHcQ6SjfINitbxl58um3IvEQRE7S5/cWd4GBqhrLi8Pck59sIZftr2mW6Pji3qyqHEva8qKpqdnflHdPT3wcM5WeOzlG6+55Z4Tr25e5Kk5P4edymze0v+nuDbY+Jfchfk6+u88/teJPuPvyk/+/Q/21nd//Hju6n7nvOvuvrGfI5O+4D6U3pQhDycCBWTf1nknkf9kzxgRcAHqwfUBxqb4u36WbHP2n7mLZtr9M9QF0mSb8Nw3mG+cD0vKqq87ZthzKQvSt3B3NOY9uQbdnc+fVZhhtoPspAtp/7mGS+q9Cjv17N+uvUZYbxbzhPF7QzQQO/D/iS9+l+Jq+T/Pm192P//d0OlJ5m2JM9PnUo9wTJ3yd/GK/ZrvWdX8+39Jq/pwsh77WK9W4NA1+9mnShxWn/eZxs737q0ecs+d/zy1mGOXH9LMOZhHPQhDwclFVT3w70AADD7G3xNslyVzPC+tDoqp8puszwHpaWVVVdTnyLlrv3YvNSRUzQ+s6vpzhItix8/LfpVu/s/L3Ztu3tNWqd8sHWy6qqdnZNprjL0gXcw03+Ghx90MSPOwO169vf64Ofebrr5NAnGSyrqro6gPff5s6v54VqmKrTOysy5094nZt0A/mXT/l5/GT16kn/66GFPfOqqm6vNfMnvM5Nuu/v4qnv4TvPL8sM7/lFyDMQ/690AQAA7F9VVecpP3h414d0jcrn+xjMaNt207btPF0T9A/f+OP7dJTpPyht7vx6imFEKXfDsxfFqtiBATQ9/rW/Nu0tfG3b9s+2bU/ThUulbb0fQdu21ba/0l3PS/phF9/XV77WTyl2JNu1/pjkpH//PWll7622ba/btj1v2/YkyX/yz35mQ3II9wT/C+P6Qf8h/0yO0Ysk76qq+jOPP7e/pnsfbjXw7+/FZ+ne55/2ayzppyTv+q/H3nu8TXfOtrK1661Pnl+Gcs6GFtIdLCEPAMCB6bdKWJau447Xbdve3Rphb9q2XfcDqa/3feyveNkPdEzVSVVVJ7Zq27pZVVXf9Vt6TE3Jpse/tm1b7Pj9YE7pIHqKP1MHrf+MGWoz8ZskP7Zte9K27U5XtrZte9UPMv+Q4YY9L/rtKqfqY1VVZxPuJTcUj9ly7HYC1k5XsbZte5luK8WhhBZP8TFd4L/TiSF9yH+S8vcHSf63pS6FCXkAAA7PeYaxJ/1NugehZelC+hqGNCtuWbqAHXqT5I/o87Ftv1F3ScwAACAASURBVCX5v4xj+6WHKjXw97ZkwHPHLGWvTccTDQ8P2TLDuA/41O2Kgct9HrSf8DFL8nOGcx9w12XpAnboOH99fi3LlsIdb5PM9jUB67YnXYb5/ruv35Oc7qpv36f6EGmWYQQ9p6ULQMgDAHBQ+pmSQxi0vEn38LguXcitvpZZhvGAOfXVPMkwBxinYFLntQ8XSnxPHzKMa+XtQM68cBlCnonoZ1wPqZ9D0n3u/mfXKwa+pW3bi3SDlUMYNL3ruKqqeeki9mBSn18j9nrfW5Qm/wt6xvpZ87Zt27MC5+zPdOes9LOLkGcAhDzwdVNuegwP5f0A0zCEVTy3Ac/et2f7loHNJFyWLgAGoNSAT9HB5k/1/UhKbic11oE3/mlZuoBPfEh3T7CVnjtP1fe8GEo/rLsu+ok6sEs/llxh30+4GtIWyvfxtt9atYi+50+x4/dOCh+fJP8qXQAM2aqpzxZ1s8wwBsSglJskF6umXpYuBHiagaziGWzAc6tt2+t+pvM6ZT//X1ZVtdUmtwfoQ/6apPBnksf83K23Vs103A0bHnteN/f8cyXChbdDWmV4xzJdI+gSjqqqKtI7je3pP9uG1CT7NuAZTKB6q23beVVVyXBWPR2lu4dbFq5j7O5+fm1y/8+iux7zd8bg531vlfgFF+lCizH0bSwa8Nxq2/aqqqr3KXd9H9LnysES8sA3rJp6uaibi3QfNEO5wYN9eZtkuWrqTelCgK0YwqSFszEMEvZBz3m6/jElnad8MDcWH5JcpQtlNsKxrXmf7pyuk1zvczC2qqrTlLlmLQsc85vatl0XHsQ5y+MCPYZjWbqAOwYb8NwaYNAzz7D+DYfu93TXrHX2/Pk1Qm/77QqLa9v2z6qqlil/D/4t74cQ8NwxT9fzsoiqqr7zHitLyAP3sGrqP5PMF3Vzme6mSkrN1H1Icr5q6nXpQoCtKh0WvB7o7PjPatv2cgC9C+b9ah4PTZ/3Id1EnCvnaKvep2v0Xfq8zgoc8+3AA8LLlHsWmRU6LlvQ93kbynPs4AOeWwMLeo6rqpoPZLXFUP2e5HIo2/+NxIeBhRW39+AXKT857UtuMrBtTNu23RSeCHIaq9+L0pMHHmDV1OtVU8+S/Jhh7NUP23aT5MdVU58KeGBa+oa9JR+UPpTc4/sJzpN8LHj8owzsIXIg3if5oW3b07ZtL8cwUDgSvyf5vm3b2UDO66zAMQcxk/kr1gWPrbHyuC1LF9C7Sbeqt/T15d76AfCSPbHuWpYuYKDeJvl327ZnAp4Hm5cu4AsuSxfwFUO9hl2WLoByhDzwCKumvkzXWGxsDeHga14nOel/voHpmR/48R+lf4BbFi5jXvj4Q/IxXbgzG9OqsBH4kO68Dm07xX2HCh8G9v3/Q7/K6EOhwx/1q0EYmb4n3xBWoiTd4OimdBGPcJZhTPQ87lcZ03mfbnLCfKQ/V6W9HvDn3lDDuqH27UvKnrNZwWMTIQ882qqp/+wb0f873axHGKv3Sf69auplvzUhMDED2KLl1wE/QH5Tvy1KyRm8zw2sJulm6Z4O+MF6rH7tV0StSxfyGZdJfk33/tvHe/ByD8fYhpLX05OCx+bx5qUL6P060GvNN/WTPoaysnZeuoCB+Lmf9DHae8zCPg55lf1ArxU3Kb/99Rf116mhrDpkz/TkgSfqG9KfLepmlu7B8LhkPfAAH5PMbcsGB6HkoMRNyq+E2YZlkncFj3+W4W8jtUs/D6Uh8MT8OOTeDl8afLozi/00yXfpgoeT/tfPnnDI9RP+7j5tCh57lvGcJ/4yL11AumePZekinqJt23VVVb8m+alwKS+rqjof6HZR+3C75d+6dCEjtyxdwD2U7DHzORcjeN+tM6xzxp4IeWBL+oHyk0XdnKf7sBxqgzi4SXLRr0QDDsO84LHH8DD0Tf3Azoc8bQD5KeY53JBn0EHESI16gOxO3esv/Zk7QdDtf+8GQp+blHUzotngm4LH/q7gsXmEqqpOU+6z6675FO4H0j3rz1P+ef8s41l9uE03SazeebqPI7m3Wmc4gcVNxnEvXuq9cVLouPRs1wZbtmrqi3QXt7eFS4HPeZuu786ydCHAfvTbfJUc3BnDw9B9lfxenvU9FQ6NgGc3zsca8NxX27br/mvZf5312/qctG1bJfn/kvyQ5D/p+hIOdvuVz9gUPPa++yTxdPPSBSR5P5VrzkB69SXD2TpunwQ827MsXcA9DSkYvhxJUL0pdNyTQselJ+SBHej79cyTfB/7YTIM75N8v2rqub47cHBKDgK8HcnD0H1dpWzT5UMb0PlVwLMTPzuv3UBtHwJd9SHQZemaYEeG8NkxphD1m/rtQz8WLuPFAU7+OBfwbMXNiD7zhvTvPYqJa94jh0vIAzu0aurrVVPP0s0QLH0TyGH6mOTHVVPPVk3twx4OU8nBncuCx966PrC6KljCrOCx9+1D27aTGhQciN/1NuKJrOQZkX41b+mese8nOui4LF1AhhHg7YuJH9tT8l52rD60bbspXQR8jZAHvmJRN2eLunny7JhVU1+leyB6nbIzgDksr5Ocrpr6snQhQBn9DM9S+1h/nMrWLJ8Q8uzHvHQBE3STic2mp4jSfUh4mCGEAMvSBexI6dW9yeHcF3zMdH+OSjDZ4+EuSxcA3yLkga87T3K9qJv5U1+o38JtmS7s+f2prwdf8XuSf6+aemlrNjh4s4LHnuoswXXBYx8fyNYsv0501ndpF2ahjl9/DbCahvuaFT7+VCd83K7uvSxcxhBCvH04n9j2vyXdjOkea0DXj7E915QOoClAyAPfdpzkzaJu1ou6efID1aqpN6umPkvX6PXDk6uDv3xI8sOqqc9WTb0pXQwwCCUHAsf2MHQv/SBDyX57s4LH3oebmK27Cx/btl2WLoKHq6rqpKqqeVVVl1VVXSf5vyS/lK6L0XhR+PhTXzFwWfj4R1VVTT30fd+27STvKQtxLh9ujFu1jSbIY3v+VboAGJHnSf67qJu3Sc6fukJi1dTrJKf9KqGL2PqAx7tJslw19dQfooCHmxU67s2AZt7twjrltsE7zbQf0C/N1t0J9wgjUVXVLN21+7T/r2cEHmUgg/+XpQvYpbZtr6uq+pDkWcEyZpn2gO5l6QImZl26gBFaly4A7sNKHni4l0k2i7rZyp7mfb+UkyS/buP1ODi/JjkR8ABfUCqImPJgQ1L2+xvCoN0u+TzbvpsYJBukqqq+q6rqrKqqi6qq1lVVtUneJXmVbgWGgIenmBU+/vsDCe1LT7yY8n3Bx7ZtL0sXMTHr0gWM0NSfa5gIK3ngcY6S/NIHPfN+Vc6j9auCzhd1c5HuIbzUoBzj8T7dijI3HMBnFZ7Buy547H0Q8uzG+xFuhzEGVwcy0Dp4/XX5doXOLN220LArpT8vSocf+3KVLpgtZVbw2Lt2WbqAqXGf9SjGXBgFIQ88zXGSd4u6eZ8u7Nk85cX6vz9b1M1ZupmsHvz41Md04c6hPDQBj3dS8NjrgsfeubZtN1VVlTr8lO8NLksXMFHuGQqx9RqFlQ551oWPvxf9lm03Kff+dl/AfZXsKTlabdsKeRgFIQ9sx/Mkfyzq5nWSiy3067lKcrWom2WS83ggpNtq5WLV1MvShQCjUXJwZ1Pw2PvyPoVW3lZVdTrRB05hxPbdaFi9H1VVfZe/Vuicxsp8yivZJ+Zmop9TX7JOt8ViEVVVzSbYC/GjVSdbtyldwAh9KF0A3JeePLBdr9L165lv48X6Af2TJG+38XqM1tskpwIe4IFKhjx/VFXVTvkrZQdwvyt47F35YEuxnViXLmCqqqo6rapqXlXVZVVVmyT/l+S3JD9FwENhhbdsTQ7v2rMufPyTwsffBRMUtm9TuoARcm/KaFjJA9t3lORNH/Qst9SvZ76om8sky3hoPCQf0m3Nti5dCDBKUwwC6Jym/IDStq1LFzBRhzSTfqdsvcbInBQ+/qFde0p/vyeFj78L69IFTJDA4uE2pQuA+xLywO48T9ev5226sGfzlBfrB/pnfXh0EQ+WU3aTLty5LF0IMGomBUzXFAO80gNkU7UuXcAY2XqNCbCSZ79Kf4bNCh9/F0qf0ylyTh9uU7oAuC/btcHuvUxy3ffXebJ+4P8kyettvB6D8zrJiYAHgANj4GE3nNd76rdfW1ZVtY6t1xi/0pMBNoWPv1f9dqM3peuYEv14AB7GSh7Yj6Mkr/pVOOerpn7S/rL9Fm7Lfgu3ixRs8sjWvE8yf+qKL4BkEHvxs1uT+/c9sAbd+3Kjz9HXVVV1luT2yyp5pqTo58SBDtBfp1woPLX7gvelCwAYGyEP7Ndxkt8WdbOVAf3+758t6maW5LJ/fcblY7qfhXXpQoBJKT2Dl92a2r/vx9IFTJTg7DMEO7BzH0oXUMgm5UKeqV3LTFAAeCAhD5TxPMkfi7r5NV2/nifdxPQBwcmibs6TLDO9m7wpuklysWrqZelCAKCwTekCmLaqqk6SnCeZx30yh+Gk4LEPdYB+U7qACTFJAeCB9OSBsn5KsunDmSdbNfVFuhv6t9t4PXbmbbq+O8vShQCTdVK6AKC4dekCSquq6qzvsfNHuvtuAQ+HouQOD4ca8hRVVdWsdA0AlCPkgfKOkvyyqJvrftu1J1k19Z+rpp4n+T72sh2a90m+XzX1/KmrtwC+4aR0AfAAm9IFMC1VVc2rqtok+S3ltk+CQ3WoqzAO9fveBc/KAA9kuzYYjmdJ3i3q5vck51vo13OdZLaom7MkF9Gvp6SP6bbluyxdCAAM0KZ0AUxDP5P9Mu57gf0TTGyPwAzggazkgeF5keR6UTfLRd08ubHyqqmvkpwmeZ2uDwz79TrJqYAHAGA3qqo66bdlexcBDwAAB0bIA8N0lORVurBn/tQX67dwW6YLe35/6utxL78n+feqqZe2ZgMA2I2qqpbpeu7Ylg0AgINkuzYYtuMkb/qg57zfgu3R+i3gzvrePxfptohjuz6k+7daly4EAGCqqqo6SXIV97MAABw4K3lgHJ4n+e+ibi63tIXbetXUp0l+jC3ctuUmyc+rpj4V8AAA7E5VVWfpejYcasDzoXQBAAAMh5AHxuVlks2ibs638WJ9n5iTJL9u4/UO2K9JTlZNfVG6EACAKauqap7kt3TbGx+Cm3TbAP+c5Pu2baskW3kWAABgGmzXBuNzlOSXPuiZP3XVSN8v5nxRNxdJLmM/84d4ny1sowcAwLdVVXWZbtLTlH1Msk63Umndtq37TAAAvkrIA+N1nOTdom7epwt7Nk95sf7vzxZ1c5auX8/xkyucro/pwp2r0oUAAByCCQc8H9IHOulCnU3RauDpnry9+Eidli4AgMMl5IHxe57kj0XdvE5y0a/MebQ+uLha1M0y3VYQh7IVxn3cpDvHy9KFAHzDOsmr0kUAbEO/RdtUAp4P6QOddKHOk+7dYYAONewoHW5tCh8fgIL05IHpeJWuX898Gy/WBxknSd5u4/Um4G2SUwEPAMD+VFV1luRN6Tqe4H2S10l+aNu2atv2tG3b87ZtrwQ87ND70gWwX1YBAhw2K3lgWo6SvOmDnuWW+vXMF3VzmWSZw+zX8yHd1mzr0oUAABySqqpO0vWMHIub/LVK57pt23XJYqCQQ13JMytdAACHS8gD0/Q8Xb+et+nCns1TXqwPOGZ9eHSRw9jC7SZduHNZuhCAR9CoG5iCywz/vvP3/LX1mmsvQ1FyldjQ37NT9LF0AQCUJeSBaXuZ5GxRN1vpI7Nq6stF3Vyl69Uz5V4PW+lvBFBK27Z/VlVV6vBvM66Z92Pk84nJq6rqPMNdRf57kqsktlxjqK6TvCh18KqqTg8w9Cx5vdoUPDYAAyDkgek7SvKqX4Vzvmrqq6e8WB98LPst3C5S8OFhB94nmT915RPAQHxMclzguCe2KAKeoqqq79JtFTwkH9Pd+14KdhiB0j+jJzmgVcX91pIlbQofH4DC/l/pAoC9OU7y26Ju1ou6OXnqi62aerNq6rMkP2T8y8M/Jvlh1dQzAQ8wIZvSBQA80nmGs+XTxyQ/tm170rbthYCHkSgdsBxaX57S3++m8PEBKEzIA4fneZI/FnVzsaib7576YqumXq+a+iTJz+n62IzJTZLXq6Y+6fsOAUxJqQGeoW6vBIxAv4rnvHQdvV+TnLZte1m6EHigTeHjzwoff99KhzylQz0AChPywOH6KclmUTdbeYheNfVFumX5b7fxenvwNsnJNnoVAQzUptSBB7BtCTBe85RfxXOT5Ie2bc+t3GGM2rbdFC7h0CZ8zAoff1P4+AAUJuSBw3aU5JdF3Vwv6mb21BdbNfWfq6aeJ/k+XX+bIXqf5PtVU8/7/kIAU1VyVmfpGa3AeJVexXOTZDbw3mKusdxH0eexqqpmJY+/Z0VDrbZtreQBOHBCHiBJniV5t6ibqy3167leNfUsyX8ynH49H5P82PfdcRMMTF7hAcpZwWMDI1VV1Wm6PpKl3AY8Q79XfPKWyxyE0j/HZ4WPvxdVVZX+Poc6uRKAPRLyAHe9SHK9qJvllvr1XKWbafg6Zfv1vE5yumrqy4I1AJTwodBxZ4WOC4zbvPDxlyMIeJJui2T4lnXh45cOP/al9Pc5hmsWADsm5AE+dZTkVbqwZ/7UF+u3cFumC3t+f+rrPdDvSf69auqlrdmAA1Xqwf9Z3zwd4CFKDpa+b9v2ouDxH+KkdAGMQunB/+N+dd7UlQ551oWPD8AACHmALzlO8mZRN+tF3Tz55nzV1JtVU58l+SG7n1n+IckPq6Y+WzX1ZsfHAhiydcFjlx70AEakqqqTlN2qbSwBT6InD/fQtu0m5bfOnhc+/k71W7UdFS5jXfj4AAyAkAf4ludJ/ruom8stbeG2XjX1aZIfs/0t3G6S/Lxq6tNVU6+3/NoAY7QueOxZwWMD4zMreOybtm2vCh7/3vowrPSgMuOxLnz8eeHj71rpCS0f2ra1YwUAQh7g3l4m2Szq5nwbL9b3xzlJ8us2Xq9/nZNVU49pFibATvWzeEv15TmzZRvwACcFjz2KgKc3K10Ao1L6Z/uoqqp54Rp2og9cXxYuY134+AAMhJAHeIijJL8s6mazqJvZU1+s79dznuTfSd4/8mXeJ/l+1dTn+u4AfNa60HGPUn6GKzAes4LHXhc89kO5rvIQ69IFJFmWLmBH5qULSPkQD4CBEPIAj3Gc5F3fr+fkqS/W9+uZJflPks09/9omyX9WTT1bNXXppqIAQ3ZZ8NhbWf05JFVVnVRVNa+qala6FpiYk4LH3hQ89kPNShfAePRbef1euIzjvnfNZPQrlUvf49y0bbsuXAMAA/Gv0gUAo/Y8yR+Lunmd5OKpK2lWTX3vmUj9dm8AfEPbttdVVd2kTA+HZ1VVzSY2CHGe5Kckqaoq6Zpab9LNlt4k2Uzs+4V9OS547FFMGBpIk3fG5yrJi8I1XGRaq06WKf9enNL5BOCJrOQBtuFVun4989KFAPBZJQcClgWPvVX9zN35J799nG7Sw6skb5K8q6qqrapqU1XVuqqqpZU/8HWl+3eNqHH5vHQBjNIQwoDjqqpKr3zZir4Xz0+Fy0jKrtQGYGCEPMC2HCV502/hNitdDAB/c1Hw2M8nFHCc5/4zd4U/cH+npQsYun5gufRqDEaoDzHflq4jybJ0oLsll6ULSPLRqmEA7rJdG7Btz9P163mbZLlq6k3hegAOXr9l28eU2w7pIiMfxN3i/vvH+SsAun3txLZvwNctSxfAqF0leVm4hqO+jlnhOh6tX430/Jt/cPcuSxcAwLBYyQPsyssk14u6WZYuBIAkZVfzPJvANi0PWcXzGF9b+TOErXZgsvpVMoPV11d6gJ4Ra9v2Kt1kgtKej/V+oKqq0wwnbL0sXQAAwyLkAXbpKMmrRd1sFnVzVroYgAN3Wfj4y6EPpH5JX/erQocv2YweDsVJ6QK+oWRIz3QM5efol7FtVdqv5r3Kbid73Nfbtm03pYsAYFiEPMA+HCf5re/Xc1K6GIBDNIA9+W+3aRmjy8LHH+t5g7GYlS7gS6qqOotePGzHZZKb0kX0rvqVMYPXBzzrDGfSxWXpAgAYHiEPsE/Pk/yxqJuLRd1MoekmwNgsCx//WVVVl4VreJAB7L9/EyEP7NqsdAGf0w8uX5aug2noJ3sMZTXPUZL1SIKeiyTPShfRe69fHwCfI+QBSvgpyWZRN6PcjxlgrPrtPUqu5kmSl1VVLQvXcC/9djK/FC7jqh+YA3bn+UC3k1xnGNtDMR0XGc5qnkEHPVVVfdf3xBtSP6xl6QIAGCYhD1DKUZJfFnVzvaibWeliAA7IsnQBSV5VVTUvXcTX9INOQ1hBc1m6ANiDTekCksxLF3BXv+pxKKsHmIiBreZJ/gp6BtW/9c4WbUPaKtEqHgC+SMgDlPYsybtF3Vzp1wOwewNZzZMkb4a6dVsf8KxTfgb9RwM6HIKBNBF/NZTVPP21cUirB5iWIa3mSbrP2t+Gssq3X8W7yfBC1mXpAgAYLiEPMBQvklwv6mZQs7gAJmpZuoDey6qqrvoZs4MwoIAnGc6/E+zDEAadL0sXMIaAZ6jba3E/A1zNc+tVVVXXpX6++u3ZLpK8yzDuAe763aQPAL5GyAMMyVESD40AO9bPmn9duo7eiyTX/czZoqqqOk/y3wxjcOembdvL0kXAHl2XLiBdb57LEgeuquqkqqrrDDzg6ZmUNXJt2y6TfCxdx2c8S/Lfqqou97myrv/836TrHTs0N0n0sgXgq4Q8AACH6SLDGeA5TvKuH9TZ+6qefnB1neSXfR/7K4Y4yxp2aQghT9KtMLzc5wH7HmXXedr2UPtcCXVeVdV8SKsweZR56QK+4mWSP/r7gp1MAuxX7iyrqtqk+/wfwgSPz7kYyJaWAAyYkAcA4AD127UMbWboyySbftDlZNcH68OdyyR/JHm+6+M9wE2EPByedekC7nhZVdV619ehqqpmfcD8Jk8bYH7ftu13SX7MfsL7o3Q1/19VVe2XvvZQB0/Qb//1a+k6vuFlupU911VVnT818Ok/9+dVVV0l+b8kr9JNNBmqD/2qKwD4qn+VLgAAgDLatr2qqur3dFumDcVRukGXV1VVvU1y1bbt1TYPUFXVWbrthoa6LdKyD+HgkKxLF/CJ5+m2krxIN5N+a+/JfnvKZbYXLi+TpG3by37bqSEPWjMsy3Sfh0P/mXmWfrVtVVU36Va+rdNtsbbp/8ymbdtNv8LsNgy6/fXt19C/z0/NSxcAwDgIeQAADts83QDJELcpeZluRv1NusGcdbqBnev7DrjeGew5TTLrv4b4vd762LatVTwcnLZt/6yq6kOetmXZtt2Gzuf9qr/Ltm0fta1cvwJhnu0PqL+/bcjeX++GdP4YuP59N0/yrnQtD3CULiD9R0haVdX+q9md14+93gBweIQ8AAAH7M4Az2+la/mKo3Srjf634qgfyHn/jb83pC3Y7mteugAo6DLD6o116yhdQ/af7oTO1/n7KoJPzfLXKoJdXouWd369k94lTFvbtuuqqn5N9zPOMLy3TRsADyHkAQA4cP22bWMc4BljiPM1v9/OyIcDdZVhhjx3/SN0LujTa8asUB2MXNu2t/1upva5OkY36Vb8AcC9/b/SBQAAUF7btudJPpSu44DdxCoeDlzbtpt8e4Uefzn/5H9bycNTnKX7LKKsmb58ADyUkAcAgFuzGOApZW5QB5IkelLdz+s+FLvrpEAdTET/GTSL+4CSftSHB4DHEPIAAJDEAE9Bb9u2vSpdBAxB/174WLqOgfuYz4dhz/ZdCNPSBwzz0nUcqNdt216WLgKAcRLyAADwP/0Aj73g9+dD/rnlEhw674mvs/KPnemD1h9L13Fg3rZtuyxdBADjJeQBAOBv+kbeBnh27ybJmcFa+Lt+kFlvns/7tb9G/01VVbP9l8JU9StK3Afsx9u2beeliwBg3IQ8AAD8gwGenbtJ11x5U7oQGKh56QIG6EOSZekiOAzuA/ZCwAPAVgh5AAD4LAM8OzXXXBm+rA9Afy5dx4DcxDZt7Jn7gJ0S8ACwNUIeAAC+qB/g+U+6AUa248d+OyrgK9q2vYht224JhiniTtDjPmB7Xgt4ANgmIQ8AAF/VBxKzGOB5qpt0Ac9l6UJgRM7SbVN2yH6+RzAsAGJn+s+tWdwHbMOPbdsuSxcBwLQIeQAA+KZ+BvlpDLY+1m0PnsvShcCY9NuTzXO4g8tv+xVNX2UbN3atvw84ifuAx7pJ8r37AAB2QcgDAMC99D0yZknelq1kdD6kC3jMtIdH6N87sxxe0PPQnh22tmOn2rb9s23b0yS/lq5lZN4nOXEfAMCuCHkAALi3foBnHvvz39fvEfDAkx1g0POYpuyuM+xF27bn0a/vvl63bTuz2g6AXRLyAADwYP12I6cxc/xrfm7b9szADmzHAW0X9fMjm7J/c1s32Ja+T9RJuskM/NOHdNuzLUsXAsD0CXkAAHiUtm03bdvOkvwcs3nvep9uYMeAK2xZH5rOMs1tI2+S/Oex145+S03BO3vTr+49S7eq52PpegbiJl1Qe2oVLwD7IuQBAOBJ+gHJk0xz0PUhbgd2bM8GO3Rn28gpbRd127vr6omvM890zgkj0f/cniZ5ncP++XubrveOSR4A7JWQBwCAJ7sz6Pp9DnMm+a8xsAN7dWe7qLEHzK+3Neu/X81z/vSS4GH6+4BlurBn7O/Jh7pdwTu3RSsAJQh5AADYmrZtr/st3H7IYYQ9b5P8u23bcwM7sH8jD5j///bu76itJA3j8KutuV9vBCsiWBzBQnUAizOADMb3cyGqTgB2BpABBNBVIgOcAWRgR6C9OIeBsT0ewyC1WnqeKsp/xmW+okayOD+d/m4yPn8sXvMvnXam7dJdTnRkOsr1NMlBdj/2XCc5dgcvAK2JPAAAvLrVarWcYs/b7N5Fni8Zj6Q5mN61e9d4Hth7ymy84wAACSpJREFUXwXmbX/OucnjheG7dXyCJ8dnbfvXgh31JPb8K+O/mbuys+dLHt/gcbJarZaN5wEAkQcAgPWZLryeZrzI8z59X+S5TnK2Wq3erFarhbgD22cKzKcZ7yLYtgvLl3mMO8t1f7Kv7qj4mHHvD2zUwzFuq9VqnvEOs+vGI73UTZKzjEezeoMHAFvll9YDAAD8JMdgdGw6yuxDkg+z2eww43LwkyT/bjnXT7hOcpXkasePY2t5zNVdw8+9br6ujUwXYBdJFtNzzsn08Z8Nj9L8OeTpnp7ZbPYm4x0+R9N/PkzypsVca/A5bR9zu/xvxKuY7jC7mv4/fHhM/q/tVD/0KclFxsfvXdtRNspjaT18XV/Ga6nna/F9s+/VG5utVqvWM8DW+q3UZZL/tp5jz5wPtSxaDwHAZsxms3nGizxH08c/202TZPxG8jbJcroYBeyQ6eLyUR5Dx2Fe93nn9+eQjM8jvV5Ug42ZzWZPXwdsOsQ+dZ/psZvdf3MHADvEnTwAADQzvTP2w/SR6R33X3+sI/zcZ3x33u3Dj87Vh903XbS9mj5+N5vNjqafHj357fn08bW7PL679+Hnd3v2Tn94NQ93+Dz8eno8PrwGmGc9b7z8lMfXAcuMrwNEHQC6JPIAALA1VqvVbb5zu/+TC7Dz/PGi68PRQ0/d5tsjKZbTjy7EAt94EnmXP/hjwAZMj8fl0997ctRg8u0xg/P88bXB53z7WuLh7/M6AICdI/IAALD13GUDAPtrustmOf1y+ed/EgD2zz9aDwAAAAAAAMDziTwAAAAAAAAdEnkAAAAAAAA6JPIAAAAAAAB0SOQBAAAAAADokMgDAAAAAADQIZEHAAAAAACgQyIPAAAAAABAh0QeAAAAAACADok8AAAAAAAAHRJ5AAAAAAAAOiTyAAAAAAAAdEjkAQAAAAAA6JDIAwAAAAAA0CGRBwAAAAAAoEMiDwAAAAAAQIdEHgAAAAAAgA6JPAAAAAAAAB0SeQAAAAAAADok8gAAAAAAAHRI5AEAAAAAAOiQyAMAAAAAANAhkQd+7HPrAQAAAAAA4HtEHviBoZaTJOdJvrSeBQAAAAAAnhJ54C8MtSySzJNctp0EAAAAAAAeiTzwE4ZaPg+1nCY5TnLTdhoAAAAAABB54FmGWpZDLUdJzuIINwAAAAAAGhJ54AWGWi4yHuF23nYSAAAAAAD2lcgDLzQd4bZIcpDkuvE4AAAAAADsGZEH/qahlruhlpOM+3ruW88DAAAAAMB+EHnglUz7euZJ3se+HgAAAAAA1kzkgVc21PIh476ey8ajAAAAAACww0QeWINpX89pkrdJbtpOAwAAAADALhJ5YI2GWm6HWo6SvIt9PQAAAAAAvCKRBzZgqOUqyWGS89jXAwAAAADAKxB5YEOmI9wWGWPPdeNxAAAAAADonMgDGzbUcjfUcpLkOMmn1vMAAAAAANAnkQcaGWpZDrUcJjmLI9wAAAAAAHgmkQcaG2q5SDJP8rHtJAAAAAAA9ETkgS0w7ev5NclBkpvW8wAAAAAAsP1EHtgi076eoyTvktw3HgcAAAAAgC0m8sAWGmq5GmqZJzmPfT0AAAAAAHyHyANbbKhlkXFfz2XbSQAAAAAA2DYiD2y5aV/PaZLj2NcDAAAAAMBE5IFODLUsp309Z3GEGwAAAADA3hN5oDNDLRcZj3A7bzsJAAAAAAAtiTzQoekIt0WSgyTXjccBAAAAAKABkQc6NtRyN9RyknFfz33reQAAAAAA2ByRB3bAtK9nnuR97OsBAAAAANgLIg/skKGWDxn39Vw2HgUAAAAAgDUTeWDHTPt6TpO8TXLTdhoAAAAAANZF5IEdNdRyO9RylORd7OsBAAAAANg5Ig/suKGWqySHSc5jXw8AAAAAwM4QeWAPTEe4LTLGnuvG4wAAAAAA8ApEHtgjQy13Qy0nSY6TfGo9DwAAAAAALyfywB4aalkOtRwmOYsj3AAAAAAAuiTywB4barlIMk/yse0kAAAAAAA8l8gDe27a1/NrkoMkN63nAQAAAADg54g8QJLf9/UcJXmX5L7xOAAAAAAA/AWRB/iDoZaroZZ5kvPY1wMAAAAAsLVEHuC7hloWGff1XLadBAAAAACA7xF5gD817es5TXIc+3oAAAAAALaKyAP8paGW5bSv5yyOcAMAAAAA2AoiD/DThlouMh7hdt52EgAAAAAARB7gWaYj3BZJDpJcNx4HAAAAAGBviTzAiwy13A21nGTc13Pfeh4AAAAAgH0j8gB/y7SvZ57kfezrAQAAAADYGJEHeBVDLR8y7uu5bDwKAAAAAMBeEHmAVzPt6zlN8jbJTdtpAAAAAAB2m8gDvLqhltuhlqMk72JfDwAAAADAWog8wNoMtVwlOUxyHvt6AAAAAABelcgDrNV0hNsiY+y5bjwOAAAAAMDOEHmAjRhquRtqOUlynORT63kAAAAAAHon8gAbNdSyHGo5THIWR7gBAAAAALyYyAM0MdRykWSe5GPbSQAAAAAA+iTyAM1M+3p+TXKQ5Kb1PAAAAAAAPfml9QAAQy13SY5+K/UkyZvG4wAAAAAAdGG2Wq1azwAAAAAAAMAzOa4NAAAAAACgQyIPAAAAAABAh0QeAAAAAACADok8AAAAAAAAHRJ5AAAAAAAAOiTyAAAAAAAAdEjkAQAAAAAA6JDIAwAAAAAA0CGRBwAAAAAAoEMiDwAAAAAAQIdEHgAAAAAAgA6JPAAAAAAAAB0SeQAAAAAAADok8gAAAAAAAHRI5AEAAAAAAOiQyAMAAAAAANAhkQcAAAAAAKBDIg8AAAAAAECHRB4AAAAAAIAOiTwAAAAAAAAdEnkAAAAAAAA6JPIAAAAAAAB0SOQBAAAAAADokMgDAAAAAADQIZEHAAAAAACgQyIPAAAAAABAh0QeAAAAAACADok8AAAAAAAAHRJ5AAAAAAAAOiTyAAAAAAAAdEjkAQAAAAAA6JDIAwAAAAAA0CGRBwAAAAAAoEMiDwAAAAAAQIdEHgAAAAAAgA6JPAAAAAAAAB0SeQAAAAAAADok8gAAAAAAAHRI5AEAAAAAAOiQyAMAAAAAANAhkQcAAAAAAKBDIg8AAAAAAECHRB4AAAAAAIAOiTwAAAAAAAAd+j/RUYdWpIMB1AAAAABJRU5ErkJggg==;" vertex="1" parent="1">
          <mxGeometry x="443.59000000000003" y="539.5" width="202.82" height="53" as="geometry" />
        </mxCell>
      </root>
    </mxGraphModel>
  </diagram>
</mxfile>
